<svg height="32" viewBox="0 0 32 32" width="32" xmlns="http://www.w3.org/2000/svg"><path d="m28.613 27.664c.024.071.038.152.038.237 0 .33-.212.61-.508.711l-.005.002c-.829.307-1.802.552-2.808.691l-.074.008c-.877 0-1.074-.898-1.602-3.299-.251-1.49-.66-2.823-1.218-4.074l.042.106c-.447.031-1.523.197-3.084.471v1.418c-.097 4.438-3.706 8-8.153 8.023h-.002c-2.04-.006-3.894-.795-5.278-2.083l.005.004c-.155-.138-.253-.338-.253-.562 0-.414.336-.75.75-.75.201 0 .384.079.519.208 1.113 1.038 2.61 1.677 4.256 1.683h.001c3.607-.057 6.524-2.929 6.654-6.511v-.012-1.149q-1.771.324-4.06.768c-.043.009-.092.014-.143.014-.414 0-.75-.336-.75-.75 0-.364.259-.667.602-.735l.005-.001c5.266-1.023 8.315-1.541 9.063-1.541 1.311 0 1.808 1.958 2.509 5.152.153.697.351 1.599.503 2.069.831-.186 1.513-.383 2.18-.614l-.14.042c.07-.024.151-.038.236-.038.33 0 .61.212.712.507l.002.005zm-18.944-11.643-.952-7.296c-2.268-.168-4.045-2.049-4.045-4.345 0-2.406 1.95-4.356 4.356-4.356s4.356 1.95 4.356 4.356c0 1.985-1.328 3.661-3.144 4.186l-.031.008.923 7.076 1.474-.376c.061-.018.13-.028.203-.028.414 0 .75.336.75.75 0 .355-.246.652-.577.73l-.005.001-1.649.42.088.679c.004.029.006.063.006.097 0 .38-.283.694-.649.743h-.004c-.029.004-.063.006-.098.006-.38-.001-.693-.283-.742-.649v-.004l-.066-.506c-2.874.79-4.96 3.355-5.016 6.415v.006c0 .414-.336.75-.75.75s-.75-.336-.75-.75c.044-3.83 2.698-7.029 6.265-7.902l.056-.012zm-.641-8.765c1.578 0 2.857-1.279 2.857-2.857s-1.279-2.857-2.857-2.857-2.857 1.279-2.857 2.857v.001c.002 1.577 1.28 2.855 2.857 2.856zm22.502-6.786c-.136-.136-.323-.219-.53-.219s-.394.084-.53.219l-30 30c-.147.137-.239.332-.239.549 0 .414.336.75.75.75.216 0 .411-.092.548-.238l30-30c.136-.136.219-.323.219-.53s-.084-.394-.219-.53z"/></svg>