<svg height="32" viewBox="0 0 32 32" width="32" xmlns="http://www.w3.org/2000/svg"><path d="m28.613 27.664c-.104-.3-.385-.512-.714-.512-.084 0-.164.014-.24.039l.005-.002c-.526.189-1.209.386-1.906.546l-.134.026c-.153-.471-.351-1.372-.503-2.069-.701-3.194-1.198-5.152-2.509-5.152-1.179 0-8.119 1.351-10.601 1.842l-.683-5.235 6.84-1.742c.337-.078.584-.376.584-.732 0-.414-.336-.75-.75-.75-.073 0-.143.01-.21.03l.005-.001-6.665 1.698-.924-7.077c1.848-.533 3.177-2.209 3.177-4.195 0-2.407-1.951-4.358-4.358-4.358s-4.358 1.951-4.358 4.358c0 2.297 1.777 4.179 4.032 4.346l.014.001.952 7.296c-3.623.885-6.277 4.083-6.321 7.909v.005.056c0 4.374 3.525 7.925 7.889 7.968h.004c4.449-.023 8.057-3.586 8.155-8.014v-.009-1.419c1.449-.255 2.602-.436 3.084-.469.515 1.145.924 2.478 1.162 3.869l.014.099c.527 2.4.724 3.299 1.601 3.299 1.081-.147 2.053-.392 2.981-.731l-.098.031c.3-.103.513-.383.513-.712 0-.085-.014-.166-.04-.243l.002.005zm-22.442-23.265s0 0 0-.001c0-1.578 1.279-2.857 2.857-2.857s2.857 1.279 2.857 2.857-1.279 2.857-2.857 2.857c-1.577-.002-2.855-1.28-2.857-2.856zm11.724 19.536c-.131 3.595-3.048 6.466-6.649 6.523h-.005c-3.542-.085-6.381-2.971-6.393-6.522v-.001c.056-3.067 2.142-5.632 4.968-6.41l.048-.011.764 5.857c.05.37.364.653.744.653.052 0 .103-.005.152-.015l-.005.001c1.885-.377 4.283-.841 6.377-1.224z"/></svg>