<svg height="32" viewBox="0 0 31 32" width="31" xmlns="http://www.w3.org/2000/svg"><path d="m30.606 14.187c-.29-.387-.541-.739-.769-1.058-1.141-1.597-1.895-2.651-3.922-2.651h-.69c-.373-2.327-2.363-4.084-4.764-4.091h-3.41c-2.402.007-4.392 1.764-4.761 4.063l-.004.028h-5.151l-3.871-3.871c-.136-.136-.323-.22-.53-.22h-2.046c-.414 0-.75.336-.75.75v4.091c.005 4.178 3.391 7.563 7.568 7.568h.832l-2.866 5.731c-.05.098-.079.213-.079.335 0 .414.336.75.75.75h4.433.01c1.548 0 2.955-.603 4-1.587l-.003.003c.03-.028.058-.058.083-.09l.001-.002 3.923-5.142h3.168v.689c-.804.311-1.364 1.078-1.364 1.976 0 1.167.946 2.113 2.113 2.113s2.113-.946 2.113-2.113c0-.898-.56-1.665-1.349-1.971l-.014-.005v-.689h2.659c2.033 0 2.784-1.054 3.921-2.648.228-.319.48-.673.77-1.061.093-.124.149-.28.149-.45s-.056-.327-.152-.453l.001.002zm-8.1 7.881c-.339 0-.614-.275-.614-.614s.275-.614.614-.614.613.274.614.613c0 .339-.275.613-.613.614zm1.203-11.59h-4.544v-2.591h1.295c1.576.004 2.896 1.098 3.244 2.568zm-6.658-2.591h.614v2.591h-3.863c.353-1.493 1.673-2.587 3.248-2.591zm5.455 8.045c-.414 0-.75.336-.75.75v.614h-2.023l.643-.841c.097-.125.155-.284.155-.457 0-.414-.336-.75-.75-.75-.243 0-.46.116-.597.295l-.001.002-5.67 7.431c-.769.705-1.799 1.138-2.93 1.138-.003 0-.005 0-.008 0h-3.218l2.866-5.731c.05-.098.079-.213.079-.335 0-.414-.336-.75-.75-.75h-2.045c-3.35-.004-6.064-2.719-6.068-6.068v-3.341h.985l3.871 3.871c.136.136.323.22.53.22h19.022v5.318h-2.591v-.614c0-.414-.336-.75-.75-.75zm6.108-.656c-.38.587-.798 1.097-1.266 1.556l-.001.001v-4.392c.469.461.888.972 1.248 1.524l.021.035c.142.199.293.411.457.636-.164.227-.316.439-.459.64zm2.824-6.094v2.728c0 .414-.336.75-.75.75s-.75-.336-.75-.75v-2.728c0-.414.336-.75.75-.75s.75.336.75.75zm0 8.181v2.728c0 .414-.336.75-.75.75s-.75-.336-.75-.75v-2.728c0-.414.336-.75.75-.75s.75.336.75.75z"/></svg>