<svg height="32" viewBox="0 0 30 32" width="30" xmlns="http://www.w3.org/2000/svg"><path d="m1.067 22.4h6.4l-2.667 2.667c-.267 0-.533.267-.533.533s0 .533.267.8l.8.8c.267.267.533.267.8.267s.533 0 .8-.267l5.867-5.867c.267-.267.267-.533.267-.8s0-.533-.267-.8l-5.867-5.867c-.267-.267-.533-.267-.8-.267s-.533 0-.8.267l-.533.8c-.267.267-.533.533-.533.8s0 .533.267.8l2.667 2.667h-6.133c-.267 0-.533 0-.8.267s-.267.533-.267.8v1.067c0 .267 0 .533.267.8s.533.533.8.533zm28-17.067c-.533-.533-1.067-.8-1.6-.8h-2.4v-1.6c0-.8-.267-1.333-.8-2.133-.533-.533-1.067-.8-1.867-.8h-1.333c-.8 0-1.333.267-1.867.8s-.8 1.333-.8 2.133v1.6h-6.933v-1.6c0-.8-.267-1.333-.8-2.133-.533-.533-1.333-.8-2.133-.8h-1.067c-.8 0-1.6.267-2.133.8s-.8 1.333-.8 2.133v1.6h-2.133c-.8 0-1.333.267-1.6.8s-.8.8-.8 1.6v4.533h27.467v18.4h-27.467c0 .533.267 1.067.8 1.6s.8.533 1.6.533h25.067c.533 0 1.067-.267 1.6-.8s.8-1.067.8-1.6v-22.667c-.267-.8-.267-1.333-.8-1.6zm-20 2.667c0 .267 0 .267-.267.533 0 0-.267.267-.533.267h-.8c-.267 0-.267 0-.533-.267 0 0-.267-.267-.267-.533v-5.067c0-.267 0-.267.267-.533 0 0 .267-.267.533-.267h1.067c.267 0 .267 0 .533.267 0 0 .267.267.267.533v5.067zm13.866 0c0 .267 0 .267-.267.533 0 0-.267.267-.533.267h-1.067c-.267 0-.267 0-.533-.267 0 0-.267-.267-.267-.533v-5.067c0-.267 0-.267.267-.533 0 0 .267-.267.533-.267h1.067c.267 0 .267 0 .533.267 0 0 .267.267.267.533z"/></svg>