<svg fill="none" height="21" viewBox="0 0 22 21" width="22" xmlns="http://www.w3.org/2000/svg"><g clip-rule="evenodd" fill="#212121" fill-rule="evenodd"><path d="m8.82605 14.4131c.27614 0 .5.2238.5.5v4.7174h8.56525v-4.7174c0-.2762.2238-.5.5-.5.2761 0 .5.2238.5.5v5.2174c0 .2761-.2239.5-.5.5h-9.56525c-.27614 0-.5-.2239-.5-.5v-5.2174c0-.2762.22386-.5.5-.5z"/><path d="m13.6087 6.58691c.1326 0 .2598.05268.3536.14645l7.3913 7.39134c.1952.1952.1952.5118 0 .7071-.1953.1952-.5119.1952-.7071 0l-7.0378-7.03778-7.03774 7.03778c-.19526.1952-.51184.1952-.70711 0-.19526-.1953-.19526-.5119 0-.7071l7.39135-7.39134c.0937-.09377.2209-.14645.3535-.14645z"/><path d="m16.5869 7.95654c0-.27614.2239-.5.5-.5h3.0435c.2761 0 .5.22386.5.5v3.04346c0 .2762-.2239.5-.5.5-.2762 0-.5-.2238-.5-.5v-2.54346h-2.5435c-.2761 0-.5-.22385-.5-.5z"/><path d="m11.8043 11.4348c0-.2761.2239-.5.5-.5h2.6087c.2762 0 .5.2239.5.5v2.6087c0 .2762-.2238.5-.5.5h-2.6087c-.2761 0-.5-.2238-.5-.5zm1 .5v1.6087h1.6087v-1.6087z"/><path d="m.5 4.47827c0-.27614.223858-.5.5-.5h3.47826c.27614 0 .5.22386.5.5v15.65213c0 .2762-.22386.5-.5.5h-3.47826c-.276142 0-.5-.2238-.5-.5zm1 .5v14.65213h2.47826v-14.65213z"/><path d="m3.97827 1c0-.276142.22386-.5.5-.5h15.65213c.2762 0 .5.223858.5.5v3.47826c0 .27614-.2238.5-.5.5h-15.65213c-.27614 0-.5-.22386-.5-.5zm1 .5v2.47826h14.65213v-2.47826z"/><path d="m.5 1c0-.276142.223858-.5.5-.5h3.47826c.27614 0 .5.223858.5.5v3.47826c0 .27614-.22386.5-.5.5h-3.47826c-.276142 0-.5-.22386-.5-.5zm1 .5v2.47826h2.47826v-2.47826z"/><path d="m7.08691 2.23914c.27615 0 .5.22385.5.5v1.73913c0 .27614-.22385.5-.5.5-.27614 0-.5-.22386-.5-.5v-1.73913c0-.27615.22386-.5.5-.5z"/><path d="m10.5652 2.23914c.2761 0 .5.22385.5.5v1.73913c0 .27614-.2239.5-.5.5-.2762 0-.5-.22386-.5-.5v-1.73913c0-.27615.2238-.5.5-.5z"/><path d="m14.0435 2.23914c.2761 0 .5.22385.5.5v1.73913c0 .27614-.2239.5-.5.5-.2762 0-.5-.22386-.5-.5v-1.73913c0-.27615.2238-.5.5-.5z"/><path d="m17.5217 2.23914c.2762 0 .5.22385.5.5v1.73913c0 .27614-.2238.5-.5.5-.2761 0-.5-.22386-.5-.5v-1.73913c0-.27615.2239-.5.5-.5z"/><path d="m2.23914 17.5217c0-.2761.22385-.5.5-.5h1.73913c.27614 0 .5.2239.5.5 0 .2762-.22386.5-.5.5h-1.73913c-.27615 0-.5-.2238-.5-.5z"/><path d="m2.23914 14.0435c0-.2762.22385-.5.5-.5h1.73913c.27614 0 .5.2238.5.5 0 .2761-.22386.5-.5.5h-1.73913c-.27615 0-.5-.2239-.5-.5z"/><path d="m2.23914 10.5652c0-.2762.22385-.5.5-.5h1.73913c.27614 0 .5.2238.5.5 0 .2761-.22386.5-.5.5h-1.73913c-.27615 0-.5-.2239-.5-.5z"/><path d="m2.23914 7.08691c0-.27614.22385-.5.5-.5h1.73913c.27614 0 .5.22386.5.5 0 .27615-.22386.5-.5.5h-1.73913c-.27615 0-.5-.22385-.5-.5z"/></g></svg>