<svg height="32" viewBox="0 0 32 32" width="32" xmlns="http://www.w3.org/2000/svg"><path d="m30.911 15.19-14.348 16.305c-.005.006-.013.008-.018.013-.051.052-.11.096-.175.13l-.004.002c-.019.014-.04.029-.063.043l-.003.002c-.088.041-.192.065-.301.065s-.212-.024-.305-.067l.005.002c-.026-.015-.047-.03-.068-.046l.002.001c-.068-.037-.127-.081-.178-.132-.005-.006-.013-.008-.018-.013l-14.348-16.305c-.126-.134-.203-.314-.203-.513 0-.414.336-.75.75-.75.232 0 .44.106.578.272l.001.001 13.035 14.812v-28.012c0-.414.336-.75.75-.75s.75.336.75.75v28.012l13.035-14.812c.139-.167.346-.273.579-.273.414 0 .75.336.75.75 0 .199-.077.379-.203.513z"/></svg>