<svg height="32" viewBox="0 0 32 32" width="32" xmlns="http://www.w3.org/2000/svg"><path d="m18.378 12.017c.026-.066.043-.143.047-.223v-.002l2.195-6.69c.024-.07.037-.15.037-.233 0-.308-.185-.572-.45-.688l-.005-.002-7.197-3.075c-.087-.038-.188-.06-.294-.06-.285 0-.533.158-.66.392l-.002.004-3.317 6.213c-.051.053-.093.115-.126.182l-.002.004c-.007.024-.013.053-.018.083v.004l-3.628 6.795c-.011.02-.019.039-.028.059-.306.691-.485 1.497-.485 2.345 0 2.181 1.181 4.086 2.938 5.11l.028.015-2.769 6.485-2.31-.987c-.085-.036-.184-.057-.288-.057-.414 0-.75.336-.75.75 0 .305.182.567.443.684l.005.002 5.998 2.563c.085.036.184.057.288.057.414 0 .75-.336.75-.75 0-.305-.182-.567-.443-.684l-.005-.002-2.309-.987 2.761-6.466c.484.145 1.041.23 1.617.232h.001c2.473-.007 4.594-1.506 5.511-3.644l.015-.039 2.394-7.297c.02-.027.039-.057.056-.089zm-5.33-9.263 5.933 2.534-1.775 5.412-6.84-2.922zm1.475 16.126c-.698 1.612-2.275 2.72-4.111 2.72-2.467 0-4.467-2-4.467-4.467 0-.626.129-1.223.362-1.764l-.011.029 3.36-6.293 7.08 3.025zm-5.393-3.723c-.102.235-.332.396-.6.396-.36 0-.652-.292-.652-.652s.292-.652.652-.652c.092 0 .181.019.26.054l-.004-.002c.235.102.397.332.397.6 0 .093-.019.181-.054.261l.002-.004zm1.88-2.743c-.235-.102-.396-.332-.396-.6 0-.36.292-.652.652-.652s.652.292.652.652c0 .093-.019.181-.054.26l.002-.004c-.102.235-.332.396-.6.396-.092 0-.18-.019-.26-.054zm-2.187 6.882c-.102.235-.332.396-.599.396-.36 0-.652-.292-.652-.652s.292-.652.652-.652c.093 0 .181.019.261.054l-.004-.002c.234.102.395.332.395.599 0 .093-.019.181-.054.261l.002-.004zm3.392-1.403c-.102.234-.332.395-.599.395-.36 0-.652-.292-.652-.652s.292-.652.652-.652c.092 0 .18.019.259.054l-.004-.002c.235.102.396.332.396.6 0 .093-.019.181-.054.261zm2.737-3.085c-.102.235-.332.396-.6.396-.36 0-.652-.292-.652-.652s.292-.652.652-.652c.093 0 .181.019.26.054l-.004-.002c.235.101.397.331.397.599 0 .093-.02.182-.055.262l.002-.004zm14.628 14.479c.006.037.01.08.01.123 0 .371-.269.68-.623.741l-.004.001-6.432 1.074c-.037.006-.081.01-.125.01h-.001c-.414 0-.75-.336-.75-.75 0-.371.27-.679.623-.739l.004-.001 2.478-.414-1.16-6.944c-.082.003-.164.02-.246.02-2.943-.008-5.385-2.144-5.868-4.95l-.005-.035c-.005-.031-.007-.067-.007-.104 0-.415.336-.751.751-.751.364 0 .667.259.736.602l.001.005c.363 2.133 2.197 3.737 4.407 3.737 2.467 0 4.467-2 4.467-4.467 0-.262-.023-.518-.066-.768l.004.027-1.774-6.878-4.891.818c-.036.007-.078.011-.121.011-.002 0-.003 0-.005 0-.413-.002-.747-.337-.747-.75 0-.37.267-.677.619-.739l.005-.001 4.763-.796-1.423-5.515-5.006.836c-.03.004-.065.007-.101.007-.414 0-.75-.336-.75-.75 0-.362.257-.664.598-.735l.005-.001 5.685-.95c.039-.007.084-.012.13-.012.346 0 .637.237.719.558l.001.005 1.76 6.825c.034.06.061.129.077.202l.001.005v.02c0 .023-.001.046-.003.069v-.003l1.923 7.462c.061.32.096.687.096 1.063 0 2.676-1.778 4.936-4.217 5.664l-.042.011 1.162 6.954 2.476-.413c.037-.006.079-.01.122-.01.371 0 .68.269.741.622l.001.005zm-3.856-13.911c-.361 0-.653-.293-.653-.653s.292-.653.653-.653.653.292.653.653c0 .323-.234.59-.541.644l-.004.001c-.033.006-.07.009-.108.009zm-1.286-4.405c.006.032.009.069.009.107 0 .322-.234.59-.541.643l-.004.001c-.032.006-.07.009-.108.009-.359-.001-.651-.292-.651-.652s.292-.652.652-.652c.322 0 .589.233.642.54zm.61 7.195c.359.001.65.293.65.652 0 .322-.233.589-.54.643l-.004.001c-.033.006-.07.009-.108.009-.36 0-.652-.292-.652-.652 0-.322.234-.59.541-.643l.004-.001c.033-.006.07-.009.109-.009zm-2.968-.859c-.361 0-.654-.293-.654-.654s.293-.654.654-.654.654.293.654.654c0 .323-.234.591-.541.644l-.004.001c-.033.006-.07.009-.109.009zm-2.037-4.94c.033-.006.07-.009.109-.009.361 0 .653.293.653.654s-.293.654-.654.654-.654-.293-.654-.654c0-.323.234-.591.541-.644l.004-.001z"/></svg>