<svg width="32" height="32" viewBox="0 0 32 32" fill="none" xmlns="http://www.w3.org/2000/svg">
<path fill-rule="evenodd" clip-rule="evenodd" d="M6 17.9761C6 17.6999 6.22386 17.4761 6.5 17.4761H11.5V18.4761H7.01646C7.26437 22.2269 10.283 25.1356 14 25.1356H18.1667C21.8837 25.1356 24.9023 22.2269 25.1502 18.4761H17.3333V17.4761H25.6667C25.9428 17.4761 26.1667 17.6999 26.1667 17.9761C26.1667 22.4976 22.6193 26.1356 18.1667 26.1356H14C9.54732 26.1356 6 22.4976 6 17.9761Z" fill="#212121"/>
<path fill-rule="evenodd" clip-rule="evenodd" d="M21.5914 7.27811C22.3462 6.6453 23.5 7.17009 23.5 8.18878V17.976H24.5V8.18878C24.5 6.32043 22.3353 5.31348 20.923 6.53387C20.9125 6.54295 20.9024 6.55245 20.8927 6.56237L20.1427 7.32833L20.8572 8.02795L21.5914 7.27811Z" fill="#212121"/>
<path fill-rule="evenodd" clip-rule="evenodd" d="M17.3284 7.31011C18.3423 6.37819 19.9016 6.35233 20.8573 7.32842C20.8635 7.33467 20.8694 7.34109 20.8752 7.34765C21.7823 8.37702 21.807 9.95176 20.8573 10.9217L20.3573 11.4323C20.2633 11.5284 20.1345 11.5825 20.0001 11.5825C19.8657 11.5825 19.7369 11.5284 19.6428 11.4323L16.8095 8.53868C16.6192 8.34431 16.6192 8.03343 16.8095 7.83906L17.3095 7.32842C17.3156 7.32215 17.3219 7.31605 17.3284 7.31011ZM18.0142 8.03802L17.8665 8.18887L20.0001 10.3678L20.1428 10.222L20.5001 10.5718L20.1428 10.222C20.6904 9.66282 20.7176 8.69128 20.1337 8.01885C19.5907 7.47451 18.663 7.4499 18.0142 8.03802Z" fill="#212121"/>
<path fill-rule="evenodd" clip-rule="evenodd" d="M16.0287 8.47206C16.1542 8.71799 16.0567 9.01917 15.8107 9.14475L14.3107 9.91071C14.0648 10.0363 13.7636 9.93873 13.6381 9.69279C13.5125 9.44686 13.61 9.14569 13.856 9.0201L15.356 8.25414C15.6019 8.12856 15.9031 8.22612 16.0287 8.47206Z" fill="#212121"/>
<path fill-rule="evenodd" clip-rule="evenodd" d="M19.524 12.0671C19.7793 12.1723 19.9009 12.4646 19.7957 12.7199L19.129 14.3369C19.0238 14.5922 18.7315 14.7138 18.4762 14.6086C18.2209 14.5033 18.0992 14.211 18.2045 13.9557L18.8712 12.3387C18.9764 12.0834 19.2687 11.9618 19.524 12.0671Z" fill="#212121"/>
<path fill-rule="evenodd" clip-rule="evenodd" d="M17.4207 10.6282C17.6246 10.8145 17.6388 11.1308 17.4525 11.3346L16.2858 12.6112C16.0996 12.8151 15.7833 12.8293 15.5794 12.643C15.3756 12.4567 15.3614 12.1405 15.5477 11.9366L16.7143 10.66C16.9006 10.4562 17.2169 10.4419 17.4207 10.6282Z" fill="#212121"/>
<path fill-rule="evenodd" clip-rule="evenodd" d="M11.3719 16.1582C11.6234 15.9013 11.9665 15.7739 12.3333 15.7739H16.5C16.8668 15.7739 17.2099 15.9013 17.4614 16.1582C17.712 16.4141 17.8333 16.7592 17.8333 17.125V22.2314C17.8333 22.5075 17.6095 22.7314 17.3333 22.7314H11.5C11.2239 22.7314 11 22.5075 11 22.2314V17.125C11 16.7592 11.1213 16.4141 11.3719 16.1582ZM12.0864 16.8578C12.0454 16.8997 12 16.9802 12 17.125V21.7314H16.8333V17.125C16.8333 16.9802 16.788 16.8997 16.7469 16.8578C16.7068 16.8168 16.6332 16.7739 16.5 16.7739H12.3333C12.2002 16.7739 12.1266 16.8168 12.0864 16.8578Z" fill="#212121"/>
</svg>
