<svg enable-background="new 0 0 32 32" viewBox="0 0 32 32" xmlns="http://www.w3.org/2000/svg"><path d="m31.2 26.1h-10.3c-.5 0-.9-.2-1.1-.6l-.9-1.7h5c.5 0 .8-.4.8-.8s-.4-.8-.8-.8h-5.9l-1.8-3.5c-.2-.4-.7-.6-1.1-.3-.4.2-.6.7-.3 1.1l3.6 6.9c.1.1.1.2.2.3l-2.7 3.8c-.3.4-.2.9.2 1.2.1.1.3.2.5.2.3 0 .5-.1.7-.3l2.7-3.8c.3.1.6.2 1 .2h6.9l.7 3.3c.1.4.4.7.8.7h.2c.4-.1.7-.5.6-1l-.6-2.9h1.6c.5 0 .8-.4.8-.8s-.4-1.2-.8-1.2zm-18.2-14.3 7.1 4.5c.3.2.6.3 1 .3.1 0 .3 0 .4-.1.5-.1.9-.4 1.2-.9.2-.3.3-.6.3-.9.3-2.5-.8-4.8-2.7-6.3l3.5-1.8c.4-.2.8-.6.9-1.1.1-.4 0-.9-.2-1.3-.2 0-.3-.1-.5-.2-2-1.5-4.8-1.8-7.2-.9-.7.3-1.3.7-1.8 1.2-.8-1.5-2.1-2.7-3.8-3.3-1-.3-2.1-.5-3.2-.5-.3 0-.6.1-.9.2-.8.3-1.1 1.4-.7 2.2l1 1.9c-.3 0-.5-.1-.8-.1-2.9 0-5.4 1.7-6.5 4.3 0 .1-.1.3-.1.5 0 .5.1 1 .5 1.3.3.4.8.6 1.4.6h5.7c-7 6.6-7.4 15.7-7.6 18.8v.5c0 .5.3.8.8.9h.1c.4 0 .8-.3.8-.8v-.6c.1-3.2.6-12.7 8.4-18.9h1.2c-3 6.2-4.1 12.9-3.1 19.5.1.4.4.7.8.7h.1c.5-.1.8-.5.7-.9-.9-6.3.3-12.8 3.2-18.8zm-11.3-2.1s-.1-.1 0-.2c.8-1.9 2.7-3.2 4.9-3.1 1.2 0 2.3.3 3.4.9.3.3.8.1 1-.3s.1-.9-.3-1.1-.8-.4-1.3-.6l-1.5-3.1c0-.1 0-.2 0-.3 1 .1 1.9.2 2.8.5 1.7.6 2.9 2.1 3.4 4 .1.3.4.6.8.6h.2c.4-.1.7-.6.6-1 0 0 0 0 0-.1.4-.6 1-1.1 1.7-1.3 1.8-.7 4-.4 5.6.7l-4.5 2.3c-.8-.3-1.5-.5-2.3-.6-.5-.1-.9.3-.9.7-.1.5.3.9.7.9 1 .2 1.8.4 2.6.8 1.8 1 2.9 3 2.7 5.2v.1c0 .1-.1.1-.1.1h-.1l-9.1-5.6c-.4-.2-.9-.1-1.1.3-.1.1-.1.3-.1.4h-8.8c-.2-.1-.2-.1-.3-.2z"/></svg>