<svg fill="none" height="22" viewBox="0 0 22 22" width="22" xmlns="http://www.w3.org/2000/svg"><g clip-rule="evenodd" fill="#212121" fill-rule="evenodd"><path d="m4.27562 4.59189c.06806-.20417.25913-.34189.47434-.34189h2.25v1h-1.88962l-3 9h17.77926l-3-9h-1.8063v-1h2.1667c.2152 0 .4062.13772.4743.34189l3.3333 10.00001c.0509.1525.0253.3201-.0687.4505-.094.1303-.2449.2076-.4056.2076h-19.16667c-.16072 0-.31165-.0773-.40562-.2076-.093977-.1304-.119547-.298-.068722-.4505z"/><path d="m.916626 14.75c0-.2761.223854-.5.500004-.5h19.16667c.2761 0 .5.2239.5.5v3.75c0 .9428-.8072 1.75-1.75 1.75h-16.66667c-.94281 0-1.750004-.8072-1.750004-1.75zm1.000004.5v3.25c0 .3905.35947.75.75.75h16.66667c.3905 0 .75-.3595.75-.75v-3.25z"/><path d="m3.16663 8.08325c0-.27614.22385-.5.5-.5h14.66667c.2761 0 .5.22386.5.5s-.2239.5-.5.5h-14.66667c-.27615 0-.5-.22386-.5-.5z"/><path d="m6.77562 3.75851c.06806-.20417.25913-.34188.47434-.34188h7.50004c.2152 0 .4062.13771.4743.34188l.8333 2.5c.0509.15248.0253.32009-.0687.45047-.094.13039-.2449.20765-.4056.20765h-9.16667c-.16072 0-.31165-.07726-.40562-.20765-.09398-.13038-.11955-.29799-.06872-.45047zm.83472.65812-.5 1.5h7.77926l-.5-1.5z"/><path d="m6 1.91663c-.39052 0-.75.35947-.75.75v2.08333c0 .27614-.22386.5-.5.5s-.5-.22386-.5-.5v-2.08333c0-.94281.80719-1.750004 1.75-1.750004h10c.9428 0 1.75.807194 1.75 1.750004v2.08333c0 .27614-.2239.5-.5.5s-.5-.22386-.5-.5v-2.08333c0-.39053-.3595-.75-.75-.75z"/><path d="m3.91663 19.25c.27614 0 .5.2239.5.5v.8333c0 .2762-.22386.5-.5.5-.27615 0-.5-.2238-.5-.5v-.8333c0-.2761.22385-.5.5-.5z"/><path d="m18.0834 19.25c.2761 0 .5.2239.5.5v.8333c0 .2762-.2239.5-.5.5-.2762 0-.5-.2238-.5-.5v-.8333c0-.2761.2238-.5.5-.5z"/></g></svg>