<?xml version="1.0" encoding="UTF-8"?>
<svg width="22px" height="22px" viewBox="0 0 22 22" version="1.1" xmlns="http://www.w3.org/2000/svg" xmlns:xlink="http://www.w3.org/1999/xlink">
    <!-- Generator: Sketch 57 (83077) - https://sketch.com -->
    <title>streamline-icon-alarm-bell-ring@24x24</title>
    <desc>Created with Sketch.</desc>
    <g id="Desktop-&amp;-Tablet" stroke="none" stroke-width="1" fill="none" fill-rule="evenodd" stroke-linecap="round" stroke-linejoin="round">
        <g id="Tablet-pdp-toplisting+urgency-alert" transform="translate(-527.000000, -109.000000)" stroke="#000000" stroke-width="1.5">
            <g id="streamline-icon-alarm-bell-ring@24x24" transform="translate(528.000000, 110.000000)">
                <path d="M5.28545455,2.96909091 C4.34181818,3.49363636 3.56363636,4.27181818 3.04,5.21545455" id="Path"></path>
                <path d="M4.52272727,0.454545455 C2.55363636,1.01454545 1.01363636,2.55363636 0.454545455,4.52363636" id="Path"></path>
                <path d="M3.18181818,15.4545455 L16.8181818,15.4545455" id="Path"></path>
                <path d="M16.8181818,15.4545455 C16.8181818,15.4545455 15.4545455,14.2672727 15.4545455,10 C15.4545455,6.59090909 13.1254545,3.57454545 10,3.57454545 C6.87454545,3.57454545 4.54545455,6.59090909 4.54545455,10 C4.54545455,14.29 3.18181818,15.4545455 3.18181818,15.4545455" id="Path"></path>
                <path d="M11.3636364,18.1818182 C11.3636364,18.9345455 10.7527273,19.5454545 10,19.5454545 C9.24727273,19.5454545 8.63636364,18.9345455 8.63636364,18.1818182" id="Path"></path>
                <path d="M10,3.57454545 L10,1.81818182" id="Path"></path>
                <path d="M14.7145455,2.96909091 C15.1836364,3.23090909 15.6136364,3.55545455 15.9945455,3.93454545 C16.3736364,4.31454545 16.6990909,4.74545455 16.96,5.21545455" id="Path"></path>
                <path d="M15.4772727,0.454545455 C17.4463636,1.01454545 18.9863636,2.55363636 19.5454545,4.52363636" id="Path"></path>
            </g>
        </g>
    </g>
</svg>