<?xml version="1.0" encoding="UTF-8"?>
<svg width="38px" height="38px" viewBox="0 0 38 38" version="1.1" xmlns="http://www.w3.org/2000/svg" xmlns:xlink="http://www.w3.org/1999/xlink">
    <!-- Generator: Sketch 59.1 (86144) - https://sketch.com -->
    <title>Combined Shape</title>
    <desc>Created with Sketch.</desc>
    <g id="Desktop-&amp;-Tablet" stroke="none" stroke-width="1" fill="none" fill-rule="evenodd">
        <path d="M21.5,32.7500001 C22.190356,32.7500001 22.75,33.3096441 22.75,34.0000001 C22.75,36.070356 21.070356,37.7500001 19,37.7500001 C16.9296441,37.7500001 15.25,36.070356 15.25,34.0000001 C15.25,33.3096441 15.8096441,32.7500001 16.5,32.7500001 C17.190356,32.7500001 17.75,33.3096441 17.75,34.0000001 L17.75,34.0000001 L17.7564615,34.127688 C17.8205496,34.7574997 18.3534587,35.2500001 19,35.2500001 C19.6896441,35.2500001 20.25,34.6896441 20.25,34.0000001 L20.25,34.0000001 L20.2564536,33.8721948 C20.3204661,33.2418747 20.8527913,32.7500001 21.5,32.7500001 Z M19,2.75000001 C19.690356,2.75000001 20.25,3.30964407 20.25,4.00000001 L20.25,4.00000001 L20.2504318,6.04848384 C25.9702086,6.77208131 30.25,12.404531 30.25,19 L30.25,19 L30.2532787,19.4838334 C30.2946799,22.5094124 30.7257069,24.8014419 31.4063125,26.4589434 C31.7446388,27.2828807 32.0528572,27.7624052 32.2385856,27.9736432 L32.2385856,27.9736432 L32.3208145,28.0572575 C32.3307319,28.0658922 32.3404802,28.074649 32.3500591,28.0835235 C32.3667067,28.0989755 32.3830788,28.1150177 32.399002,28.1314965 C32.4165209,28.1494754 32.4335898,28.1682061 32.4499949,28.1873351 C32.4593847,28.1985186 32.4687704,28.2098757 32.4779567,28.2213988 C32.4943144,28.2416238 32.5097884,28.2623174 32.5245464,28.2833823 C32.5347707,28.2983011 32.5447911,28.3132788 32.5544919,28.3284802 C32.5665112,28.3470119 32.5779715,28.3661053 32.5888831,28.3854389 C32.6009019,28.4069435 32.6123087,28.4285737 32.6230885,28.4505671 C32.6296812,28.4639642 32.6359672,28.4774385 32.6420023,28.4910027 C32.6707856,28.5554428 32.6942848,28.6228551 32.7119212,28.6926021 C32.7154599,28.7073704 32.7188937,28.7220776 32.7220597,28.7368348 C32.7257237,28.753056 32.7288704,28.7693166 32.7316987,28.7856862 C32.7432864,28.8534966 32.7494495,28.9220958 32.7499808,28.990803 C32.75,29.0192141 32.7495665,29.0383268 32.7487087,29.0573291 C32.7478532,29.0767896 32.7465195,29.0962362 32.7447315,29.115655 C32.7427799,29.1369372 32.74021,29.1587273 32.7370872,29.1803385 C32.7338861,29.2023571 32.7301165,29.2242608 32.7257574,29.2460793 C32.724931,29.250357 32.7240404,29.2546983 32.7231273,29.2590313 C32.7168153,29.2888105 32.7094805,29.3182456 32.701052,29.3474516 L32.7231273,29.2590313 C32.6800783,29.4633207 32.5871414,29.6492266 32.4576562,29.8034098 L32.4427426,29.8208146 C32.4322575,29.8328571 32.4215926,29.8446503 32.4107553,29.8561937 C32.3972439,29.8705528 32.3830437,29.8849521 32.3685036,29.899002 C32.3505247,29.916521 32.3317939,29.9335898 32.312665,29.949995 C32.3014815,29.9593848 32.2901244,29.9687705 32.2786012,29.9779568 C32.2583763,29.9943144 32.2376827,30.0097885 32.2166178,30.0245464 C32.201699,30.0347707 32.1867213,30.0447911 32.1715198,30.0544919 C32.1529882,30.0665113 32.1338948,30.0779716 32.1145612,30.0888831 C32.0951063,30.0997431 32.0755968,30.110102 32.0557889,30.1199508 C32.038829,30.1284089 32.022009,30.1362753 32.0050499,30.1437505 C31.9760361,30.1566243 31.9456133,30.1687001 31.914632,30.1795898 C31.9079266,30.1818045 31.9018753,30.1838696 31.8958108,30.1858874 C31.8671449,30.1956124 31.8374887,30.2043124 31.807398,30.2119212 C31.7926297,30.21546 31.7779224,30.2188938 31.7631653,30.2220597 C31.7469441,30.2257237 31.7306835,30.2288704 31.7143139,30.2316987 C31.6872908,30.236216 31.6601999,30.2400052 31.6330206,30.2429076 C31.5892215,30.2476341 31.5448871,30.2500001 31.5,30.2500001 L31.5991764,30.2460599 C31.5692796,30.2484375 31.5392999,30.2497457 31.5092994,30.2499801 L31.5,30.2500001 L6.50000002,30.2500001 C6.49224699,30.2500001 6.48451046,30.2499295 6.47679102,30.2497889 C6.46075567,30.2494943 6.4447673,30.2488856 6.42879756,30.2479723 C6.40356564,30.2465871 6.37864009,30.2444321 6.35393438,30.2415568 C6.33502905,30.2392254 6.31599431,30.2365498 6.29702412,30.2334378 C6.27313214,30.229695 6.24984005,30.2251921 6.22678798,30.2200525 C6.2123519,30.2166345 6.19760497,30.2130665 6.18291864,30.2092293 C6.15601916,30.202391 6.12976682,30.1945755 6.10389117,30.1859368 C6.08900974,30.1808197 6.07428982,30.1756091 6.05965737,30.1701176 C6.0350636,30.1609761 6.01075674,30.1509293 5.98684969,30.1401526 C5.97013118,30.1326285 5.95341185,30.1246681 5.93684792,30.1163209 C5.91942132,30.1074459 5.9024405,30.0983561 5.88569965,30.0888914 C5.86215307,30.0757561 5.83876435,30.0615397 5.81578397,30.0465002 C5.80592477,30.03982 5.79623293,30.0332719 5.78663915,30.0265929 C5.76258006,30.0100963 5.73889862,29.992348 5.71575829,29.9736665 C5.70357376,29.9636003 5.69178583,29.9537241 5.68018569,29.9436375 C5.63435377,29.9039638 5.59047796,29.8598024 5.54945468,29.8117658 L5.63052763,29.8980648 C5.61212931,29.8802487 5.5942768,29.8618722 5.57699762,29.842963 L5.54945468,29.8117658 C5.54671263,29.8085549 5.54398967,29.8053342 5.5412858,29.8021038 C5.48758373,29.7380636 5.44004303,29.6682467 5.39982029,29.5938911 C5.38915732,29.574238 5.3789128,29.5540063 5.36925948,29.5335812 C5.36130811,29.5167316 5.35353777,29.4992843 5.34616071,29.4816318 C5.33877995,29.4639681 5.33202452,29.4466881 5.32567184,29.4293036 C5.31673671,29.4049033 5.30839252,29.379644 5.30084587,29.354043 C5.29754021,29.3427655 5.29438995,29.3314855 5.29140218,29.3201748 C5.28385214,29.2916943 5.27726376,29.2626125 5.2717081,29.2331659 C5.26808928,29.2139386 5.2649024,29.1945731 5.26217442,29.1751632 C5.2541574,29.1180319 5.25000001,29.0595015 5.25000001,29.0000001 L5.25491682,29.111882 C5.25260235,29.0858764 5.25110258,29.0598247 5.25041433,29.0337676 L5.25000001,29.0000001 C5.25000001,28.9962921 5.25001616,28.9925879 5.25004838,28.9888875 C5.25026436,28.9640839 5.25122279,28.9394311 5.2529046,28.9148291 C5.25432822,28.8929707 5.2563528,28.8713455 5.258921,28.8498873 C5.26114805,28.832388 5.26366618,28.8146781 5.26656224,28.7970242 C5.27047375,28.7721012 5.27520414,28.7477979 5.28062727,28.7237571 C5.28453324,28.7073226 5.28868158,28.6905413 5.29317909,28.6738407 C5.29975004,28.6487375 5.30722299,28.6241249 5.31542139,28.5998464 C5.32011467,28.5863775 5.32488214,28.5729812 5.32988248,28.5596574 C5.33994559,28.532615 5.35107199,28.5059368 5.36307684,28.4797452 C5.36954734,28.4655794 5.37646892,28.4511557 5.38367918,28.436848 C5.39450069,28.4155724 5.40572917,28.3948564 5.41751518,28.3745035 C5.4264054,28.3588309 5.43615895,28.3427779 5.44630061,28.3269139 C5.45855939,28.3081085 5.47081905,28.2900374 5.48353082,28.2723125 C5.49473552,28.2563242 5.50704865,28.2399901 5.51980772,28.2239115 C5.53268529,28.207991 5.54523905,28.1929187 5.55813442,28.1781524 C5.59729886,28.1331008 5.64088391,28.089892 5.6882343,28.0494547 L5.60663662,28.1256986 C5.62077945,28.1112494 5.63526999,28.0971419 5.6500947,28.0833896 L5.6882343,28.0494547 L5.72577663,28.0144867 C5.90052397,27.839664 6.22909593,27.3594298 6.5942609,26.4731744 C7.31014315,24.7357281 7.75000001,22.2844058 7.75000001,19 L7.75000001,19 L7.75337282,18.6795071 C7.88936616,12.222692 12.1229588,6.75995101 17.7501574,6.04840933 L17.75,4.00000001 C17.75,3.30964407 18.3096441,2.75000001 19,2.75000001 Z M19,8.47000001 C14.1638454,8.47000001 10.25,13.2176288 10.25,19 L10.25,19 L10.2466307,19.5083295 C10.2018141,22.8599698 9.71204175,25.4686793 8.90573913,27.4255758 C8.85949314,27.5378148 8.81294072,27.6463553 8.76618377,27.751258 L29.2404849,27.7517454 C29.1913029,27.6413921 29.1423306,27.5270189 29.0936875,27.4085567 C28.2476144,25.3480868 27.75,22.5790284 27.75,19 L27.75,19 L27.746525,18.7018537 C27.6147657,13.0553288 23.7527727,8.47000001 19,8.47000001 Z M9.74934494,5.0174524 C10.3527423,4.68203786 11.1137998,4.89928088 11.4492143,5.50267826 C11.7846288,6.10607565 11.5673858,6.86713309 10.9639884,7.20254763 C9.43753691,8.05106645 8.17936961,9.30961204 7.33299449,10.8348505 C6.99802431,11.4384947 6.23712703,11.656298 5.63348285,11.3213278 C5.02983866,10.9863577 4.81203535,10.2254604 5.14700554,9.62181619 C6.22009544,7.68801876 7.81483129,6.09280343 9.74934494,5.0174524 Z M26.5518363,5.50079231 C26.8882924,4.89797509 27.6497239,4.68204676 28.2525411,5.01850288 C29.2117157,5.55385616 30.0918762,6.21783687 30.8749414,6.99717572 C31.6533976,7.77749867 32.3195117,8.66080346 32.852896,9.62163869 C33.1879642,10.2252285 32.9702845,10.9861611 32.3666947,11.3212293 C31.763105,11.6562975 31.0021723,11.4386178 30.6671041,10.835028 C30.246375,10.0771292 29.7203522,9.37959338 29.1082337,8.76599551 C28.4902432,8.15095489 27.7934611,7.62531227 27.0341257,7.20149714 C26.4313085,6.86504102 26.2153801,6.10360953 26.5518363,5.50079231 Z M8.61639847,0.297677027 C9.28042312,0.108831607 9.97181091,0.494040478 10.1606563,1.15806512 C10.3495018,1.82208977 9.96429288,2.51347756 9.30026824,2.70232298 C6.10566158,3.61085378 3.60887071,6.10764465 2.70251033,9.30127545 C2.51402912,9.96540356 1.82285269,10.3509916 1.15872458,10.1625103 C0.494596462,9.97402913 0.109008463,9.28285271 0.297489677,8.61872459 C1.44046886,4.59134915 4.58867608,1.44314194 8.61639847,0.297677027 Z M27.8393437,1.15806512 C28.0281892,0.494040478 28.719577,0.108831607 29.3836016,0.297677027 C33.411324,1.44314194 36.5595312,4.59134915 37.7025104,8.61872459 C37.8909916,9.28285271 37.5054036,9.97402913 36.8412755,10.1625103 C36.1771474,10.3509916 35.485971,9.96540356 35.2974897,9.30127545 C34.3911294,6.10764465 31.8943385,3.61085378 28.6997318,2.70232298 C28.0357072,2.51347756 27.6504983,1.82208977 27.8393437,1.15806512 Z" id="Combined-Shape" fill="#000000" fill-rule="nonzero"></path>
    </g>
</svg>