<svg height="32" viewBox="0 0 32 32" width="32" xmlns="http://www.w3.org/2000/svg"><path d="m31.74 1.124c.006-.037.01-.079.01-.122 0-.415-.336-.751-.751-.751-.043 0-.085.004-.127.011l.004-.001c-.619.104-6.091 1.052-7.666 2.629-.489.489-4.563 4.573-8.47 8.49-.353-.017-.767-.027-1.183-.027-1.803 0-3.563.185-5.261.537l.167-.029c-1.227.537-2.275 1.265-3.155 2.157l-.001.001-4.838 4.838c-.135.136-.219.323-.219.53 0 .414.335.75.749.75.032 0 .064-.002.094-.006h-.004l5.954-.728v.005c0 .206.084.393.219.528l4.818 4.818c.125.122.292.2.478.21h.002l-.695 5.947c-.003.026-.005.056-.005.087 0 .414.336.75.75.75.207 0 .395-.084.53-.22l4.838-4.838c.88-.895 1.595-1.956 2.093-3.131l.025-.066c.345-1.543.543-3.316.543-5.135 0-.38-.009-.757-.026-1.133l.002.053 8.492-8.492c1.576-1.575 2.526-7.045 2.63-7.664zm-25.372 13.955c.722-.732 1.574-1.335 2.517-1.773l.053-.022c1.135-.255 2.438-.4 3.775-.4.183 0 .365.003.546.008l-.027-.001c-1.522 1.526-2.936 2.944-4.007 4.018-.01.009-.022.012-.031.021s-.012.022-.021.032c-.282.282-.534.536-.762.764l-5.341.652zm2.485 4.326c.228-.228.527-.528.877-.879l3.758 3.762-.875.875zm9.821 3.615c-.445 1.011-1.035 1.876-1.756 2.613l.002-.002-3.313 3.313.616-5.269.85-.85.005-.004.004-.006 4.015-4.015c.004.134.006.293.006.451 0 1.336-.157 2.636-.452 3.882l.023-.114zm-4.126-1.792-3.759-3.763c4.294-4.304 12.763-12.795 13.482-13.515.793-.793 3.635-1.575 5.792-2.013-.438 2.156-1.221 4.997-2.014 5.79zm-4.839 2.997c.968.968.565 2.339-.484 3.388-1.336 1.335-7.742 2.923-7.742 2.923s1.568-6.426 2.904-7.762c1.063-1.063 2.42-1.451 3.388-.484z"/></svg>