<svg width="24" height="24" viewBox="0 0 24 24" fill="#000000" xmlns="http://www.w3.org/2000/svg">
    <path fill-rule="evenodd" d="M8.23223 3.23223C8.70107 2.76339 9.33696 2.5 10 2.5H14C14.663 2.5 15.2989 2.76339 15.7678 3.23223C16.2366 3.70107 16.5 4.33696 16.5 5V6.5H20C21.3807 6.5 22.5 7.61929 22.5 9V19C22.5 20.3807 21.3807 21.5 20 21.5H4C2.61929 21.5 1.5 20.3807 1.5 19V9C1.5 7.61929 2.61929 6.5 4 6.5H7.5V5C7.5 4.33696 7.76339 3.70107 8.23223 3.23223ZM7.5 7.5H4C3.17157 7.5 2.5 8.17157 2.5 9V19C2.5 19.8284 3.17157 20.5 4 20.5H7.5V7.5ZM8.5 20.5V7.5H15.5V20.5H8.5ZM16.5 20.5H20C20.8284 20.5 21.5 19.8284 21.5 19V9C21.5 8.17157 20.8284 7.5 20 7.5H16.5V20.5ZM15.5 6.5H8.5V5C8.5 4.60218 8.65804 4.22064 8.93934 3.93934C9.22064 3.65804 9.60217 3.5 10 3.5H14C14.3978 3.5 14.7794 3.65804 15.0607 3.93934C15.342 4.22064 15.5 4.60218 15.5 5V6.5Z" />
</svg>
