<svg width="24" height="24" viewBox="0 0 24 24" fill="#000000" xmlns="http://www.w3.org/2000/svg">
    <path d="M4.5 6C4.5 5.72386 4.72386 5.5 5 5.5H11C11.2761 5.5 11.5 5.72386 11.5 6C11.5 6.27614 11.2761 6.5 11 6.5H5C4.72386 6.5 4.5 6.27614 4.5 6Z" />
    <path d="M16.5 12C16.5 11.7239 16.7239 11.5 17 11.5H19C19.2761 11.5 19.5 11.7239 19.5 12C19.5 12.2761 19.2761 12.5 19 12.5H17C16.7239 12.5 16.5 12.2761 16.5 12Z" />
    <path fill-rule="evenodd" clip-rule="evenodd" d="M1.5 2C1.5 1.72386 1.72386 1.5 2 1.5H14C14.2761 1.5 14.5 1.72386 14.5 2V7.5H22C22.2761 7.5 22.5 7.72386 22.5 8V22C22.5 22.2761 22.2761 22.5 22 22.5H2C1.72386 22.5 1.5 22.2761 1.5 22V2ZM6.5 21.5H9.5V16.5H6.5V21.5ZM10.5 21.5V16C10.5 15.7239 10.2761 15.5 10 15.5H6C5.72386 15.5 5.5 15.7239 5.5 16V21.5H2.5V2.5H13.5V21.5H10.5ZM14.5 21.5H21.5V8.5H14.5V21.5Z"/>
</svg>
