<svg width="24" height="24" viewBox="0 0 24 24" fill="#000000" xmlns="http://www.w3.org/2000/svg">
    <path d="M12 2.5C8.41015 2.5 5.5 5.41015 5.5 9C5.5 10.721 6.16815 12.2848 7.26017 13.448C8.27328 14.5271 9.31066 15.8887 9.47693 17.5H14.5231C14.6893 15.8887 15.7267 14.5271 16.7398 13.448C17.8318 12.2848 18.5 10.721 18.5 9C18.5 5.41015 15.5899 2.5 12 2.5ZM4.5 9C4.5 4.85786 7.85786 1.5 12 1.5C16.1421 1.5 19.5 4.85786 19.5 9C19.5 10.9852 18.728 12.7912 17.4689 14.1324C16.3834 15.2887 15.5 16.5533 15.5 17.9468C15.5 18.2523 15.2523 18.5 14.9468 18.5H9.05315C8.74765 18.5 8.5 18.2523 8.5 17.9468C8.5 16.5533 7.61664 15.2887 6.53112 14.1324C5.27196 12.7912 4.5 10.9852 4.5 9ZM12 4.5C9.51472 4.5 7.5 6.51472 7.5 9C7.5 9.27614 7.27614 9.5 7 9.5C6.72386 9.5 6.5 9.27614 6.5 9C6.5 5.96243 8.96243 3.5 12 3.5C12.2761 3.5 12.5 3.72386 12.5 4C12.5 4.27614 12.2761 4.5 12 4.5ZM9 20.5C9 20.2239 9.22386 20 9.5 20H14.5C14.7761 20 15 20.2239 15 20.5C15 20.7761 14.7761 21 14.5 21H9.5C9.22386 21 9 20.7761 9 20.5ZM10 22.5C10 22.2239 10.2239 22 10.5 22H13.5C13.7761 22 14 22.2239 14 22.5C14 22.7761 13.7761 23 13.5 23H10.5C10.2239 23 10 22.7761 10 22.5Z" />
</svg>
