<svg height="32" viewBox="0 0 32 32" width="32" xmlns="http://www.w3.org/2000/svg"><path d="m10.661 25.252c.145.137.235.331.235.545 0 .414-.336.75-.75.75-.214 0-.408-.09-.544-.234l-2.079-2.078-2.079 2.078c-.135.131-.319.212-.523.212-.414 0-.75-.336-.75-.75 0-.203.081-.388.212-.523l2.079-2.078-2.079-2.078c-.14-.136-.227-.327-.227-.538 0-.414.336-.75.75-.75.211 0 .402.087.538.227l2.079 2.078 2.079-2.078c.137-.145.33-.235.545-.235.414 0 .75.336.75.75 0 .215-.09.408-.234.545l-2.078 2.078zm-6.4-15.676h2.51v2.511c0 .414.336.75.75.75s.75-.336.75-.75v-2.511h2.511c.414 0 .75-.336.75-.75s-.336-.75-.75-.75h-2.511v-2.511c0-.414-.336-.75-.75-.75s-.75.336-.75.75v2.511h-2.511c-.414 0-.75.336-.75.75s.336.75.75.75zm15.652 0h6.521c.414 0 .75-.336.75-.75s-.336-.75-.75-.75h-6.522c-.414 0-.75.336-.75.75s.336.75.75.75zm6.522 14.153h-6.522c-.414 0-.75.336-.75.75s.336.75.75.75h6.521c.414 0 .75-.336.75-.75s-.336-.75-.75-.75zm0-2.61h-6.522c-.414 0-.75.336-.75.75s.336.75.75.75h6.521c.414 0 .75-.336.75-.75s-.336-.75-.75-.75zm5.315-16.206v22.174c-.003 2.574-2.089 4.66-4.663 4.663h-22.174c-2.574-.003-4.66-2.089-4.663-4.663v-22.174c.003-2.574 2.089-4.66 4.663-4.663h22.174c2.574.003 4.66 2.089 4.663 4.663zm-4.663-3.163h-10.989v12.848h14.152v-9.685c-.002-1.746-1.417-3.161-3.163-3.163zm-25.337 3.163v9.685h12.848v-12.848h-9.685c-1.746.002-3.161 1.417-3.163 3.163zm3.163 25.337h9.685v-14.152h-12.848v10.989c.002 1.746 1.417 3.161 3.163 3.163zm25.337-3.163v-10.989h-14.152v14.152h10.989c1.746-.002 3.161-1.417 3.163-3.163z"/></svg>