<svg height="32" viewBox="0 0 30 32" width="30" xmlns="http://www.w3.org/2000/svg"><path d="m31 2.859h-4.467v-1.859c0-.414-.336-.75-.75-.75h-3.913c-.414 0-.75.336-.75.75v1.859h-10.24v-1.859c0-.414-.336-.75-.75-.75h-3.913c-.414 0-.75.336-.75.75v1.859h-4.467c-.414 0-.75.336-.75.75v27.391c0 .414.336.75.75.75h30c.414 0 .75-.336.75-.75v-27.391c0-.414-.336-.75-.75-.75zm-8.38-1.109h2.413v3.717h-2.413zm-15.652 0h2.412v3.717h-2.413zm-1.5 2.609v1.858c0 .414.336.75.75.75h3.912c.414 0 .75-.336.75-.75v-1.858h10.24v1.858c0 .414.336.75.75.75h3.913c.414 0 .75-.336.75-.75v-1.858h3.717v5.021h-28.5v-5.021zm-3.718 25.891v-19.37h28.5v19.37zm26.641-14.152c.414 0 .75-.336.75-.75s-.336-.75-.75-.75h-5.771v-1.858c0-.414-.336-.75-.75-.75s-.75.336-.75.75v1.858h-5.022v-1.858c0-.414-.336-.75-.75-.75s-.75.336-.75.75v1.858h-5.021v-1.858c0-.414-.336-.75-.75-.75s-.75.336-.75.75v1.858h-4.467c-.414 0-.75.336-.75.75s.336.75.75.75h4.467v3.718h-4.467c-.414 0-.75.336-.75.75s.336.75.75.75h4.467v3.717h-4.467c-.414 0-.75.336-.75.75s.336.75.75.75h4.467v1.858c0 .414.336.75.75.75s.75-.336.75-.75v-1.858h5.021v1.858c0 .414.336.75.75.75s.75-.336.75-.75v-1.858h5.022v1.858c0 .414.336.75.75.75s.75-.336.75-.75v-1.858h5.771c.414 0 .75-.336.75-.75s-.336-.75-.75-.75h-5.771v-3.717h5.771c.414 0 .75-.336.75-.75s-.336-.75-.75-.75h-5.771v-3.718zm-18.815 0h5.021v3.718h-5.021zm0 8.935v-3.717h5.021v3.717zm11.544 0h-5.022v-3.717h5.022zm0-5.218h-5.022v-3.718h5.022z"/></svg>