<svg height="32" viewBox="0 0 32 32" width="32" xmlns="http://www.w3.org/2000/svg"><path d="m12.232 23.196 10.964-10.964q.339-.339.339-.804t-.339-.804l-1.821-1.821q-.339-.339-.804-.339t-.804.339l-8.339 8.339-3.768-3.768q-.339-.339-.804-.339t-.804.339l-1.821 1.821q-.339.339-.339.804t.339.804l6.393 6.393q.339.339.804.339t.804-.339zm15.197-15.767v17.143q0 2.125-1.509 3.634t-3.634 1.509h-17.143q-2.125 0-3.634-1.509t-1.509-3.634v-17.143q0-2.125 1.509-3.634t3.634-1.509h17.143q2.125 0 3.634 1.509t1.509 3.634z"/></svg>