<svg height="32" viewBox="0 0 32 32" width="32" xmlns="http://www.w3.org/2000/svg"><path d="m31.271 18.561-11.261-4.379v-5.356c-.001-.207-.085-.394-.22-.53l-4.997-4.998v-2.298c0-.414-.336-.75-.75-.75s-.75.336-.75.75v2.298l-4.997 4.998c-.135.136-.219.323-.22.53v8.38h-7.076c-.414 0-.75.336-.75.75v13.044c0 .414.336.75.75.75s.75-.336.75-.75v-12.294h6.326v12.294c0 .414.336.75.75.75s.75-.336.75-.75v-21.424h8.934v21.424c0 .414.336.75.75.75s.75-.336.75-.75v-15.208l7.631 2.968v12.24c0 .414.336.75.75.75s.75-.336.75-.75v-11.657l1.587.617c.081.032.174.051.271.051.414 0 .75-.336.75-.75 0-.317-.196-.587-.474-.697l-.005-.002zm-17.228-13.892 3.406 3.407h-6.813zm-9.684 15.896v1.304c0 .414-.336.75-.75.75s-.75-.336-.75-.75v-1.304c0-.414.336-.75.75-.75s.75.336.75.75zm2.608 0v1.304c0 .414-.336.75-.75.75s-.75-.336-.75-.75v-1.304c0-.414.336-.75.75-.75s.75.336.75.75zm-2.608 3.914v1.304c0 .414-.336.75-.75.75s-.75-.336-.75-.75v-1.304c0-.414.336-.75.75-.75s.75.336.75.75zm2.608 0v1.304c0 .414-.336.75-.75.75s-.75-.336-.75-.75v-1.304c0-.414.336-.75.75-.75s.75.336.75.75zm-2.608 3.913v1.304c0 .414-.336.75-.75.75s-.75-.336-.75-.75v-1.304c0-.414.336-.75.75-.75s.75.336.75.75zm2.608 0v1.304c0 .414-.336.75-.75.75s-.75-.336-.75-.75v-1.304c0-.414.336-.75.75-.75s.75.336.75.75zm15.652-7.827v1.304c0 .414-.336.75-.75.75s-.75-.336-.75-.75v-1.304c0-.414.336-.75.75-.75s.75.336.75.75zm3.913 0v1.304c0 .414-.336.75-.75.75s-.75-.336-.75-.75v-1.304c0-.414.336-.75.75-.75s.75.336.75.75zm-3.913 3.914v1.304c0 .414-.336.75-.75.75s-.75-.336-.75-.75v-1.304c0-.414.336-.75.75-.75s.75.336.75.75zm3.913 0v1.304c0 .414-.336.75-.75.75s-.75-.336-.75-.75v-1.304c0-.414.336-.75.75-.75s.75.336.75.75zm-3.913 3.913v1.304c0 .414-.336.75-.75.75s-.75-.336-.75-.75v-1.304c0-.414.336-.75.75-.75s.75.336.75.75zm3.913 0v1.304c0 .414-.336.75-.75.75s-.75-.336-.75-.75v-1.304c0-.414.336-.75.75-.75s.75.336.75.75zm-14.347-16.957v15.652c0 .414-.336.75-.75.75s-.75-.336-.75-.75v-15.652c0-.414.336-.75.75-.75s.75.336.75.75zm2.608 0v15.652c0 .414-.336.75-.75.75s-.75-.336-.75-.75v-15.652c0-.414.336-.75.75-.75s.75.336.75.75zm2.609 0v15.652c0 .414-.336.75-.75.75s-.75-.336-.75-.75v-15.652c0-.414.336-.75.75-.75s.75.336.75.75z"/></svg>