<svg height="32" viewBox="0 0 27 32" width="27" xmlns="http://www.w3.org/2000/svg"><path d="m24.806 30.25h-1.858v-5.771c-.004-3.78-2.278-7.028-5.531-8.455l-.059-.023c3.313-1.451 5.586-4.699 5.591-8.478v-5.772h1.858c.414 0 .75-.336.75-.75s-.336-.75-.75-.75h-22.174c-.414 0-.75.336-.75.75s.336.75.75.75h1.858v5.771c.004 3.78 2.278 7.028 5.531 8.455l.059.023c-3.313 1.451-5.586 4.699-5.591 8.478v5.772h-1.858c-.414 0-.75.336-.75.75s.336.75.75.75h22.174c.414 0 .75-.336.75-.75s-.336-.75-.75-.75zm-17.382-18.261c-.896-1.24-1.434-2.791-1.434-4.468v-5.771h15.457v5.771c0 1.676-.537 3.227-1.449 4.49l.015-.023zm14.023 13.043h-3.505l-3.693-3.693c-.136-.136-.323-.22-.53-.22s-.395.084-.53.22l-3.693 3.693h-3.505v-.554c.01-4.261 3.466-7.711 7.729-7.711s7.719 3.45 7.728 7.71v.001z"/></svg>