<svg height="32" viewBox="0 0 32 32" width="32" xmlns="http://www.w3.org/2000/svg"><path d="m16 31.65c-7.18 0-13-5.82-13-13s5.82-13 13-13 13 5.82 13 13c-.034 7.166-5.834 12.966-12.997 13zm0-24.78c-6.484 0-11.74 5.256-11.74 11.74s5.256 11.74 11.74 11.74 11.74-5.256 11.74-11.74c-.011-6.479-5.261-11.729-11.739-11.74zm3.91-5.22h-7.82c-.361 0-.654-.29-.66-.649v-.001c.006-.36.299-.65.66-.65h7.82c.361 0 .654.29.66.649v.001c-.006.36-.299.65-.66.65zm4.85 8.85s0 0-.001 0c-.359 0-.65-.291-.65-.65 0-.18.073-.342.191-.46l2.33-2.33c.118-.118.28-.191.46-.191.359 0 .651.291.651.651 0 .18-.073.342-.191.46l-2.33 2.33c-.115.117-.274.19-.451.19-.003 0-.006 0-.01 0zm-6.76-3.57c-.361 0-.654-.29-.66-.649v-4.631h-2.64v4.63c-.006.36-.299.65-.66.65-.359 0-.65-.291-.65-.65v-5.28-.001c0-.345.269-.627.608-.649h.002 4c.359 0 .65.291.65.65v5.28c0 .359-.291.65-.65.65zm9.74 1.9c-.179-.003-.341-.075-.46-.19l-1.28-1.31c-.117-.118-.189-.281-.189-.46 0-.361.293-.654.654-.654.182 0 .346.074.465.194l1.3 1.3c.116.119.187.281.187.46 0 .36-.288.652-.646.66h-.001zm-11.74 10.43c-.003 0-.006 0-.009 0-.177 0-.336-.073-.451-.19l-5.87-5.87c-.116-.119-.187-.281-.187-.46s.071-.341.187-.46c.117-.12.28-.195.46-.195s.344.075.46.195l5.87 5.87c.118.118.191.28.191.46 0 .359-.291.65-.65.65z"/></svg>