<?xml version="1.0" encoding="UTF-8"?>
<svg width="10px" height="10px" viewBox="0 0 10 10" version="1.1" xmlns="http://www.w3.org/2000/svg" xmlns:xlink="http://www.w3.org/1999/xlink">
    <!-- Generator: Sketch 57.1 (83088) - https://sketch.com -->
    <title>close-xtra-bold</title>
    <desc>Created with Sketch.</desc>
    <g id="Desktop-&amp;-Tablet" stroke="none" stroke-width="1" fill="none" fill-rule="evenodd">
        <g id="close-xtra-bold" fill="#000000" fill-rule="nonzero">
            <path d="M9.54714912,2.05334433 C9.80416667,1.79632679 9.80416667,1.38009872 9.54714912,1.12308118 L8.61688596,0.192818018 C8.35986842,-0.0641995263 7.94364035,-0.0641995263 7.68662281,0.192379421 C7.68662281,0.192379421 7.68662281,0.192379421 7.68618421,0.192818018 L4.94758772,2.93185311 C4.90460526,2.97439696 4.83530702,2.97439696 4.79232456,2.93185311 L2.05372807,0.192818018 C1.79671053,-0.0641995263 1.38048246,-0.0641995263 1.12346491,0.192379421 C1.12346491,0.192379421 1.12346491,0.192379421 1.12302632,0.192818018 L0.192763158,1.12308118 C-0.064254386,1.38009872 -0.064254386,1.79632679 0.192763158,2.05334433 L2.93179825,4.79237942 C2.97434211,4.83536188 2.97434211,4.90466012 2.93179825,4.94764258 L0.192763158,7.68667767 C-0.064254386,7.94369521 -0.064254386,8.35992328 0.192763158,8.61694082 L1.12302632,9.54720398 C1.38004386,9.80422153 1.79627193,9.80422153 2.05328947,9.54764258 C2.05328947,9.54764258 2.05328947,9.54764258 2.05372807,9.54720398 L4.79232456,6.80816889 C4.83530702,6.76562504 4.90460526,6.76562504 4.94758772,6.80816889 L7.68618421,9.54720398 C7.94320175,9.80422153 8.35942982,9.80422153 8.61644737,9.54764258 C8.61644737,9.54764258 8.61644737,9.54764258 8.61688596,9.54720398 L9.54714912,8.61694082 C9.80416667,8.35992328 9.80416667,7.94369521 9.54714912,7.68667767 L6.80811404,4.94764258 C6.76557018,4.90466012 6.76557018,4.83536188 6.80811404,4.79237942 L9.54714912,2.05334433 Z" id="Path"></path>
        </g>
    </g>
</svg>