<svg height="18" viewBox="0 0 18 18" width="18" xmlns="http://www.w3.org/2000/svg"><path d="m283.897052 12.0531217.072618-.0841185c.266266-.2662665.68293-.2904726.976542-.0726181l.084118.0726181 6.96967 6.9699968 6.96967-6.9699968c.266266-.2662665.68293-.2904726.976542-.0726181l.084118.0726181c.266267.2662666.290473.6829303.072618.9765418l-.072618.0841184-6.97033 6.9693366 6.97033 6.9700032c.266267.2662666.290473.6829303.072618.9765418l-.072618.0841184c-.266266.2662666-.68293.2904726-.976542.0726182l-.084118-.0726182-6.96967-6.9696634-6.96967 6.9696634c-.266266.2662666-.68293.2904726-.976542.0726182l-.084118-.0726182c-.266267-.2662665-.290473-.6829302-.072618-.9765417l.072618-.0841185 6.96933-6.9700032-6.96933-6.9693366c-.266267-.2662665-.290473-.6829302-.072618-.9765417l.072618-.0841185z" fill="#212121" transform="translate(-283 -11)"/></svg>