<svg xmlns="http://www.w3.org/2000/svg" version="1.1" xmlns:xlink="http://www.w3.org/1999/xlink" xmlns:svgjs="http://svgjs.com/svgjs" viewBox="0 0 24 24" height="24" width="24"><title>Exported from Streamline App (https://app.streamlineicons.com)</title><g transform="matrix(1,0,0,1,0,0)"><path d="M22.664,5.578c0.586-0.586,0.586-1.535,0-2.121l-2.121-2.121c-0.586-0.586-1.535-0.586-2.121-0.001c0,0,0,0-0.001,0.001 l-6.244,6.245c-0.098,0.097-0.256,0.097-0.354,0L5.579,1.336C4.993,0.75,4.044,0.75,3.458,1.335c0,0,0,0-0.001,0.001L1.336,3.457 c-0.586,0.586-0.586,1.535,0,2.121l6.245,6.245c0.097,0.098,0.097,0.256,0,0.354l-6.245,6.245c-0.586,0.586-0.586,1.535,0,2.121 l2.121,2.121c0.586,0.586,1.535,0.586,2.121,0.001c0,0,0,0,0.001-0.001l6.244-6.245c0.098-0.097,0.256-0.097,0.354,0l6.244,6.245 c0.586,0.586,1.535,0.586,2.121,0.001c0,0,0,0,0.001-0.001l2.121-2.121c0.586-0.586,0.586-1.535,0-2.121l-6.245-6.245 c-0.097-0.098-0.097-0.256,0-0.354L22.664,5.578z" stroke="none" fill="#000000" stroke-width="0" stroke-linecap="round" stroke-linejoin="round"></path></g></svg>