<svg height="32" viewBox="0 0 32 32" width="32" xmlns="http://www.w3.org/2000/svg"><path d="m26 4.505c0-.006 0-.012 0-.019 0-2.347-1.903-4.25-4.25-4.25s-4.25 1.903-4.25 4.25c0 2.249 1.747 4.09 3.958 4.24l.013.001c-.294 4.223-3.189 5.049-6.249 5.915-1.604.343-3.02.973-4.259 1.84l.037-.025v-7.778c2.003-.369 3.5-2.101 3.5-4.183 0-2.347-1.903-4.25-4.25-4.25s-4.25 1.903-4.25 4.25c0 2.082 1.497 3.815 3.474 4.179l.026.004v14.652c-2.003.369-3.5 2.101-3.5 4.183 0 2.347 1.903 4.25 4.25 4.25s4.25-1.903 4.25-4.25c0-2.082-1.497-3.815-3.474-4.179l-.026-.004v-4.157c.389-1.791 2.015-2.351 4.629-3.089 3.179-.899 7.098-2.024 7.347-7.532 1.759-.539 3.017-2.146 3.024-4.047zm-18.5 0c0-1.519 1.231-2.75 2.75-2.75s2.75 1.231 2.75 2.75-1.231 2.75-2.75 2.75c-1.518-.002-2.748-1.232-2.75-2.75zm5.5 23c0 1.519-1.231 2.75-2.75 2.75s-2.75-1.231-2.75-2.75 1.231-2.75 2.75-2.75c1.518.002 2.748 1.232 2.75 2.75zm8.75-20.25c-1.519 0-2.75-1.231-2.75-2.75s1.231-2.75 2.75-2.75 2.75 1.231 2.75 2.75c-.002 1.518-1.232 2.748-2.75 2.75z"/></svg>