<svg height="32" viewBox="0 0 32 32" width="32" xmlns="http://www.w3.org/2000/svg"><path d="m12.118 20.288c.036.085.058.183.058.286v6.522c0 .414-.336.75-.75.75s-.75-.336-.75-.75v-4.711l-9.155 9.154c-.134.125-.313.201-.511.201-.414 0-.75-.336-.75-.75 0-.198.077-.378.202-.512l9.154-9.155h-4.711c-.414 0-.75-.336-.75-.75s.336-.75.75-.75h6.521c.31.001.576.19.69.458l.002.005zm19.403-19.809c-.136-.136-.323-.219-.53-.219s-.394.084-.53.219l-9.155 9.154v-4.711c0-.414-.336-.75-.75-.75s-.75.336-.75.75v6.522c.002.414.336.748.75.75h6.522c.414 0 .75-.336.75-.75s-.336-.75-.75-.75h-4.711l9.154-9.155c.136-.136.219-.323.219-.53s-.084-.394-.219-.53z"/></svg>