<svg height="32" viewBox="0 0 32 32" width="32" xmlns="http://www.w3.org/2000/svg"><path d="m20.565.25c-.002 0-.005 0-.008 0-.417 0-.757.331-.771.744v.001c.005.058.015.111.031.162l-.001-.005v29.848c0 .414.336.75.75.75s.75-.336.75-.75v-9.685h3.163c.414 0 .75-.336.75-.75 0-8.517-1.62-20.315-4.663-20.315zm.75 19.565v-16.821c1.065 2.561 2.334 8.799 2.409 16.821zm-5.217-18.815v6.521c-.006 2.305-1.685 4.216-3.886 4.583l-.027.004v18.891c0 .414-.336.75-.75.75s-.75-.336-.75-.75v-18.891c-2.228-.371-3.907-2.282-3.913-4.587v-6.522c0-.414.336-.75.75-.75s.75.336.75.75v6.521c.004 1.477 1.02 2.715 2.391 3.059l.022.005v-9.585c0-.414.336-.75.75-.75s.75.336.75.75v9.585c1.393-.348 2.409-1.586 2.413-3.063v-6.522c0-.414.336-.75.75-.75s.75.336.75.75z"/></svg>