<svg width="24" height="24" viewBox="0 0 24 24" fill="#000000" xmlns="http://www.w3.org/2000/svg">
    <path d="M11.017 2.19084C11.5809 1.70152 12.419 1.70152 12.9829 2.19084L14.1342 3.18966C14.2502 3.2903 14.406 3.33205 14.5568 3.30289L16.0532 3.01351C16.7863 2.87175 17.512 3.29075 17.7558 3.99651L18.2534 5.43713C18.3035 5.58229 18.4176 5.69636 18.5628 5.74649L20.0034 6.24409C20.7091 6.48787 21.1282 7.2136 20.9864 7.94669L20.697 9.44311C20.6678 9.59389 20.7096 9.74971 20.8102 9.86571L21.8091 11.017C22.2984 11.5809 22.2984 12.419 21.8091 12.9829L20.8102 14.1342C20.7096 14.2502 20.6678 14.406 20.697 14.5568L20.9864 16.0532C21.1281 16.7863 20.7091 17.512 20.0034 17.7558L18.5628 18.2534C18.4176 18.3035 18.3035 18.4176 18.2534 18.5628L17.7558 20.0034C17.512 20.7091 16.7863 21.1282 16.0532 20.9864L14.5568 20.697C14.406 20.6678 14.2502 20.7096 14.1342 20.8102L12.9829 21.8091C12.419 22.2984 11.5809 22.2984 11.017 21.8091L9.86571 20.8102C9.74971 20.7096 9.59389 20.6678 9.44311 20.697L7.9467 20.9864C7.21361 21.1281 6.48787 20.7091 6.24409 20.0034L5.74649 18.5628C5.69636 18.4176 5.58229 18.3035 5.43713 18.2534L3.99651 17.7558C3.29075 17.512 2.87175 16.7863 3.01351 16.0532L3.30289 14.5568C3.33205 14.406 3.2903 14.2502 3.18966 14.1342L2.19084 12.9829C1.70152 12.419 1.70152 11.5809 2.19084 11.017L3.18966 9.86571C3.2903 9.74971 3.33205 9.59389 3.30289 9.44311L3.01351 7.94669C2.87175 7.21361 3.29075 6.48787 3.99651 6.24409L5.43713 5.74649C5.58229 5.69636 5.69636 5.58229 5.74649 5.43713L6.24409 3.99651C6.48787 3.29075 7.2136 2.87175 7.94669 3.01351L9.44311 3.30289C9.59389 3.33205 9.74971 3.2903 9.86571 3.18966L11.017 2.19084ZM12.3276 2.94618C12.1396 2.78308 11.8603 2.78308 11.6723 2.94618L10.521 3.945C10.173 4.24692 9.70559 4.37217 9.25325 4.2847L7.75683 3.99532C7.51247 3.94807 7.27056 4.08774 7.1893 4.32299L6.6917 5.76361C6.54128 6.19909 6.19909 6.54128 5.76361 6.6917L4.32299 7.1893C4.08774 7.27056 3.94807 7.51247 3.99532 7.75683L4.2847 9.25325C4.37217 9.70559 4.24692 10.173 3.945 10.521L2.94618 11.6723C2.78308 11.8603 2.78308 12.1396 2.94618 12.3276L3.945 13.4789C4.24692 13.8269 4.37217 14.2943 4.2847 14.7467L3.99532 16.2431C3.94807 16.4874 4.08774 16.7293 4.32299 16.8106L5.76361 17.3082C6.19909 17.4586 6.54128 17.8008 6.6917 18.2363L7.1893 19.6769C7.27056 19.9122 7.51247 20.0518 7.75683 20.0046L9.25325 19.7152C9.70559 19.6277 10.173 19.753 10.521 20.0549L11.6723 21.0537C11.8603 21.2168 12.1396 21.2168 12.3276 21.0537L13.4789 20.0549C13.8269 19.753 14.2943 19.6277 14.7467 19.7152L16.2431 20.0046C16.4874 20.0518 16.7293 19.9122 16.8106 19.6769L17.3082 18.2363C17.4586 17.8008 17.8008 17.4586 18.2363 17.3082L19.6769 16.8106C19.9122 16.7293 20.0518 16.4874 20.0046 16.2431L19.7152 14.7467C19.6277 14.2943 19.753 13.8269 20.0549 13.4789L21.0537 12.3276C21.2168 12.1396 21.2168 11.8603 21.0537 11.6723L20.0549 10.521C19.753 10.173 19.6277 9.70559 19.7152 9.25325L20.0046 7.75683C20.0518 7.51247 19.9122 7.27056 19.6769 7.1893L18.2363 6.6917C17.8008 6.54128 17.4586 6.19909 17.3082 5.76361L16.8106 4.32299C16.7293 4.08774 16.4874 3.94807 16.2431 3.99532L14.7466 4.2847C14.2943 4.37217 13.8269 4.24692 13.4789 3.945L12.3276 2.94618Z" />
    <path d="M16.3536 7.64645C16.5488 7.84171 16.5488 8.15829 16.3536 8.35355L8.35355 16.3536C8.15829 16.5488 7.84171 16.5488 7.64645 16.3536C7.45118 16.1583 7.45118 15.8417 7.64645 15.6464L15.6464 7.64645C15.8417 7.45118 16.1583 7.45118 16.3536 7.64645Z" />
    <path d="M8.04761 9.16211C8.04761 8.60982 8.49532 8.16211 9.04761 8.16211H9.07577C9.62806 8.16211 10.0758 8.60982 10.0758 9.16211C10.0758 9.71439 9.62806 10.1621 9.07577 10.1621H9.04761C8.49532 10.1621 8.04761 9.71439 8.04761 9.16211Z" />
    <path d="M14.0476 15.1621C14.0476 14.6098 14.4953 14.1621 15.0476 14.1621H15.0758C15.6281 14.1621 16.0758 14.6098 16.0758 15.1621C16.0758 15.7144 15.6281 16.1621 15.0758 16.1621H15.0476C14.4953 16.1621 14.0476 15.7144 14.0476 15.1621Z" />
</svg>
