<svg height="32" viewBox="0 0 30 32" width="30" xmlns="http://www.w3.org/2000/svg"><path d="m29.74 20.58c0 .297-.119.595-.357.833l-5.77 5.77c-.238.238-.476.357-.833.357-.297 0-.595-.119-.773-.357l-.654-.654c-.238-.238-.357-.476-.357-.833 0-.297.119-.595.357-.833l2.617-2.617h-6.305c-.297 0-.535-.119-.773-.357-.178-.238-.297-.476-.297-.833v-1.13c0-.297.119-.595.297-.833s.416-.357.773-.357h6.245l-2.617-2.617c-.238-.238-.357-.476-.357-.773s.119-.595.357-.773l.654-.654c.238-.238.476-.357.773-.357s.595.119.833.357l5.77 5.77c.297.297.416.535.416.892zm-14.87 9.16h-12.61v-18.32h27.48v-4.58c0-.595-.238-1.13-.654-1.606s-1.011-.654-1.606-.654h-2.26v-1.725c0-.773-.297-1.487-.833-2.022-.654-.535-1.308-.833-2.082-.833h-1.13c-.773 0-1.487.297-2.022.833s-.833 1.249-.833 2.022v1.725h-6.9v-1.725c0-.773-.297-1.487-.833-2.022s-1.249-.833-2.022-.833h-1.13c-.773 0-1.487.297-2.022.833-.535.595-.833 1.249-.833 2.022v1.725h-2.32c-.595 0-1.13.238-1.606.654-.416.476-.654 1.011-.654 1.606v22.9c0 .595.238 1.13.654 1.606.476.476 1.011.654 1.606.654h25.16c.595 0 1.13-.238 1.606-.654.476-.476.714-1.011.714-1.606zm5.71-26.885c0-.178.059-.297.178-.416s.238-.178.416-.178h1.13c.178 0 .297.059.416.178s.179.238.179.416v5.115c0 .178-.06.297-.179.416s-.238.178-.416.178h-1.13c-.178 0-.297-.059-.416-.178s-.178-.238-.178-.416zm-13.74 0c0-.178.059-.297.178-.416s.238-.178.416-.178h1.13c.178 0 .297.059.416.178s.178.238.178.416v5.115c0 .178-.059.297-.178.416s-.238.178-.416.178h-1.13c-.178 0-.297-.059-.416-.178s-.178-.238-.178-.416z"/></svg>