<svg height="32" viewBox="0 0 32 32" width="32" xmlns="http://www.w3.org/2000/svg"><path d="m16 .25c-8.698 0-15.75 7.051-15.75 15.75s7.051 15.75 15.75 15.75c8.698 0 15.75-7.052 15.75-15.75-.01-8.694-7.056-15.74-15.749-15.75zm0 30c-7.87 0-14.25-6.38-14.25-14.25s6.38-14.25 14.25-14.25 14.25 6.38 14.25 14.25c-.009 7.866-6.384 14.241-14.249 14.25zm7.541-22.769-11.087 4.565c-.035.014-.057.046-.089.066-.109.058-.195.145-.252.25l-.002.003c-.019.032-.051.054-.066.089l-4.565 11.087c-.036.084-.057.183-.057.286 0 .414.335.749.749.749.103 0 .201-.021.291-.059l-.005.002 11.087-4.565c.035-.015.057-.046.089-.066.109-.058.195-.145.252-.25l.002-.003c.019-.032.051-.054.066-.089l4.566-11.087c.035-.084.056-.182.056-.285 0-.414-.336-.75-.75-.75-.103 0-.2.021-.29.058l.005-.002zm-13.988 14.966 3.452-8.382 4.93 4.93zm9.442-4.512-4.93-4.93 8.382-3.452z"/></svg>