<svg height="32" viewBox="0 0 32 32" width="32" xmlns="http://www.w3.org/2000/svg"><path d="m25.782.25h-19.564c-1.854.002-3.357 1.504-3.359 3.358v24.783c.002 1.854 1.505 3.357 3.359 3.358h19.565c1.854-.002 3.357-1.504 3.359-3.358v-24.783c-.002-1.854-1.505-3.357-3.359-3.358zm-19.564 1.5h19.564c1.026.001 1.858.832 1.859 1.858v1.468h-23.283v-1.468c.002-1.026.833-1.857 1.859-1.858zm19.564 28.5h-19.564c-1.026-.001-1.858-.832-1.859-1.858v-21.816h23.283v21.815c-.002 1.026-.833 1.857-1.859 1.858zm-.956-26.641c0-.36.292-.652.652-.652s.652.292.652.652-.292.652-.652.652c-.36 0-.652-.292-.652-.652zm-2.609 0c0-.36.292-.652.652-.652s.652.292.652.652-.292.652-.652.652c-.36 0-.652-.292-.652-.652zm-2.608 0c0-.36.292-.652.652-.652s.652.292.652.652-.292.652-.652.652c-.36 0-.652-.292-.652-.652zm5.641 5.391c0 .414-.336.75-.75.75h-17c-.414 0-.75-.336-.75-.75s.336-.75.75-.75h17c.414 0 .75.336.75.75zm-9.896 4.619c-.356.607-3.488 5.98-3.488 7.996 0 2.284 1.851 4.135 4.135 4.135s4.135-1.851 4.135-4.135c0-2.016-3.132-7.39-3.488-7.996-.142-.208-.379-.343-.647-.343s-.504.135-.645.34zm.646 10.631c-1.455-.001-2.633-1.18-2.635-2.635 0-1.02 1.427-3.924 2.635-6.102 1.208 2.179 2.635 5.082 2.635 6.102-.001 1.455-1.18 2.633-2.635 2.635z"/></svg>