<svg height="32" viewBox="0 0 32 32" width="32" xmlns="http://www.w3.org/2000/svg"><path d="m21.869 15.902h-3.163v-3.163c0-.414-.336-.75-.75-.75h-3.913c-.414 0-.75.336-.75.75v3.163h-3.163c-.414 0-.75.336-.75.75v3.913c0 .414.336.75.75.75h3.163v3.163c0 .414.336.75.75.75h3.913c.414 0 .75-.336.75-.75v-3.163h3.163c.414 0 .75-.336.75-.75v-3.913c0-.414-.336-.75-.75-.75zm-.75 3.913h-3.163c-.414 0-.75.336-.75.75v3.163h-2.413v-3.163c0-.414-.336-.75-.75-.75h-3.163v-2.413h3.163c.414 0 .75-.336.75-.75v-3.163h2.413v3.163c0 .414.336.75.75.75h3.163zm7.273-13.043h-7.076v-1.207c-.002-1.494-1.213-2.704-2.707-2.706h-5.217c-1.494.002-2.705 1.212-2.707 2.706v1.207h-7.076c-1.854.002-3.357 1.504-3.359 3.358v15.653c.002 1.854 1.505 3.356 3.359 3.358h24.783c1.854-.002 3.356-1.505 3.358-3.358v-15.653c-.002-1.854-1.505-3.356-3.358-3.358zm-16.207-1.207c.001-.666.541-1.205 1.206-1.206h5.217c.666 0 1.206.54 1.207 1.206v1.207h-7.631zm18.065 20.218c-.001 1.026-.833 1.857-1.858 1.858h-24.783c-1.026-.001-1.857-.832-1.859-1.858v-15.652c.001-1.026.833-1.857 1.859-1.858h24.783c1.026.001 1.857.833 1.858 1.858z"/></svg>