<svg width="24" height="24" viewBox="0 0 24 24" fill="none" xmlns="http://www.w3.org/2000/svg">
<path fill-rule="evenodd" clip-rule="evenodd" d="M18.6202 11.9304C18.5113 11.3367 18.1534 9.52013 17.7676 8.83167C17.5101 8.37435 16.8496 8.02376 15.8049 7.79263C14.9562 7.6039 13.871 7.5 12.75 7.5C11.6282 7.5 10.543 7.6032 9.69434 7.79263C8.64959 8.02447 7.98914 8.37435 7.73165 8.83167C7.3458 9.51871 6.98873 11.336 6.87905 11.9304C6.28939 12.2895 6 12.809 6 13.4996V15.3748C6 15.864 6.3524 16.281 6.84326 16.4351V17.25C6.84326 17.6635 7.22211 18 7.68731 18H8.53057C8.99576 18 9.37461 17.6635 9.37461 17.25V16.5001H16.1246V17.2493C16.1246 17.6635 16.5035 18 16.9687 18H17.8119C18.2771 18 18.656 17.6635 18.656 17.25V16.4358C18.9005 16.3607 19.1132 16.2182 19.2645 16.0282C19.4157 15.8382 19.4981 15.61 19.5 15.3755V13.4996C19.5 12.809 19.2091 12.2895 18.6202 11.9304ZM12.7531 8.08879C15.279 8.08879 16.9165 8.59276 17.1764 9.06775C17.4276 9.5272 17.7069 10.7429 17.8796 11.6124C17.7922 11.5887 17.704 11.5675 17.6151 11.5487C17.381 11.4986 16.7788 11.4427 16.5097 11.4095L14.2848 9.86718C14.0896 9.73854 13.8601 9.78378 13.7193 9.96331C13.5777 10.1421 13.6143 10.2842 13.8103 10.4136L15.1818 11.3105C14.4373 11.2879 13.6213 11.2879 12.7523 11.2879C12.6496 11.2879 12.2895 11.2978 12.1876 11.2978L9.87948 9.86718C9.67722 9.7449 9.4843 9.77883 9.3505 9.96331C9.21669 10.1471 9.2447 10.2991 9.44618 10.4213L10.8853 11.2978C9.71067 11.3169 8.69004 11.3756 7.89112 11.5487C7.8001 11.5685 7.7122 11.5904 7.62585 11.6124C7.79933 10.7429 8.07704 9.5272 8.32987 9.06775C8.58969 8.59347 10.228 8.08879 12.7531 8.08879ZM8.71805 17.4706H7.50294V16.5001H8.71805V17.4706ZM16.7874 17.4706V16.5001H18.0025V17.4706H16.7874ZM18.8427 15.5084C18.8427 15.7332 18.6482 15.9163 18.4078 15.9163H7.09687C6.97987 15.9142 6.86854 15.8702 6.78719 15.7937C6.70585 15.7173 6.66112 15.6147 6.66279 15.5084V13.4685C6.66279 12.7143 7.0852 12.3121 8.12216 12.0803C9.21436 11.8364 10.8542 11.8364 12.7531 11.8364C14.6512 11.8364 16.2903 11.8364 17.3833 12.0803C18.4202 12.3121 18.8427 12.7143 18.8427 13.4685V15.5084ZM8.95298 14.7613C9.50297 14.7613 9.95027 14.3633 9.95027 13.8749C9.95027 13.3865 9.50297 12.9886 8.95298 12.9886C8.40299 12.9886 7.95569 13.3865 7.95569 13.8749C7.95569 14.3633 8.40299 14.7613 8.95298 14.7613ZM8.95298 13.5795C9.13657 13.5795 9.28515 13.7116 9.28515 13.8749C9.28515 14.0375 9.13657 14.1704 8.95298 14.1704C8.86584 14.1711 8.78193 14.1405 8.71966 14.0851C8.65738 14.0297 8.62183 13.9541 8.62081 13.8749C8.62081 13.7124 8.76861 13.5795 8.95298 13.5795ZM16.5462 14.7613C17.0962 14.7613 17.5435 14.3633 17.5435 13.8749C17.5435 13.3865 17.0962 12.9886 16.5462 12.9886C15.997 12.9886 15.5497 13.3865 15.5497 13.8749C15.5497 14.3633 15.997 14.7613 16.5462 14.7613ZM16.5462 13.5795C16.7298 13.5795 16.8792 13.7116 16.8792 13.8749C16.8792 14.0375 16.7298 14.1704 16.5462 14.1704C16.4591 14.1711 16.3752 14.1405 16.3129 14.0851C16.2506 14.0297 16.2151 13.9541 16.2141 13.8749C16.2141 13.7124 16.3627 13.5795 16.5462 13.5795Z" fill="#141414"/>
<path fill-rule="evenodd" clip-rule="evenodd" d="M1.5 12.6091C1.5 18.6287 6.42982 23.4995 12.5 23.4995C18.5702 23.4995 23.5 18.6287 23.5 12.6091C23.5 8.68345 21.4015 5.24493 18.2608 3.32964C18.0251 3.18587 17.7174 3.26044 17.5736 3.4962C17.4298 3.73196 17.5044 4.03963 17.7402 4.18341C20.5985 5.92652 22.5 9.04978 22.5 12.6091C22.5 18.0665 18.0278 22.4995 12.5 22.4995C6.97218 22.4995 2.5 18.0665 2.5 12.6091C2.5 8.47114 4.56625 5.44061 8.1889 3.96246C8.44457 3.85813 8.56727 3.56629 8.46294 3.31062C8.35862 3.05494 8.06678 2.93224 7.8111 3.03657C3.80405 4.67157 1.5 8.07362 1.5 12.6091Z" fill="#75CA2B"/>
<path fill-rule="evenodd" clip-rule="evenodd" d="M8.31461 1.08237C8.05003 1.4433 8 1.90648 8 2.354L8 3.64606C8 4.09357 8.05003 4.55676 8.31461 4.91768C8.79198 5.56888 9.61667 6 10.552 6L12.839 6C13.1162 6 13.3404 5.80005 13.3404 5.55289L13.3404 4.78534L15.4986 4.78534C15.7758 4.78534 16 4.58538 16 4.33822C16 4.09112 15.7758 3.89119 15.4986 3.89119L13.3404 3.89119L13.3404 2.10888L15.4986 2.10888C15.7758 2.10888 16 1.90892 16 1.66176C16 1.41466 15.7758 1.21464 15.4986 1.21464L13.3404 1.21464L13.3404 0.447105C13.3404 0.200009 13.1162 2.52111e-07 12.839 2.76341e-07L10.552 4.76278e-07C9.61667 5.58048e-07 8.79198 0.43116 8.31461 1.08237ZM12.3377 0.894228L10.552 0.894229C9.63202 0.894229 8.88338 1.56182 8.88338 2.38266L8.88338 3.6174C8.88338 4.43823 9.63202 5.10583 10.552 5.10582L12.3377 5.10582L12.3377 0.894228Z" fill="#75CA2B"/>
</svg>
