<svg height="32" viewBox="0 0 32 32" width="32" xmlns="http://www.w3.org/2000/svg"><path d="m8.583 22.632v6.035c0 .414.336.75.75.75h4c.414 0 .75-.336.75-.75v-6.035c.708-.249 1.331-.946 1.334-2.632v-3.333c0-.414-.336-.75-.75-.75h-2.427c1.082-.386 1.843-1.402 1.843-2.596 0-1.519-1.231-2.75-2.75-2.75s-2.75 1.231-2.75 2.75c0 1.194.761 2.21 1.823 2.59l.019.006h-2.425c-.414 0-.75.336-.75.75v3.333c0 1.686.623 2.384 1.333 2.632zm2.75-10.549c.69 0 1.25.56 1.25 1.25s-.56 1.25-1.25 1.25-1.25-.56-1.25-1.25c.001-.69.56-1.249 1.25-1.25zm-2.583 5.334h5.167v2.582c-.002 1.251-.312 1.251-.584 1.251-.414 0-.75.336-.75.75v5.917h-2.5v-5.917c0-.414-.336-.75-.75-.75-.273 0-.583 0-.583-1.25zm9.167 5.215v6.035c0 .414.336.75.75.75h4c.414 0 .75-.336.75-.75v-6.035c.709-.248 1.331-.946 1.333-2.632v-3.333c0-.414-.336-.75-.75-.75h-2.426c1.082-.386 1.843-1.402 1.843-2.596 0-1.519-1.231-2.75-2.75-2.75s-2.75 1.231-2.75 2.75c0 1.194.761 2.21 1.823 2.59l.019.006h-2.427c-.414 0-.75.336-.75.75v3.333c0 1.686.624 2.384 1.334 2.632zm2.75-10.549c.69 0 1.25.56 1.25 1.25s-.56 1.25-1.25 1.25-1.25-.56-1.25-1.25c.001-.69.56-1.249 1.25-1.25zm-2.584 5.334h5.167v2.582c-.001 1.251-.311 1.251-.583 1.251-.414 0-.75.336-.75.75v5.917h-2.5v-5.917c0-.414-.336-.75-.75-.75-.273 0-.584 0-.584-1.25zm9.917-9.5h-24c-.414 0-.75.336-.75.75v22.666c0 .414.336.75.75.75h24c.414 0 .75-.336.75-.75v-22.666c0-.414-.336-.75-.75-.75zm-.75 22.666h-22.5v-21.166h22.5zm-21.113-26.72c-.136-.136-.22-.323-.22-.53s.084-.395.22-.53l2.666-2.666c.136-.135.323-.218.53-.218s.394.083.53.219l2.667 2.666c.142.137.23.328.23.541 0 .414-.336.75-.75.75-.212 0-.404-.088-.54-.23l-1.387-1.386v3.523c0 .414-.336.75-.75.75s-.75-.336-.75-.75v-3.522l-1.386 1.386c-.136.136-.323.22-.53.22s-.395-.084-.53-.22zm13.333 0c-.13-.135-.209-.318-.209-.52 0-.414.336-.75.75-.75.202 0 .385.08.52.209l1.387 1.387v-3.523c0-.414.336-.75.75-.75s.75.336.75.75v3.522l1.386-1.386c.135-.132.32-.214.525-.214.414 0 .75.336.75.75 0 .204-.082.39-.214.525l-2.666 2.667c-.136.135-.323.219-.53.219s-.394-.084-.53-.219z"/></svg>