<svg height="32" viewBox="0 0 25 32" width="25" xmlns="http://www.w3.org/2000/svg"><path d="m3.781 12.989c-1.663 0-3.011 1.348-3.011 3.011s1.348 3.011 3.011 3.011 3.011-1.348 3.011-3.011c-.002-1.662-1.349-3.009-3.011-3.011zm0 4.896c-1.041 0-1.885-.844-1.885-1.885s.844-1.885 1.885-1.885 1.885.844 1.885 1.885c-.001 1.041-.844 1.884-1.885 1.886zm8.813-4.896c-1.663 0-3.011 1.348-3.011 3.011s1.348 3.011 3.011 3.011 3.011-1.348 3.011-3.011c-.002-1.662-1.349-3.009-3.011-3.011zm0 4.896c-1.041 0-1.885-.844-1.885-1.885s.844-1.885 1.885-1.885 1.885.844 1.885 1.885c-.001 1.041-.844 1.884-1.885 1.886zm8.813-4.896c-1.663 0-3.011 1.348-3.011 3.011s1.348 3.011 3.011 3.011 3.011-1.348 3.011-3.011c-.002-1.662-1.349-3.009-3.011-3.011zm0 4.896c-1.041 0-1.885-.844-1.885-1.885s.844-1.885 1.885-1.885 1.885.844 1.885 1.885c-.001 1.041-.844 1.884-1.885 1.886z"/></svg>