<svg height="32" viewBox="0 0 32 32" width="32" xmlns="http://www.w3.org/2000/svg"><path d="m29.044 26.532h-26.088c-1.494-.002-2.704-1.212-2.706-2.706v-15.652c.002-1.494 1.212-2.704 2.706-2.706h26.088c1.494.002 2.704 1.212 2.706 2.706v15.652c-.002 1.494-1.212 2.704-2.706 2.706zm-12.637-7.294 11.087-7.174c.208-.136.343-.367.343-.63 0-.414-.336-.75-.75-.75-.151 0-.292.045-.41.122l.003-.002-10.68 6.91-10.68-6.91c-.115-.075-.256-.12-.407-.12-.414 0-.75.336-.75.75 0 .263.135.494.34.628l.003.002 11.087 7.174c.115.075.256.12.407.12s.292-.045.41-.122zm-11.122 2.631 4.565-2.609c.227-.132.378-.374.378-.651 0-.414-.336-.75-.75-.75-.137 0-.265.037-.376.101l.004-.002-4.565 2.609c-.228.132-.378.374-.378.651 0 .414.336.75.75.75.137 0 .265-.037.376-.101zm22.453-.279c.062-.107.098-.235.098-.372 0-.277-.15-.52-.374-.65l-.004-.002-4.565-2.609c-.106-.061-.234-.098-.37-.098-.414 0-.75.336-.75.75 0 .277.15.518.372.648l.004.002 4.565 2.609c.107.062.235.099.372.099.277 0 .52-.151.65-.374l.002-.004z"/></svg>