<svg height="32" viewBox="0 0 32 32" width="32" xmlns="http://www.w3.org/2000/svg"><path d="m10.13 18.236c.062.107.098.235.098.372 0 .277-.15.52-.374.65l-.004.002-4.565 2.609c-.107.062-.235.099-.372.099-.414 0-.75-.336-.75-.75 0-.277.151-.52.374-.649l.004-.002 4.565-2.609c.107-.062.235-.098.372-.098.277 0 .52.15.65.374l.002.004zm17.587-7.209c-.136-.207-.367-.342-.63-.342-.151 0-.292.045-.41.121l.003-.002-10.68 6.91-10.68-6.91c-.115-.075-.256-.12-.407-.12-.414 0-.75.336-.75.75 0 .263.135.494.34.628l.003.002 11.087 7.174c.115.075.256.12.407.12s.292-.045.41-.122l-.003.002 11.087-7.174c.207-.136.343-.367.343-.63 0-.151-.045-.292-.122-.41zm-.258 9.539-4.565-2.609c-.106-.061-.234-.098-.37-.098-.414 0-.75.336-.75.75 0 .277.15.518.372.648l.004.002 4.565 2.609c.107.062.235.099.372.099.414 0 .75-.336.75-.75 0-.277-.151-.52-.374-.649zm4.291-12.392v15.652c-.002 1.494-1.212 2.704-2.706 2.706h-26.088c-1.494-.002-2.704-1.212-2.706-2.706v-15.652c.002-1.494 1.212-2.704 2.706-2.706h26.088c1.494.002 2.704 1.212 2.706 2.706zm-1.5 0c-.001-.666-.54-1.205-1.206-1.206h-26.088c-.666.001-1.205.54-1.206 1.206v15.652c.001.666.54 1.205 1.206 1.206h26.088c.666-.001 1.205-.54 1.206-1.206z"/></svg>