<svg height="32" viewBox="0 0 32 32" width="32" xmlns="http://www.w3.org/2000/svg"><path d="m18.814 19.807c0 .395-.22.615-.66.615h-6.996v3.565c0 3.916 2.596 5.94 6.116 5.94s6.117-2.068 6.117-5.853v-.044c-.002-.018-.003-.038-.003-.059 0-.358.29-.647.647-.647.021 0 .042.001.062.003h-.003.704c.018-.002.038-.003.059-.003.358 0 .647.29.647.647 0 .021-.001.042-.003.062v-.003c0 4.884-3.389 7.877-8.229 7.877s-8.229-2.993-8.229-7.966v-3.521h-1.893c-.44 0-.66-.22-.66-.615v-.66c-.002-.018-.003-.04-.003-.062 0-.332.269-.602.602-.602.022 0 .043.001.064.003h-.003 1.893v-5.017h-1.893c-.018.002-.04.003-.061.003-.333 0-.602-.27-.602-.602 0-.022.001-.043.003-.064v.003-.66c0-.396.22-.616.66-.616h1.893v-3.521c0-4.929 3.388-7.921 8.229-7.921s8.23 2.992 8.23 7.833c.004.027.006.057.006.089 0 .365-.296.661-.661.661-.017 0-.034-.001-.051-.002h.002-.704c-.018.002-.038.003-.059.003-.358 0-.648-.29-.648-.648 0-.021.001-.041.003-.061v.003-.044c0-3.785-2.597-5.854-6.117-5.854s-6.116 2.024-6.116 5.941v3.521h6.996c.44 0 .66.22.66.616v.66c.002.018.003.04.003.061 0 .333-.27.602-.602.602-.022 0-.043-.001-.064-.003h.003-6.996v5.017h6.996c.018-.002.04-.003.062-.003.332 0 .602.269.602.602 0 .022-.001.043-.003.064v-.003z"/></svg>