<svg height="32" viewBox="0 0 32 32" width="32" xmlns="http://www.w3.org/2000/svg"><path d="m.25 5.565c0-.414.336-.75.75-.75h22.32l-2.633-2.633c-.127-.134-.205-.316-.205-.515 0-.414.336-.75.75-.75.2 0 .381.078.516.206l3.913 3.913c.135.136.219.323.219.53s-.083.394-.219.53l-3.913 3.913c-.135.131-.319.212-.523.212-.414 0-.75-.336-.75-.75 0-.203.081-.388.212-.523l2.633-2.633h-22.32c-.414 0-.75-.336-.75-.75zm25.573 20.583c-.04-.095-.094-.176-.162-.244l-3.913-3.913c-.135-.131-.319-.212-.523-.212-.414 0-.75.336-.75.75 0 .203.081.388.212.523l2.633 2.633h-22.32c-.414 0-.75.336-.75.75s.336.75.75.75h22.32l-2.633 2.633c-.141.137-.229.328-.229.539 0 .414.336.75.75.75.212 0 .403-.088.539-.229l3.913-3.913c.135-.136.219-.323.219-.53 0-.103-.021-.202-.059-.292l.002.005zm5.177-10.898h-22.32l2.633-2.633c.144-.137.234-.33.234-.544 0-.414-.336-.75-.75-.75-.214 0-.407.09-.544.233l-3.914 3.914c-.135.136-.218.323-.218.53s.083.394.219.53l3.913 3.913c.137.144.33.233.544.233.414 0 .75-.336.75-.75 0-.214-.09-.407-.233-.544l-2.632-2.633h22.32c.414 0 .75-.336.75-.75s-.336-.75-.75-.75z"/></svg>