<svg height="62" viewBox="0 0 60 62" width="60" xmlns="http://www.w3.org/2000/svg"><path d="m29.5 0c.5128358 0 .9355072.38604019.9932723.88337888l.0067277.11662112-.0005733 3h21.3505733c.2212333 0 .4349003.07330953.6085304.20646446l.0991139.08696669 6.569069 6.57906885c.5633312.5627048.87986 1.3262723.87986 2.1225s-.3165288 1.5597952-.8783927 2.1210313l-6.57 6.59c-.187623.1881942-.4424374.2939687-.7081806.2939687h-21.3505733v6h21.5005733c.5128358 0 .9355072.3860402.9932723.8833789l.0067277.1166211v16c0 .5522847-.4477153 1-1 1h-21.5005733l.0005733 15c0 .5522847-.4477153 1-1 1-.5128358 0-.9355072-.3860402-.9932723-.8833789l-.0067277-.1166211-.0005733-15h-20.3494267c-.22145263 0-.43531588-.0734545-.60903028-.206848l-.09915031-.0871207-6.56853275-6.5885313c-.56333113-.5627048-.87985997-1.3262723-.87985997-2.1225s.31652884-1.5597952.87892901-2.1215689l6.57-6.58c.18757991-.1878654.44216429-.2934311.7076443-.2934311h20.3494267v-6h-20.4994267c-.51283584 0-.93550716-.3860402-.99327227-.8833789l-.00672773-.1166211v-16c0-.55228475.44771525-1 1-1h20.4994267l.0005733-3c0-.55228475.4477153-1 1-1zm21.5 30h-42.437l-6.27628666 6.2875c-.15648087.1563069-.25583158.3591098-.28460179.5759622l-.00868486.1315378c0 .2654092.10550961.5199317.2947539.7089687l6.27781941 6.2960313h42.434zm.436-24h-42.436v14h42.433l6.2802867-6.2975c.1564808-.1563069.2558315-.3591098.2846017-.5759622l.0086849-.1315378c0-.2654092-.1055096-.5199317-.2942176-.7084311z" fill="#212121"/></svg>