<svg height="32" viewBox="0 0 32 32" width="32" xmlns="http://www.w3.org/2000/svg"><path d="m11.965 20.035c.136.136.22.323.22.53s-.084.395-.22.53l-9.154 9.154h4.711c.414 0 .75.336.75.75s-.336.75-.75.75h-6.521c-.414-.002-.748-.336-.75-.75v-6.522c0-.414.336-.75.75-.75s.75.336.75.75v4.712l9.154-9.154c.136-.136.323-.22.53-.22s.394.084.53.219zm19.727-19.322c-.116-.274-.382-.462-.692-.463h-6.522c-.414 0-.75.336-.75.75s.336.75.75.75h4.712l-9.154 9.154c-.141.137-.229.328-.229.539 0 .414.336.75.75.75.212 0 .403-.088.539-.229l9.154-9.154v4.711c0 .414.336.75.75.75s.75-.336.75-.75v-6.521c0-.104-.022-.202-.06-.291l.002.005z"/></svg>