<svg width="24" height="24" viewBox="0 0 24 24" fill="#000000" xmlns="http://www.w3.org/2000/svg">
    <path fill-rule="evenodd" clip-rule="evenodd" d="M14.5 3C14.5 2.72386 14.7239 2.5 15 2.5H21C21.2761 2.5 21.5 2.72386 21.5 3V9C21.5 9.27614 21.2761 9.5 21 9.5C20.7239 9.5 20.5 9.27614 20.5 9V4.20711L13.3536 11.3536C13.1583 11.5488 12.8417 11.5488 12.6464 11.3536C12.4512 11.1583 12.4512 10.8417 12.6464 10.6464L19.7929 3.5H15C14.7239 3.5 14.5 3.27614 14.5 3ZM5 5.5C4.17157 5.5 3.5 6.17157 3.5 7V19C3.5 19.8284 4.17157 20.5 5 20.5H17C17.8284 20.5 18.5 19.8284 18.5 19V13C18.5 12.7239 18.7239 12.5 19 12.5C19.2761 12.5 19.5 12.7239 19.5 13V19C19.5 20.3807 18.3807 21.5 17 21.5H5C3.61929 21.5 2.5 20.3807 2.5 19V7C2.5 5.61929 3.61929 4.5 5 4.5H11C11.2761 4.5 11.5 4.72386 11.5 5C11.5 5.27614 11.2761 5.5 11 5.5H5Z"/>
</svg>