<svg height="32" viewBox="0 0 32 32" width="32" xmlns="http://www.w3.org/2000/svg"><path d="m31.588 15.36c-.283-.357-7.038-8.763-15.588-8.763s-15.305 8.405-15.588 8.763c-.101.127-.162.289-.162.466v.348c0 .177.061.339.163.467l-.001-.002c.283.357 7.039 8.763 15.588 8.763s15.305-8.405 15.588-8.763c.101-.126.162-.289.162-.465 0 0 0 0 0-.001v-.348s0 0 0-.001c0-.176-.061-.339-.163-.467l.001.002zm-15.588 8.542c-6.966 0-12.909-6.441-14.167-7.902 1.256-1.462 7.19-7.902 14.167-7.902 6.966 0 12.908 6.44 14.167 7.902-1.259 1.462-7.201 7.902-14.167 7.902zm0-14.044c-3.296 0-5.968 2.672-5.968 5.968s2.672 5.968 5.968 5.968 5.968-2.672 5.968-5.968c-.004-3.294-2.673-5.964-5.967-5.968zm0 10.436c-2.467 0-4.468-2-4.468-4.468s2-4.468 4.468-4.468 4.468 2 4.468 4.468c-.003 2.466-2.001 4.465-4.468 4.468zm3.358-4.468c-.003 1.852-1.506 3.353-3.359 3.353s-3.355-1.5-3.359-3.353c0-.414.336-.75.75-.75s.75.336.75.75c0 1.027.832 1.859 1.859 1.859s1.859-.832 1.859-1.859c0-1.026-.832-1.858-1.858-1.859-.414 0-.75-.336-.75-.75s.336-.75.75-.75c1.854.002 3.356 1.505 3.358 3.358z"/></svg>