<svg height="32" viewBox="0 0 32 32" width="32" xmlns="http://www.w3.org/2000/svg"><path d="m17.325 7.776c-1.472 0-2.666 1.194-2.666 2.666s1.194 2.666 2.666 2.666 2.666-1.194 2.666-2.666c0 0 0 0 0-.001-.002-1.472-1.195-2.664-2.666-2.666zm0 4.042c-.76 0-1.376-.616-1.376-1.376s.616-1.376 1.376-1.376 1.376.616 1.376 1.376c-.001.76-.616 1.376-1.377 1.377zm0-6.568c-2.587.003-4.684 2.1-4.687 4.687v6.063c0 .356.289.645.645.645h.815c-.605 1.585-.955 3.418-.955 5.333v.09-.005c0 .356.289.645.645.645h1.881v3.397c0 .356.289.645.645.645h2.021c.356 0 .645-.289.645-.645v-3.397h1.881c.356 0 .645-.289.645-.645 0-.025 0-.055 0-.085 0-1.915-.35-3.748-.99-5.439l.035.106h.815c.356 0 .645-.289.645-.645v-6.063c-.003-2.587-2.1-4.684-4.687-4.687zm1.011 16.168c-.356 0-.645.289-.645.645v3.397h-.731v-3.397c0-.356-.289-.645-.645-.645h-1.868c.156-3.731 1.639-6.64 2.878-6.64s2.722 2.909 2.878 6.64zm2.387-6.063h-.796c-.473-1.023-1.441-1.747-2.588-1.866l-.014-.001c-1.161.12-2.129.843-2.593 1.847l-.008.02h-.796v-5.418c0-.002 0-.003 0-.005 0-1.876 1.521-3.397 3.397-3.397s3.397 1.521 3.397 3.397v.006zm-14.301-2.247c1.472 0 2.666-1.194 2.666-2.666s-1.194-2.666-2.666-2.666-2.666 1.193-2.666 2.666c.002 1.472 1.194 2.664 2.665 2.667zm0-4.042c.76 0 1.376.616 1.376 1.376s-.616 1.376-1.376 1.376-1.376-.616-1.376-1.376c0 0 0 0 0-.001.001-.759.616-1.375 1.375-1.376zm3.537 4.268h-7.074c-.356 0-.645.289-.645.645 0 .034-.001.074-.001.115 0 2.054.443 4.004 1.238 5.761l-.036-.088c.131.262.239.567.309.886l.005.027v5.425c0 .356.289.645.645.645h4.042c.356 0 .645-.289.645-.645v-5.425c.075-.346.183-.651.325-.936l-.011.024c.76-1.669 1.202-3.619 1.202-5.673 0-.04 0-.08-.001-.121v.006c0-.356-.289-.645-.645-.645zm-1.748 5.94c-.214.408-.36.885-.411 1.39l-.001.016v4.78h-2.752v-4.78c-.052-.521-.199-.998-.423-1.428l.01.022c-.626-1.364-1.021-2.952-1.089-4.625l-.001-.025h2.233v2.892c0 .356.289.645.645.645s.645-.289.645-.645v-2.892h2.234c-.069 1.697-.464 3.286-1.122 4.728l.032-.079zm19.719.987c.541-.426.885-1.081.885-1.817 0-1.274-1.033-2.307-2.307-2.307s-2.307 1.033-2.307 2.307c0 .736.344 1.391.88 1.813l.005.004c-1.196 1.014-1.83 3.277-1.83 5.442.001.578.469 1.047 1.047 1.047h4.409c.578-.001 1.047-.469 1.047-1.047 0-2.164-.634-4.427-1.83-5.442zm-1.422-2.82c.562 0 1.017.455 1.017 1.017s-.455 1.017-1.017 1.017-1.017-.455-1.017-1.017c.001-.561.456-1.017 1.017-1.017zm-1.958 8.019c.059-2.363.966-4.458 1.959-4.458s1.9 2.096 1.959 4.458z"/></svg>