<svg enable-background="new 0 0 32 32" viewBox="0 0 32 32" xmlns="http://www.w3.org/2000/svg"><path d="m12.9 24.2c-1.5-.2-2.9-.7-4.1-1.4-.2-.1-.5-.1-.7 0l-5.3 2.2 2.4-4.6c.1-.3.1-.6-.1-.8-.4-.6-.8-1.2-1-1.9-.9-2.4-.8-5 .2-7.3 1.3-2.6 3.7-4.6 6.5-5.5 5.8-1.9 12.1.8 14.2 6 .2.4.6.6 1.1.5.4-.2.6-.6.5-1.1-2.4-6-9.6-9.2-16.2-7-3.4 1.1-6.1 3.4-7.5 6.4-1.3 2.7-1.4 5.8-.3 8.6.2.6.6 1.2.9 1.8l-3.3 6.3c-.2.3-.1.7.1.9s.4.3.6.3c.1 0 .2 0 .3-.1l6.9-3c1.3.7 2.8 1.2 4.3 1.4.4.1.9-.2.9-.7.3-.5 0-.9-.4-1zm.5-12.1c-.5 0-.8.4-.8.8s.4.8.8.8c1.8 0 3.2-1.3 3.2-3 0-1.6-1.4-3-3.2-3s-3.2 1.3-3.2 3c0 .5.4.8.8.8.5 0 .8-.4.8-.8 0-.7.7-1.3 1.6-1.3s1.6.6 1.6 1.3c-.1.9-.8 1.4-1.6 1.4zm.2 3.1c-.7 0-1.4.6-1.4 1.4 0 .7.6 1.4 1.4 1.4s1.4-.6 1.4-1.4-.6-1.4-1.4-1.4zm0 1.6c-.2 0-.3-.1-.3-.3s.1-.3.3-.3.3.1.3.3-.1.3-.3.3zm10 6c-.7 0-1.4.6-1.4 1.4 0 .7.6 1.4 1.4 1.4s1.4-.6 1.4-1.4-.7-1.4-1.4-1.4zm0 1.6c-.2 0-.3-.1-.3-.3s.1-.3.3-.3.3.1.3.3-.1.3-.3.3zm6.4 1.3c1.2-1.3 1.8-2.9 1.8-4.5 0-4-3.7-7.2-8.1-7.2-.6 0-1.2.1-1.8.2-2.3.5-4.2 1.8-5.4 3.6-1 1.6-1.3 3.4-.8 5.1 1 3.8 5.2 6.2 9.5 5.4l4.5 2.4c.1.1.3.1.4.1.2 0 .3-.1.5-.2.3-.2.4-.5.3-.8zm-1.1 2.8-3.3-1.7c-.1-.1-.3-.1-.4-.1s-.1 0-.2 0c-3.5.7-7.1-1.2-7.9-4.2-.3-1.3-.1-2.7.6-3.8.9-1.4 2.4-2.4 4.3-2.8.5-.1 1-.1 1.5-.1 3.6 0 6.5 2.5 6.5 5.5 0 1.3-.6 2.6-1.6 3.7-.2.2-.3.5-.2.7zm-5.3-6.5c.5 0 .8-.4.8-.8v-3c0-.5-.4-.8-.8-.8s-.8.4-.8.8v3c0 .4.3.8.8.8z"/></svg>