<svg height="32" viewBox="0 0 32 32" width="32" xmlns="http://www.w3.org/2000/svg"><path d="m28.667 7.917h-13.917v-.584c-.002-1.886-1.531-3.414-3.416-3.416h-3.25v-3.25c0-.414-.336-.75-.75-.75s-.75.336-.75.75v3.339c-1.536.355-2.663 1.709-2.667 3.327v.584h-.583c-1.15.001-2.082.933-2.083 2.083v17.333c.001 1.15.933 2.083 2.083 2.084h.672c.355 1.535 1.71 2.663 3.328 2.666h4c1.618-.003 2.972-1.131 3.323-2.643l.005-.023h14.006c1.15-.002 2.082-.934 2.083-2.084v-17.333c-.001-1.15-.933-2.082-2.083-2.083zm-25.917 19.416v-17.333c.001-.322.262-.583.583-.583h.583v18.5h-.583c-.322 0-.583-.262-.583-.584zm8.584 3.25h-4c-1.058-.001-1.916-.858-1.917-1.916v-21.334c.001-1.058.859-1.915 1.917-1.916h4c1.058.001 1.915.858 1.916 1.916v21.334c-.001 1.058-.859 1.915-1.916 1.916zm17.916-3.25c-.004.321-.263.579-.583.584h-13.917v-18.5h13.917c.32.004.579.263.583.583zm-3.25-16.75h-8c-.414 0-.75.336-.75.75v2.667c0 .414.336.75.75.75h8c.414 0 .75-.336.75-.75v-2.667c0-.414-.336-.75-.75-.75zm-.75 2.667h-6.5v-1.167h6.5zm-7.917 4.083h1.333v1.333h-1.333zm4 0h1.333v1.333h-1.333zm4 0h1.333v1.333h-1.333zm-8 2.667h1.333v1.333h-1.333zm4 0h1.333v1.333h-1.333zm4 0h1.333v1.333h-1.333zm-8 2.667h1.333v1.333h-1.333zm4 0h1.333v1.333h-1.333zm4 0h1.333v1.333h-1.333z"/></svg>