<svg height="32" viewBox="0 0 32 32" width="32" xmlns="http://www.w3.org/2000/svg"><path d="m2.47 27.511c.414 0 .749-.336.749-.75 0-.164-.053-.316-.142-.44l.002.002c-.689-.945-1.152-2.097-1.286-3.347l-.003-.031h28.422c-.136 1.28-.598 2.432-1.3 3.397l.014-.02c-.088.121-.141.273-.141.438 0 .414.336.75.75.75.25 0 .472-.122.608-.31l.002-.002c1.004-1.381 1.606-3.111 1.606-4.981 0-.007 0-.014 0-.022v.001c0-.414-.336-.75-.75-.75h-3.163v-5.771c0-.414-.336-.75-.75-.75h-3.163v-5.771c0-.414-.336-.75-.75-.75h-5.218c-.414 0-.75.336-.75.75v5.771h-2.412v-5.771c0-.414-.336-.75-.75-.75h-5.218c-.414 0-.75.336-.75.75v5.771h-3.163c-.414 0-.75.336-.75.75v5.771h-3.163c-.414 0-.75.336-.75.75v.019c0 1.872.603 3.603 1.626 5.009l-.017-.024c.138.19.359.313.609.313h.001zm19.954-17.609v1.108h-3.718v-1.108zm-3.718 2.609h3.718v2.413h-3.718zm-5.412-2.609v1.108h-3.718v-1.108zm-3.718 2.609h3.718v2.413h-3.718zm-3.913 3.913h20.674v5.021h-20.674zm8.935-14.446c0-.414.336-.75.75-.75s.75.336.75.75c.001.666.541 1.206 1.207 1.206 1.854.002 3.357 1.505 3.358 3.359 0 .414-.336.75-.75.75s-.75-.336-.75-.75c-.001-1.026-.832-1.858-1.858-1.859-1.494-.002-2.705-1.212-2.707-2.706zm-7.826 0c0-.414.336-.75.75-.75s.75.336.75.75c.001.666.541 1.206 1.207 1.206 1.854.002 3.357 1.505 3.358 3.359 0 .414-.336.75-.75.75s-.75-.336-.75-.75c-.001-1.026-.832-1.858-1.858-1.859-1.494-.002-2.705-1.212-2.707-2.706zm24.968 28.042v.001c0 .414-.335.75-.749.75h-.007c-.003 0-.006 0-.009 0-1.137 0-2.167-.454-2.92-1.191l.001.001c-.751.736-1.781 1.191-2.917 1.191-.003 0-.006 0-.009 0h-.013c-.002 0-.004 0-.007 0-1.138 0-2.169-.456-2.921-1.194l.001.001c-.751.738-1.782 1.194-2.919 1.194-.003 0-.006 0-.009 0h-.013c-.002 0-.005 0-.007 0-1.136 0-2.167-.455-2.919-1.192l.001.001c-.751.737-1.781 1.191-2.917 1.191-.003 0-.006 0-.009 0h-.013c-.002 0-.005 0-.007 0-1.138 0-2.169-.455-2.921-1.194l.001.001c-.752.738-1.783 1.193-2.92 1.193-.003 0-.006 0-.009 0h-.013c-.002 0-.004 0-.007 0-1.139 0-2.171-.457-2.924-1.197l.001.001c-.751.74-1.783 1.197-2.922 1.197-.003 0-.006 0-.009 0h-.006c-.414 0-.75-.336-.75-.75s.336-.75.75-.75h.001.006.005c.964 0 1.81-.507 2.285-1.27l.007-.011c.005-.008.014-.012.019-.02.012-.018.031-.031.045-.048.049-.063.105-.117.169-.161l.003-.002.003-.003c.006-.004.013-.003.019-.007.074-.045.162-.079.255-.095l.004-.001h.007c.034-.006.074-.009.114-.009.058 0 .115.007.169.02l-.005-.001c.007.002.013.006.019.007.079.017.149.044.213.081l-.003-.002c.012.007.018.019.029.027.015.01.026.026.04.038.063.048.117.105.161.169l.002.002.01.01c.481.771 1.325 1.276 2.287 1.276h.007.008.009c.964 0 1.809-.508 2.283-1.27l.007-.011.012-.012c.069-.076.139-.146.213-.212l.003-.002.008-.007c.015-.009.032-.009.048-.018.066-.038.143-.068.225-.084l.005-.001c.005-.001.009 0 .014-.001.04-.008.086-.013.134-.013.26 0 .486.141.607.351l.002.003.001.001c.482.771 1.326 1.276 2.288 1.276h.007.008.006c.964 0 1.809-.507 2.284-1.268l.007-.011c.043-.061.092-.113.147-.157l.002-.001c.022-.023.045-.045.069-.065l.001-.001.011-.011c.019-.009.044-.018.069-.026l.005-.001c.058-.032.125-.058.195-.074l.005-.001c.008-.001.015 0 .022-.001.04-.008.086-.013.133-.013.267 0 .499.149.617.369l.002.004c.484.761 1.323 1.258 2.277 1.258h.003.009.007c.964 0 1.81-.507 2.285-1.27l.007-.011.01-.01c.069-.077.14-.148.214-.214l.003-.002.008-.008c.015-.009.033-.01.048-.018.066-.038.142-.068.224-.084l.005-.001h.011c.04-.008.086-.013.134-.013.261 0 .488.141.61.351l.002.003c.481.771 1.325 1.276 2.287 1.276h.007.008.009c.964 0 1.809-.508 2.282-1.27l.007-.011.002-.003c.04-.056.086-.105.138-.146l.001-.001c.024-.026.049-.05.076-.072l.001-.001.012-.011c.019-.009.044-.018.069-.026l.005-.001c.058-.032.126-.058.198-.074l.005-.001c.006-.001.011 0 .017-.001.041-.009.088-.013.136-.013.265 0 .495.147.613.364l.002.004c.483.764 1.322 1.264 2.279 1.264h.005.006c.414 0 .749.335.75.749zm-7.816-10.426c0 .414-.336.75-.75.75h-1.956c-.414 0-.75-.336-.75-.75s.336-.75.75-.75h1.956c.414 0 .75.336.75.75zm-6.522 0c0 .414-.336.75-.75.75h-1.957c-.414 0-.75-.336-.75-.75s.336-.75.75-.75h1.957c.414 0 .75.336.75.75zm-5.87 0c0 .414-.336.75-.75.75h-1.956c-.414 0-.75-.336-.75-.75s.336-.75.75-.75h1.956c.414 0 .75.336.75.75z"/></svg>