<svg width="24" height="24" viewBox="0 0 24 24" fill="#212121" xmlns="http://www.w3.org/2000/svg">
    <path fill-rule="evenodd" clip-rule="evenodd" d="M4.23223 2.23223C4.70107 1.76339 5.33696 1.5 6 1.5H14C14.1326 1.5 14.2598 1.55268 14.3536 1.64645L20.3536 7.64645C20.4473 7.74021 20.5 7.86739 20.5 8V20C20.5 20.663 20.2366 21.2989 19.7678 21.7678C19.2989 22.2366 18.663 22.5 18 22.5H6C5.33696 22.5 4.70107 22.2366 4.23223 21.7678C3.76339 21.2989 3.5 20.663 3.5 20V4C3.5 3.33696 3.76339 2.70107 4.23223 2.23223ZM6 2.5C5.60218 2.5 5.22064 2.65804 4.93934 2.93934C4.65804 3.22064 4.5 3.60218 4.5 4V20C4.5 20.3978 4.65804 20.7794 4.93934 21.0607C5.22064 21.342 5.60218 21.5 6 21.5H18C18.3978 21.5 18.7794 21.342 19.0607 21.0607C19.342 20.7794 19.5 20.3978 19.5 20V8.5H14C13.7239 8.5 13.5 8.27614 13.5 8V2.5H6ZM14.5 3.20711L18.7929 7.5H14.5V3.20711ZM7.5 9C7.5 8.72386 7.72386 8.5 8 8.5H10C10.2761 8.5 10.5 8.72386 10.5 9C10.5 9.27614 10.2761 9.5 10 9.5H8C7.72386 9.5 7.5 9.27614 7.5 9ZM7.5 13C7.5 12.7239 7.72386 12.5 8 12.5H16C16.2761 12.5 16.5 12.7239 16.5 13C16.5 13.2761 16.2761 13.5 16 13.5H8C7.72386 13.5 7.5 13.2761 7.5 13ZM7.5 17C7.5 16.7239 7.72386 16.5 8 16.5H16C16.2761 16.5 16.5 16.7239 16.5 17C16.5 17.2761 16.2761 17.5 16 17.5H8C7.72386 17.5 7.5 17.2761 7.5 17Z"/>
</svg>
