<svg height="32" viewBox="0 0 32 32" width="32" xmlns="http://www.w3.org/2000/svg"><path d="m31.429.931c-.123-.256-.381-.43-.679-.431h-29.5c-.414 0-.75.336-.75.75 0 .182.065.349.173.479l-.001-.001 12.654 15.299v13.724c0 .414.336.75.75.75.207 0 .395-.084.53-.22l3.848-3.848c.136-.136.22-.323.22-.53v-9.876l12.654-15.299c.107-.129.172-.296.172-.478 0-.116-.026-.226-.073-.324l.002.004zm-14.083 15.348c-.107.128-.172.295-.172.476v.001 9.835l-2.348 2.348v-12.183-.001c0-.182-.065-.348-.173-.478l.001.001-11.811-14.279h26.313z"/></svg>