<svg height="32" viewBox="0 0 32 32" width="32" xmlns="http://www.w3.org/2000/svg"><path d="m16 .25c-8.698 0-15.75 7.051-15.75 15.75s7.051 15.75 15.75 15.75c8.698 0 15.75-7.052 15.75-15.75-.01-8.694-7.056-15.74-15.749-15.75zm12.329 22.863-5.38 1.239-1.964-2.192 2.245-6.934 3.401-1.826 3.541 4.075c-.226 2.105-.883 4.018-1.88 5.704l.036-.066zm-19.243 1.241-5.42-1.248c-.952-1.609-1.604-3.506-1.828-5.532l-.006-.064 3.584-4.125 3.316 1.62 2.318 7.155zm-4.634-12.147-2.665 3.067c.133-2.654.976-5.086 2.343-7.14l-.033.052zm7.99 9.381-2.213-6.83 5.788-4.22 5.788 4.22-2.212 6.83zm15.139-9.385.351-3.97c1.308 1.979 2.139 4.378 2.278 6.96l.002.036zm-1.001-5.715-.486 5.497-3.194 1.715-6.133-4.471v-4.142l4.969-2.121c1.904.858 3.517 2.047 4.832 3.509zm-6.953-4.252-3.609 1.541-3.622-1.546c1.081-.305 2.322-.48 3.605-.48 1.29 0 2.539.177 3.723.509l-.097-.023zm-9.346.721 4.987 2.13v4.142l-5.996 4.371-3.334-1.63-.487-5.516c1.325-1.464 2.933-2.645 4.741-3.461l.09-.036zm-5.369 21.974 3.958.912 2.069 3.462c-2.425-.941-4.456-2.441-6.006-4.347l-.021-.026zm8.156 5.013-2.792-4.671 1.956-2.185h7.573l1.955 2.182-2.782 4.661c-.896.202-1.926.318-2.983.318-1.037 0-2.047-.112-3.021-.324l.093.017zm8.043-.658 2.056-3.445 3.915-.902c-1.559 1.916-3.57 3.405-5.874 4.314l-.097.034z"/></svg>