<svg height="32" viewBox="0 0 40 32" width="40" xmlns="http://www.w3.org/2000/svg"><path d="m35.404.471c-.136-.136-.323-.219-.53-.219-.029 0-.057.002-.085.005h.003c-.991.108-24.33 2.794-29.617 14.023-1.872 3.976-1.234 8.51 1.88 13.48l-.789.789c-.136.136-.22.323-.22.53 0 .414.336.75.75.75.207 0 .395-.084.53-.22l.792-.793c2.462 1.711 5.482 2.787 8.743 2.93l.035.001h.027c1.697 0 3.304-.388 4.736-1.08l-.065.028c11.23-5.286 13.916-28.623 14.024-29.613.003-.025.005-.054.005-.083 0-.207-.084-.394-.22-.529zm-14.448 28.869c-3.405 1.6-7.354 1.04-11.74-1.621l3.65-3.65h6.889c.414 0 .75-.336.75-.75s-.336-.75-.75-.75h-5.389l4.259-4.26h4.73c.414 0 .75-.336.75-.75s-.336-.75-.75-.75h-3.23l4.258-4.259h1.852c.414 0 .75-.336.75-.75s-.336-.75-.75-.75h-1.409v-1.41c0-.414-.336-.75-.75-.75s-.75.336-.75.75v1.847l-4.26 4.26v-3.227c0-.414-.336-.75-.75-.75s-.75.336-.75.75v4.727l-4.26 4.26v-5.388c0-.414-.336-.75-.75-.75s-.75.336-.75.75v6.888l-3.651 3.651c-2.661-4.387-3.225-8.336-1.623-11.74 4.354-9.253 23.023-12.418 27.472-13.048-.629 4.447-3.791 23.11-13.048 27.469z"/></svg>