<svg height="32" viewBox="0 0 32 32" width="32" xmlns="http://www.w3.org/2000/svg"><path d="m14.804 21.75q0 1.357-1.045 2.009t-2.491.652q-.732 0-1.438-.17t-1.348-.509-1.036-.946-.393-1.393q0-.821.446-1.429t1.17-.92 1.464-.446 1.509-.134q.357 0 .554.036.036.018.411.295t.464.339.411.321.438.393.339.402.304.464.161.473.08.563zm-1.322-9.732q0 1.071-.589 1.777t-1.643.705q-.946 0-1.661-.759t-1.027-1.723-.313-1.893q0-1.089.571-1.857t1.643-.768q.946 0 1.67.804t1.036 1.804.313 1.911zm1.893-4.589 1.571-1.143h-4.732q-1.518 0-2.875.571t-2.277 1.75-.92 2.732q0 1.661 1.152 2.759t2.83 1.098q.393 0 .768-.054-.232.518-.232.964 0 .786.714 1.679-3.125.214-4.589 1.125-.839.518-1.348 1.304t-.509 1.696q0 .768.33 1.384t.866 1.009 1.232.661 1.384.375 1.366.107q1.071 0 2.152-.277t2.027-.821 1.536-1.473.589-2.089q0-.875-.357-1.598t-.875-1.188-1.036-.848-.875-.786-.357-.795.277-.759.67-.705.786-.75.67-1.063.277-1.473q0-1.071-.402-1.777t-1.295-1.616h1.482zm5.196 8h2.286v-1.143h-2.286v-2.286h-1.143v2.286h-2.286v1.143h2.286v2.857h1.143zm6.858-8v17.143q0 2.125-1.509 3.634t-3.634 1.509h-17.143q-2.125 0-3.634-1.509t-1.509-3.634v-17.143q0-2.125 1.509-3.634t3.634-1.509h17.143q2.125 0 3.634 1.509t1.509 3.634z"/></svg>