<svg height="32" viewBox="0 0 23 32" width="23" xmlns="http://www.w3.org/2000/svg"><path d="m17.518 23.911q0-.446-.125-.875t-.259-.75-.482-.741-.527-.625-.688-.616-.652-.518-.741-.536-.652-.464q-.286-.036-.875-.036-.946 0-1.866.125t-1.911.446-1.732.821-1.223 1.33-.482 1.884q0 1 .42 1.821t1.089 1.348 1.554.893 1.786.518 1.813.152q1.036 0 1.991-.232t1.768-.696 1.304-1.304.491-1.946zm-2.089-15.322q0-1.054-.304-2.241t-.857-2.304-1.5-1.848-2.089-.732q-.75 0-1.473.348t-1.188.938q-.821 1.054-.821 2.857 0 .821.179 1.741t.563 1.839.929 1.652 1.339 1.196 1.723.464q.661 0 1.384-.295t1.17-.777q.946-1 .946-2.839zm-2-8.589h7.446l-2.446 1.571h-2.357q1.339 1.125 2.018 2.375t.679 2.857q0 1.286-.438 2.313t-1.063 1.661-1.241 1.161-1.054 1.098-.438 1.179q0 .643.571 1.259t1.375 1.214 1.616 1.313 1.384 1.857.571 2.536q0 1.625-.875 3.089-1.268 2.179-3.741 3.205t-5.33 1.027q-2.357 0-4.402-.741t-3.08-2.455q-.643-1.054-.643-2.339 0-1.446.795-2.679t2.116-2.054q2.339-1.464 7.214-1.786-.571-.732-.848-1.313t-.277-1.313q0-.714.375-1.518-.821.071-1.214.071-2.643 0-4.455-1.723t-1.813-4.366q0-1.464.643-2.839t1.768-2.339q1.357-1.179 3.25-1.75t3.893-.571z"/></svg>