<svg height="32" viewBox="0 0 34 32" width="34" xmlns="http://www.w3.org/2000/svg"><path d="m17.156 1.132c-2.851 0-5.162 2.311-5.162 5.162s2.311 5.162 5.162 5.162 5.161-2.311 5.162-5.161c-.003-2.85-2.312-5.159-5.161-5.162zm0 8.824c-2.022 0-3.662-1.639-3.662-3.662s1.639-3.662 3.662-3.662c2.022 0 3.662 1.639 3.662 3.662v.001c-.003 2.021-1.64 3.659-3.661 3.661zm12.353 4.147c1.876 0 3.397-1.521 3.397-3.397s-1.521-3.397-3.397-3.397-3.397 1.521-3.397 3.396c.002 1.875 1.522 3.395 3.397 3.397zm0-5.294c1.048 0 1.897.849 1.897 1.897s-.849 1.897-1.897 1.897-1.897-.849-1.897-1.897c0 0 0 0 0-.001.001-1.047.85-1.895 1.897-1.896zm-24.706-1.5c-1.876 0-3.397 1.521-3.397 3.397s1.521 3.397 3.397 3.397 3.397-1.521 3.397-3.397c0 0 0 0 0-.001-.002-1.875-1.522-3.395-3.397-3.396zm0 5.294c-1.048 0-1.897-.849-1.897-1.897s.849-1.897 1.897-1.897 1.897.849 1.897 1.896c-.001 1.047-.85 1.896-1.897 1.897zm17.515 6.044v11.471c0 .414-.336.75-.75.75s-.75-.336-.75-.75v-11.471c0-2.022-1.639-3.662-3.662-3.662s-3.662 1.639-3.662 3.662v11.471c0 .414-.336.75-.75.75s-.75-.336-.75-.75v-11.471c0-2.851 2.311-5.162 5.162-5.162s5.162 2.311 5.162 5.162zm10.588.883v6.176c0 .414-.336.75-.75.75s-.75-.336-.75-.75v-6.176c0-.004 0-.009 0-.014 0-1.048-.849-1.897-1.897-1.897s-1.897.849-1.897 1.897v.015-.001 6.176c0 .414-.336.75-.75.75s-.75-.336-.75-.75v-6.176c0-.005 0-.012 0-.018 0-1.876 1.521-3.397 3.397-3.397s3.397 1.521 3.397 3.397v.019zm-24.706 0v6.176c0 .414-.336.75-.75.75s-.75-.336-.75-.75v-6.176c0-.004 0-.009 0-.014 0-1.048-.849-1.897-1.897-1.897s-1.897.849-1.897 1.897v.015-.001 6.176c0 .414-.336.75-.75.75s-.75-.336-.75-.75v-6.176c0-.005 0-.012 0-.018 0-1.876 1.521-3.397 3.397-3.397s3.397 1.521 3.397 3.397v.019z"/></svg>