<svg height="32" viewBox="0 0 32 32" width="32" xmlns="http://www.w3.org/2000/svg"><path d="m31.938 13.712c.039.088.062.191.062.299 0 .306-.183.569-.446.685l-.005.002-15.25 6.631c-.088.04-.191.063-.299.063s-.211-.023-.304-.064l.005.002-15.25-6.631c-.279-.113-.473-.383-.473-.697 0-.414.336-.75.75-.75.116 0 .227.027.325.074l14.947 6.499 14.951-6.501c.088-.039.191-.062.299-.062.306 0 .569.183.685.446l.002.005zm-.987 3.59-14.951 6.5-14.951-6.5c-.094-.045-.204-.072-.321-.072-.414 0-.75.336-.75.75 0 .314.194.584.468.695l.005.002 15.25 6.63c.088.04.191.063.299.063s.211-.023.304-.064l-.005.002 15.25-6.63c.279-.113.473-.383.473-.697 0-.414-.336-.75-.75-.75-.116 0-.227.027-.325.074l.005-.002zm0 3.978-14.951 6.5-14.951-6.5c-.094-.045-.204-.072-.321-.072-.414 0-.75.336-.75.75 0 .314.194.584.468.695l.005.002 15.25 6.63c.088.04.191.063.299.063s.211-.023.304-.064l-.005.002 15.25-6.63c.279-.113.473-.383.473-.697 0-.414-.336-.75-.75-.75-.116 0-.227.027-.325.074l.005-.002zm-30.951-11.248c0-.306.183-.569.446-.685l.005-.002 15.25-6.63c.088-.04.191-.063.299-.063s.211.023.303.065l-.005-.002 15.25 6.63c.268.118.451.381.451.688s-.183.569-.446.686l-.005.002-15.25 6.631c-.088.04-.191.063-.299.063s-.211-.023-.304-.064l.005.002-15.25-6.631c-.268-.118-.451-.381-.451-.687v-.001zm2.631 0 13.369 5.814 13.369-5.814-13.369-5.812z"/></svg>