<svg height="32" viewBox="0 0 32 32" width="32" xmlns="http://www.w3.org/2000/svg"><path d="m16 .25c-8.698 0-15.75 7.051-15.75 15.75s7.051 15.75 15.75 15.75c8.698 0 15.75-7.052 15.75-15.75-.01-8.694-7.056-15.74-15.749-15.75zm0 1.5c5.445.006 10.175 3.064 12.571 7.554l.037.077h-25.217c2.434-4.567 7.163-7.625 12.608-7.631zm12.809 9.131c-.751 3.768-2.842 6.22-5.467 6.326-2.313.089-5.102-1.837-6.379-6.326zm-13.772 0c-1.277 4.487-4.043 6.396-6.379 6.326-2.625-.106-4.716-2.559-5.467-6.326zm.963 19.369c-.014 0-.031 0-.048 0-7.844 0-14.202-6.358-14.202-14.202 0-1.164.14-2.296.404-3.379l-.02.097c1.147 3.563 3.529 5.82 6.463 5.939.073.003.146.005.221.005 2.432 0 5.485-1.613 7.182-5.99 1.697 4.378 4.75 5.99 7.182 5.99.074 0 .148-.002.221-.005 2.934-.119 5.316-2.376 6.463-5.939.244.985.384 2.117.384 3.281 0 7.844-6.358 14.202-14.202 14.202-.017 0-.034 0-.051 0h.003zm9.695-8.55c-1.763 3.658-5.441 6.137-9.699 6.137-4.053 0-7.581-2.246-9.407-5.562l-.028-.055c-.055-.102-.088-.224-.088-.353 0-.414.336-.75.75-.75.285 0 .533.159.66.394l.002.004c1.597 2.894 4.629 4.822 8.111 4.822 3.656 0 6.815-2.125 8.311-5.207l.024-.055c.124-.253.38-.425.676-.425.414 0 .75.336.75.75 0 .108-.023.211-.064.305z"/></svg>