<svg height="32" viewBox="0 0 32 32" width="32" xmlns="http://www.w3.org/2000/svg"><path d="m22.856.279h-.001c-2.919 0-5.469 1.585-6.835 3.941l-.02.038c-1.381-2.393-3.926-3.979-6.842-3.979-4.318 0-7.823 3.476-7.872 7.782v.005.007c0 .343.022.681.066 1.012l-.004-.039q.061.561.141 1.114c1.357 9.118 6.616 16.789 13.991 21.376l.129.074c.112.07.248.111.394.111s.282-.041.397-.113l-.003.002c7.503-4.661 12.761-12.332 14.097-21.283l.02-.166c.057-.39.105-.78.145-1.164.036-.279.057-.603.057-.931-.026-4.306-3.522-7.786-7.831-7.786-.009 0-.019 0-.028 0h.001zm6.312 8.547c-.04.374-.085.747-.14 1.118-1.266 8.51-6.104 15.689-12.913 20.072l-.114.069c-6.923-4.452-11.762-11.63-13.009-19.983l-.019-.158c-.051-.351-.095-.705-.135-1.075-.026-.218-.041-.469-.041-.725 0-3.514 2.849-6.362 6.362-6.362 2.893 0 5.335 1.931 6.108 4.575l.011.045c.091.319.38.55.723.55s.632-.23.721-.544l.001-.005c.785-2.69 3.229-4.622 6.124-4.622 3.488 0 6.321 2.804 6.368 6.282v.004.001c0 .268-.017.532-.05.791l.003-.031z"/></svg>