<svg height="32" viewBox="0 0 32 32" width="32" xmlns="http://www.w3.org/2000/svg"><path d="m22.856.279h-.001c-2.919 0-5.469 1.585-6.835 3.941l-.02.038c-1.381-2.393-3.927-3.978-6.842-3.978-4.318 0-7.823 3.475-7.872 7.781v.005.008c0 .342.022.679.066 1.009l-.004-.039q.06.561.141 1.115c1.358 9.118 6.616 16.789 13.992 21.376l.129.074c.112.07.248.111.394.111s.282-.041.397-.113l-.003.002c7.504-4.661 12.761-12.331 14.098-21.283l.02-.166c.057-.39.105-.78.145-1.164.036-.279.057-.603.057-.931-.026-4.306-3.522-7.786-7.831-7.786-.009 0-.019 0-.028 0h.001z"/></svg>