<svg height="32" viewBox="0 0 32 32" width="32" xmlns="http://www.w3.org/2000/svg"><path d="m24.62 31.26c-4.032 0-7.3-3.268-7.3-7.3s3.268-7.3 7.3-7.3 7.3 3.268 7.3 7.3c-.006 4.029-3.271 7.294-7.299 7.3zm0-13.27c-3.314 0-6 2.686-6 6s2.686 6 6 6 6-2.686 6-6c-.006-3.309-2.69-5.99-6-5.99zm-7.96 13.27h-11.94c-.366-.006-.66-.303-.66-.67v-14.59c.042-.333.324-.588.665-.588s.623.255.665.585v.003 13.93h11.27c.025-.003.053-.005.082-.005.37 0 .67.3.67.67s-.3.67-.67.67c-.029 0-.057-.002-.085-.005zm-15.92-15.26c-.002 0-.005 0-.007 0-.192 0-.365-.085-.482-.219l-.001-.001c-.118-.119-.192-.284-.192-.465s.073-.346.192-.465l15.3-13.93c.118-.108.277-.174.45-.174s.332.066.451.174h-.001l15.25 13.93c.134.121.218.296.218.49 0 .169-.064.324-.169.441l.001-.001c-.123.135-.299.219-.495.219-.171 0-.327-.064-.445-.169l.001.001-14.81-13.52-14.81 13.52c-.12.104-.277.168-.45.17zm25.26-8c-.364 0-.66-.295-.66-.66v-4h-4c-.025.003-.053.005-.082.005-.37 0-.67-.3-.67-.67s.3-.67.67-.67c.029 0 .057.002.085.005h-.003 4.66c.364 0 .66.296.66.66v4.71c-.022.347-.308.62-.659.62zm-8 4.68h-4c-.003 0-.007 0-.01 0-.359 0-.65-.291-.65-.65 0-.004 0-.007 0-.011v.001-4.02c.016-.346.301-.62.649-.62h.011 3.999.01c.359 0 .65.291.65.65v.011-.001 4c-.006.355-.294.64-.65.64-.004 0-.007 0-.011 0h.001zm-3.32-1.32h2.66v-2.66h-2.67zm10.4 13.42c.001.01.002.022.002.033 0 .144-.116.26-.26.26-.015 0-.029-.001-.044-.004h.002-1.12v.51c.089.469.495.819.983.819.448 0 .828-.295.955-.701l.002-.007c-.001-.01-.002-.021-.002-.033 0-.177.143-.32.32-.32.015 0 .029.001.043.003h-.002.42c.013-.002.028-.003.043-.003.193 0 .35.157.35.35 0 .015-.001.03-.003.044v-.002c-.004 1.057-.862 1.913-1.92 1.913-.078 0-.154-.005-.229-.014l.009.001c-.042.003-.091.005-.14.005-1.105 0-2-.895-2-2 0-.002 0-.003 0-.005v-.54h-.3c-.21 0-.31-.1-.31-.29v-.34c0-.19.1-.29.31-.29h.3v-.68h-.3c-.21 0-.31-.1-.31-.29v-.34c-.001-.01-.002-.022-.002-.033 0-.149.121-.27.27-.27.015 0 .029.001.044.003h-.002.3v-.56c0-.001 0-.003 0-.005 0-1.105.895-2 2-2 .049 0 .098.002.146.005h-.006c.066-.008.142-.013.22-.013 1.058 0 1.916.855 1.92 1.912.002.013.003.028.003.043 0 .193-.157.35-.35.35-.015 0-.03-.001-.044-.003h.002-.38c-.013.002-.027.003-.042.003-.177 0-.32-.143-.32-.32 0-.012.001-.023.002-.034v.001c-.129-.414-.508-.709-.957-.709-.488 0-.895.35-.982.812l-.001.006v.5h1.12c.01-.001.021-.002.032-.002.149 0 .27.121.27.27 0 .011-.001.022-.002.033v-.001.34c.001.01.002.022.002.033 0 .144-.116.26-.26.26-.015 0-.029-.001-.044-.004h.002-1.16v.68h1.12c.013-.002.027-.003.042-.003.144 0 .26.116.26.26 0 .012-.001.023-.002.035v-.001z"/></svg>