<svg height="32" viewBox="0 0 30 32" width="30" xmlns="http://www.w3.org/2000/svg"><path d="m25.86 17.816v11.506c0 .38-.308.689-.689.689h-20.589c-.38 0-.689-.308-.689-.689v-12.111c0-.38.308-.689.689-.689s.689.308.689.689v11.422h19.212v-10.817c0-.38.308-.689.689-.689s.689.308.689.689zm3.433-1.698-13.929-13.927c-.125-.125-.297-.202-.487-.202s-.362.077-.487.202l-13.927 13.927c-.125.125-.202.297-.202.487 0 .38.308.689.689.689.19 0 .362-.077.487-.202l13.441-13.441 13.441 13.441c.124.122.294.197.482.197.38 0 .689-.308.689-.689 0-.188-.075-.358-.197-.482zm-9.571-11.54h3.55v3.55c0 .38.308.689.689.689s.689-.308.689-.689v-4.239c0-.38-.308-.689-.689-.689h-4.239c-.38 0-.689.308-.689.689s.308.689.689.689z"/></svg>