<svg height="32" viewBox="0 0 32 32" width="32" xmlns="http://www.w3.org/2000/svg"><path d="m16 .25c-8.698 0-15.75 7.051-15.75 15.75s7.051 15.75 15.75 15.75c8.698 0 15.75-7.052 15.75-15.75-.01-8.694-7.056-15.74-15.749-15.75zm0 30c-7.87 0-14.25-6.38-14.25-14.25s6.38-14.25 14.25-14.25 14.25 6.38 14.25 14.25c-.009 7.866-6.384 14.241-14.249 14.25zm9.782-13.044h-19.564c-.414 0-.75.336-.75.75 0 5.356 4.823 9.881 10.532 9.881s10.532-4.524 10.532-9.881c0-.414-.336-.75-.75-.75zm-9.782 9.131c-4.54 0-8.554-3.487-8.992-7.631h17.984c-.439 4.144-4.452 7.631-8.992 7.631zm-5.869-13.5c1.495 0 2.706-1.212 2.706-2.707s-1.212-2.707-2.707-2.707-2.707 1.212-2.707 2.707v.001c.002 1.494 1.213 2.705 2.707 2.706zm0-3.913c.666 0 1.206.54 1.206 1.207s-.54 1.207-1.207 1.207c-.666 0-1.206-.54-1.207-1.206 0-.667.541-1.207 1.207-1.207zm11.738 3.913h.001c1.495 0 2.707-1.212 2.707-2.707s-1.212-2.707-2.707-2.707-2.707 1.212-2.707 2.707v.001c.002 1.494 1.212 2.704 2.706 2.706zm0-3.913h.001c.666 0 1.207.54 1.207 1.207s-.54 1.207-1.207 1.207c-.666 0-1.206-.54-1.207-1.206 0-.666.54-1.206 1.206-1.207z"/></svg>