<svg width="24" height="24" viewBox="0 0 24 24" fill="#000000" xmlns="http://www.w3.org/2000/svg">
    <path fill-rule="evenodd" d="M1 7.5C1 6.11929 2.11929 5 3.5 5H20.5C21.8807 5 23 6.11929 23 7.5V17.5C23 18.8807 21.8807 20 20.5 20H3.5C2.11929 20 1 18.8807 1 17.5V7.5ZM3.5 6C2.67157 6 2 6.67157 2 7.5V17.5C2 18.3284 2.67157 19 3.5 19H20.5C21.3284 19 22 18.3284 22 17.5V7.5C22 6.67157 21.3284 6 20.5 6H3.5ZM15.5 9C14.6716 9 14 9.67157 14 10.5C14 11.3284 14.6716 12 15.5 12C16.3284 12 17 11.3284 17 10.5C17 9.67157 16.3284 9 15.5 9ZM17.2006 12.3324C17.6923 11.8759 18 11.2239 18 10.5C18 9.11929 16.8807 8 15.5 8C14.1193 8 13 9.11929 13 10.5C13 11.2239 13.3077 11.8759 13.7994 12.3324C12.1572 13.0033 11 14.6165 11 16.5C11 16.7761 11.2239 17 11.5 17C11.7761 17 12 16.7761 12 16.5C12 14.567 13.567 13 15.5 13C17.433 13 19 14.567 19 16.5C19 16.7761 19.2239 17 19.5 17C19.7761 17 20 16.7761 20 16.5C20 14.6165 18.8428 13.0033 17.2006 12.3324ZM4.5 10C4.5 9.72386 4.72386 9.5 5 9.5L10 9.5C10.2761 9.5 10.5 9.72386 10.5 10C10.5 10.2761 10.2761 10.5 10 10.5L5 10.5C4.72386 10.5 4.5 10.2761 4.5 10ZM5 12.5C4.72386 12.5 4.5 12.7239 4.5 13C4.5 13.2761 4.72386 13.5 5 13.5H8C8.27614 13.5 8.5 13.2761 8.5 13C8.5 12.7239 8.27614 12.5 8 12.5L5 12.5Z" />
</svg>
