<svg height="32" viewBox="0 0 32 32" width="32" xmlns="http://www.w3.org/2000/svg"><path d="m16 .25c-8.698 0-15.75 7.051-15.75 15.75s7.051 15.75 15.75 15.75c8.698 0 15.75-7.052 15.75-15.75-.01-8.694-7.056-15.74-15.749-15.75zm0 30c-7.87 0-14.25-6.38-14.25-14.25s6.38-14.25 14.25-14.25 14.25 6.38 14.25 14.25c-.009 7.866-6.384 14.241-14.249 14.25zm5.234-8.073c0 .414-.336.75-.75.75h-7.059c-.414 0-.75-.336-.75-.75s.336-.75.75-.75h2.707v-9.089h-2.707c-.414 0-.75-.336-.75-.75s.336-.75.75-.75h3.457c.414 0 .75.336.75.75v9.839h2.852c.414 0 .75.336.75.75zm-5.234-14.118c0-.487.395-.882.882-.882s.882.395.882.882-.395.882-.882.882 0 0-.001 0c-.487 0-.882-.395-.882-.882v-.001z"/></svg>