<svg height="32" viewBox="0 0 32 32" width="32" xmlns="http://www.w3.org/2000/svg"><path d="m16 7.729c-4.532 0-8.207 3.674-8.207 8.207s3.674 8.207 8.207 8.207c4.532 0 8.206-3.674 8.206-8.207-.009-4.529-3.678-8.197-8.206-8.207h-.001zm0 13.464c-2.904 0-5.257-2.354-5.257-5.257s2.354-5.257 5.257-5.257c2.904 0 5.257 2.354 5.257 5.257-.013 2.898-2.359 5.244-5.256 5.257zm10.386-13.656c0 1.027-.832 1.859-1.859 1.859s-1.859-.832-1.859-1.859.832-1.859 1.859-1.859 1.859.832 1.859 1.859zm2.949-4.808c-1.648-1.628-3.915-2.634-6.416-2.634-.111 0-.222.002-.332.006h.016-13.207c-5.578 0-9.296 3.719-9.296 9.296v13.144c-.004.101-.006.22-.006.34 0 2.546 1.031 4.851 2.699 6.52 1.665 1.552 3.907 2.505 6.372 2.505.104 0 .208-.002.311-.005h-.015 13.079c.094.003.205.005.316.005 2.478 0 4.734-.952 6.422-2.511l-.006.006c1.629-1.655 2.635-3.929 2.635-6.437 0-.127-.003-.252-.008-.378l.001.018v-13.207c.003-.088.005-.191.005-.294 0-2.476-.979-4.724-2.572-6.377l.003.003zm-.256 19.875c.003.066.004.144.004.222 0 1.744-.713 3.322-1.863 4.457l-.001.001c-1.165 1.038-2.709 1.673-4.402 1.673-.098 0-.195-.002-.292-.006h.014-13.079c-.083.004-.181.006-.278.006-1.692 0-3.237-.634-4.408-1.679l.007.006c-1.078-1.149-1.74-2.7-1.74-4.405 0-.119.003-.238.01-.355l-.001.016v-13.144c-.004-.089-.007-.194-.007-.299 0-1.697.662-3.24 1.741-4.385l-.003.003c1.15-1.039 2.682-1.675 4.363-1.675.112 0 .223.003.333.008l-.015-.001h13.207c.089-.004.194-.007.299-.007 1.697 0 3.24.662 4.385 1.741l-.003-.003c1.074 1.172 1.733 2.741 1.733 4.464 0 .054-.001.107-.002.16v-.008 13.207z"/></svg>