<svg width="24" height="24" viewBox="0 0 24 24" fill="#000000" xmlns="http://www.w3.org/2000/svg">
    <path fill-rule="evenodd" clip-rule="evenodd" d="M5.64529 4.93819C7.32856 3.42249 9.55655 2.5 12 2.5C14.4435 2.5 16.6714 3.42249 18.3547 4.93819L14.8088 8.48405C14.039 7.86824 13.0625 7.5 12 7.5C10.9375 7.5 9.96099 7.86824 9.19116 8.48405L5.64529 4.93819ZM4.93819 5.64529C3.42249 7.32856 2.5 9.55655 2.5 12C2.5 14.4435 3.42249 16.6714 4.93819 18.3547L8.48405 14.8088C7.86824 14.039 7.5 13.0625 7.5 12C7.5 10.9375 7.86824 9.96099 8.48405 9.19116L4.93819 5.64529ZM9.19116 15.516L5.6453 19.0618C7.32856 20.5775 9.55655 21.5 12 21.5C14.4435 21.5 16.6714 20.5775 18.3547 19.0618L14.8088 15.516C14.039 16.1318 13.0625 16.5 12 16.5C10.9375 16.5 9.961 16.1318 9.19116 15.516ZM21.5 12C21.5 14.4435 20.5775 16.6714 19.0618 18.3547L15.516 14.8088C16.1318 14.039 16.5 13.0625 16.5 12C16.5 10.9375 16.1318 9.961 15.516 9.19116L19.0618 5.6453C20.5775 7.32856 21.5 9.55655 21.5 12ZM12 1.5C6.20101 1.5 1.5 6.20101 1.5 12C1.5 17.799 6.20101 22.5 12 22.5C17.799 22.5 22.5 17.799 22.5 12C22.5 6.20101 17.799 1.5 12 1.5ZM12 8.5C10.067 8.5 8.5 10.067 8.5 12C8.5 13.933 10.067 15.5 12 15.5C13.933 15.5 15.5 13.933 15.5 12C15.5 10.067 13.933 8.5 12 8.5Z" />
</svg>
