<svg fill="none" height="32" viewBox="0 0 32 32" width="32" xmlns="http://www.w3.org/2000/svg"><path clip-rule="evenodd" d="m4.68852 11.5082c-1.79678 0-3.18033 1.482-3.18033 3.1803v2.623c0 1.813 1.3673 3.1803 3.18033 3.1803h6.55738c1.0262 0 1.8689-.8427 1.8689-1.8688 0-.4165.3376-.7541.7541-.7541.4164 0 .7541.3376.7541.7541 0 1.8591-1.518 3.377-3.3771 3.377h-6.55738c-2.64598 0-4.68852-2.0425-4.68852-4.6885v-2.623c0-2.4984 2.02629-4.6885 4.68852-4.6885h6.55738c1.8591 0 3.3771 1.5179 3.3771 3.377 0 .4165-.3377.7541-.7541.7541-.4165 0-.7541-.3376-.7541-.7541 0-1.0261-.8427-1.8688-1.8689-1.8688zm12.36028 1.8688c0-1.8591 1.518-3.377 3.3771-3.377h6.5574c2.6622 0 4.6885 2.1901 4.6885 4.6885v2.623c0 2.646-2.0425 4.6885-4.6885 4.6885h-6.5574c-1.8591 0-3.3771-1.5179-3.3771-3.377 0-.4165.3377-.7541.7541-.7541.4165 0 .7541.3376.7541.7541 0 1.0261.8427 1.8688 1.8689 1.8688h6.5574c1.813 0 3.1803-1.3673 3.1803-3.1803v-2.623c0-1.6983-1.3835-3.1803-3.1803-3.1803h-6.5574c-1.0262 0-1.8689.8427-1.8689 1.8688 0 .4165-.3376.7541-.7541.7541-.4164 0-.7541-.3376-.7541-.7541zm-8.42607 1.8692c-.41647 0-.75409.3377-.75409.7541 0 .4165.33762.7541.75409.7541h14.42627c.4164 0 .7541-.3376.7541-.7541 0-.4164-.3377-.7541-.7541-.7541z" fill="#212121" fill-rule="evenodd"/></svg>