<svg height="41" viewBox="0 0 40 41" width="40" xmlns="http://www.w3.org/2000/svg"><path d="m33.41625 17.5925586c.806174 0 1.5816148.2964512 2.1841815.8298261l.1599435.1512953 2.337475 2.352c.5699604.57596.9108191 1.33826.9636708 2.145851l.0072292.221269v14.3472c0 1.79452-1.3903949 3.259368-3.1424997 3.3550306l-.1825003.0049694h-14.9625c-1.7758271 0-3.2254163-1.4050307-3.3200824-3.1755786l-.0049176-.1844214v-16.7076c.0048155-1.7826538 1.3874225-3.2379853 3.12729-3.3347224l.187735-.005119zm-28.0613375-12.74617556c.2277625 0 .4123.18481696.415625.41497696.00665.672.0266 2.07312.0914375 3.36.009975.20832-.1313375.39144-.3325.43344-.854525.19824-1.4447125.98784-1.399825 1.8732v21.47376c-.05985.98952.6832875 1.84296 1.6625 1.90848h7.025725c1.1421375 0 2.06815.93576 2.06815 2.08992-.0016625 1.15416-.9260125 2.08824-2.06815 2.08824h-10.33493125l-.16411152-.0053318c-1.29534935-.0848694-2.31883223-1.1723482-2.31883223-2.5029082v-28.63392c.0049875-1.386 1.1221875-2.50488 2.49375-2.49985696zm27.374725 16.09441696h-10.2858875c-.8694 0-1.5836211.6754996-1.6563939 1.535111l-.0061061.144889.0083125 13.3392c0 .8785516.6684632 1.6002907 1.5191202 1.6738296l.1433798.0061704h11.6375c.8694 0 1.5836211-.6754996 1.6563939-1.535111l.0061061-.144889v-11.96832c0-.39102-.1336494-.766605-.3764458-1.0659797l-.1106667-.1234603-1.359925-1.37088c-.31255-.31416-.734825-.49056-1.1753875-.49056zm-7.723975 8.75112h6.6150875c.688275 0 1.246875.56448 1.246875 1.26 0 .65205-.490957 1.1889281-1.1194478 1.2534908l-.1274272.0065092h-6.6150875c-.688275 0-1.246875-.56448-1.246875-1.26 0-.65205.490957-1.1889281 1.1194478-1.2534908l.1274272-.0065092h6.6150875zm0-5.8464h4.132975c.688275 0 1.246875.56448 1.246875 1.26 0 .65205-.490957 1.1889281-1.1194478 1.2534908l-.1274272.0065092h-4.132975c-.6452578 0-1.1750823-.4946484-1.2401597-1.1295703l-.0067153-.1287497c0-.653625.490957-1.1906016 1.1194478-1.2551704l.1274272-.0065096h4.132975zm.628425-18.99744c1.3715625 0 2.483775 1.12392 2.483775 2.50992v5.92368c-.0016625 1.15416-.927675 2.08992-2.0698125 2.0882423l-.1476904-.0052479c-1.0732194-.0765356-1.9204596-.9806953-1.9204596-2.0846744v-2.352c.0415625-.87192-.532-1.64976-1.3699-1.86144-.20615-.042-.349125-.23352-.3325-.4452.0665-.84504.0681625-2.55696.0648375-3.3516 0-.11088.043225-.2184.1213625-.29736.0781375-.08064.182875-.12432.2942625-.12432zm-11.95005-4.15464c1.8137875-.20664 3.45135 1.11216 3.6558375 2.94672.0249375.21168.202825.37296.4139625.37296h1.260175c.45885 0 .83125.37632.83125.84v3.33984c0 .462-.369075.83664-.8262625.84h-9.9201375c-.45885 0-.83125-.37632-.83125-.84v-3.33984c0-.46368.3724-.84.83125-.84h1.2551875c.2128.00168.3906875-.1596.4139625-.37296.1729-1.54896 1.3832-2.772 2.916025-2.94672z" fill="#212121"/></svg>