<svg height="32" viewBox="0 0 40 32" width="40" xmlns="http://www.w3.org/2000/svg"><path d="m35.219 1.555h-19.565c-.414 0-.75.336-.75.75v6.521c0 .414.336.75.75.75h19.565c.414 0 .75-.336.75-.75v-6.521c0-.414-.336-.75-.75-.75zm-.75 6.521h-18.065v-5.021h18.065zm.75 3.913h-19.565c-.414 0-.75.336-.75.75v6.521c0 .414.336.75.75.75h19.565c.414 0 .75-.336.75-.75v-6.521c0-.414-.336-.75-.75-.75zm-.75 6.522h-18.065v-5.021h18.065zm.75 3.913h-19.565c-.414 0-.75.336-.75.75v6.521c0 .414.336.75.75.75h19.565c.414 0 .75-.336.75-.75v-6.521c0-.414-.336-.75-.75-.75zm-.75 6.521h-18.065v-5.021h18.065zm-22.729-27.39h-6.521c-.414 0-.75.336-.75.75v6.521c0 .414.336.75.75.75h6.521c.414 0 .75-.336.75-.75v-6.521c0-.414-.336-.75-.75-.75zm-.75 6.521h-5.021v-5.021h5.021zm.75 3.913h-6.521c-.414 0-.75.336-.75.75v6.521c0 .414.336.75.75.75h6.521c.414 0 .75-.336.75-.75v-6.521c0-.414-.336-.75-.75-.75zm-.75 6.522h-5.021v-5.021h5.021zm.75 3.913h-6.521c-.414 0-.75.336-.75.75v6.521c0 .414.336.75.75.75h6.521c.414 0 .75-.336.75-.75v-6.521c0-.414-.336-.75-.75-.75zm-.75 6.521h-5.021v-5.021h5.021z"/></svg>