<svg height="32" viewBox="0 0 32 32" width="32" xmlns="http://www.w3.org/2000/svg"><path d="m24.245 16.75h2.516c2.658 0 4.663-2.285 4.663-5.315s-2.005-5.315-4.663-5.315h-2.511v-.554c0-.414-.336-.75-.75-.75h-19.565c-.414 0-.75.336-.75.75v11.087c.005 3.822 2.046 7.165 5.096 9.006l.047.026h-7.002c-.414 0-.75.336-.75.75s.336.75.75.75h25c.414 0 .75-.336.75-.75s-.336-.75-.75-.75h-7.219c3.068-1.851 5.098-5.151 5.138-8.929zm2.516-9.131c2.055 0 3.163 1.966 3.163 3.815s-1.108 3.815-3.163 3.815h-2.511v-7.631zm-13.044 18.066c-4.986-.006-9.026-4.046-9.032-9.032v-10.337h18.065v10.337c-.006 4.986-4.047 9.026-9.032 9.032z"/></svg>