<svg height="32" viewBox="0 0 32 32" width="32" xmlns="http://www.w3.org/2000/svg"><path d="m18.75 20.021c-.001.959-.494 1.803-1.24 2.293l-.01.006v2.679c0 .828-.672 1.5-1.5 1.5s-1.5-.672-1.5-1.5v-2.679c-.755-.498-1.246-1.342-1.246-2.302 0-1.518 1.23-2.748 2.748-2.748s2.748 1.23 2.748 2.748v.002zm9.087-7.282v18.261c0 .414-.336.75-.75.75h-22.174c-.414 0-.75-.336-.75-.75v-18.261c0-.414.336-.75.75-.75h3.163v-3.815c0-4.376 3.548-7.924 7.924-7.924s7.924 3.548 7.924 7.924v3.815h3.163c.414 0 .75.336.75.75zm-18.261-.75h12.848v-3.815c0-3.548-2.876-6.424-6.424-6.424s-6.424 2.876-6.424 6.424zm16.761 1.5h-20.674v16.761h20.674z"/></svg>