<svg height="32" viewBox="0 0 32 32" width="32" xmlns="http://www.w3.org/2000/svg"><path d="m31 27.464c-.285 0-.533-.159-.66-.393l-.002-.004c-4.752-8.91-14.082-7.445-16.445-6.912v5.132.001c0 .414-.336.75-.75.75-.182 0-.348-.065-.478-.172l.001.001-12.143-10c-.167-.139-.273-.346-.273-.579s.106-.441.272-.578l.001-.001 12.143-10c.129-.107.295-.171.477-.171.414 0 .75.336.75.75v.001 4.904c2.25-.114 8.497-.021 13.014 3.985 3.214 2.853 4.844 7.07 4.844 12.538 0 .35-.239.643-.563.726l-.005.001c-.054.014-.115.022-.179.022-.001 0-.002 0-.003 0zm-13.27-9.189c.166-.007.361-.01.556-.01 4.758 0 9.002 2.195 11.777 5.628l.022.029c-.287-3.421-1.833-6.435-4.167-8.616l-.008-.007c-4.98-4.418-12.601-3.564-12.679-3.553-.025.003-.053.004-.082.004-.194 0-.371-.072-.506-.19l.001.001c-.155-.138-.252-.337-.252-.56v-.001-4.125l-10.213 8.411 10.213 8.411v-4.126s0 0 0-.001c0-.339.225-.625.533-.718l.005-.001c1.401-.367 3.01-.578 4.668-.578h.138-.007z"/></svg>