<svg height="32" viewBox="0 0 32 32" width="32" xmlns="http://www.w3.org/2000/svg"><path d="m14.598 9.508v13.021c0 .414.336.75.75.75s.75-.336.75-.75v-13.021c2.233-.374 3.913-2.292 3.913-4.602 0-2.575-2.088-4.663-4.663-4.663s-4.663 2.088-4.663 4.663c0 2.311 1.68 4.229 3.886 4.599l.027.004zm.75-7.75c1.747 0 3.163 1.416 3.163 3.163s-1.416 3.163-3.163 3.163-3.163-1.416-3.163-3.163c.002-1.746 1.417-3.161 3.163-3.163zm15.858 14.181-9.131-2.608c-.024-.007-.048.002-.072-.002-.036-.017-.079-.027-.124-.027-.038 0-.075.007-.109.021l.002-.001c-.022.003-.044-.007-.066-.002l-2.608.58c-.338.077-.587.376-.587.732 0 .414.336.75.75.75.058 0 .114-.007.168-.019l-.005.001 1.695-.377v12.811l-10.238 2.275v-12.811l.716-.159c.339-.077.588-.376.588-.732 0-.414-.336-.75-.75-.75-.057 0-.113.006-.167.019l.005-.001-1.118.248-8.948-2.556c-.062-.018-.133-.029-.206-.029-.414 0-.75.336-.75.75v14.348c0 .341.227.628.539.719l.005.001 9.131 2.608c.024.007.048-.002.072.002.039.012.084.022.131.027h.003c.037-.005.07-.012.102-.021l-.005.001c.022-.003.044.007.066.002l11.552-2.567 8.948 2.556c.062.018.133.029.206.029.414 0 .75-.336.75-.75v-14.348c0-.341-.227-.628-.539-.719l-.005-.001zm-29.456-.893 7.631 2.18v12.788l-7.631-2.18zm28.5 14.968-7.631-2.18v-12.788l7.631 2.18zm-15.652-26.398c0-.414.336-.75.75-.75 1.134.001 2.053.921 2.055 2.055 0 .414-.336.75-.75.75s-.75-.336-.75-.75c0-.306-.248-.554-.555-.555-.414 0-.75-.336-.75-.75z"/></svg>