<svg height="32" viewBox="0 0 32 32" width="32" xmlns="http://www.w3.org/2000/svg"><path d="m21.87.25h-11.74c-1.854.002-3.356 1.505-3.358 3.358v24.783c.002 1.854 1.504 3.356 3.358 3.358h11.74c1.854-.002 3.356-1.504 3.358-3.358v-24.783c-.002-1.854-1.504-3.356-3.358-3.358zm-13.598 6.718h15.456v18.064h-15.456zm1.858-5.218h11.74c1.026.001 1.857.833 1.858 1.858v1.86h-15.456v-1.859c.001-1.026.832-1.857 1.858-1.858zm11.74 28.5h-11.74c-1.026-.001-1.857-.833-1.858-1.858v-1.86h15.456v1.859c-.001 1.026-.832 1.857-1.858 1.858zm-9.88-26.642c0-.414.336-.75.75-.75h6.521c.414 0 .75.336.75.75s-.336.75-.75.75h-6.522c-.414 0-.75-.336-.75-.75zm4.01 23.381c-.774 0-1.402.628-1.402 1.402s.628 1.402 1.402 1.402 1.402-.628 1.402-1.402c-.001-.774-.628-1.401-1.402-1.402zm-.098 1.403c0-.054.044-.098.098-.098s.098.044.098.098c0 .107-.195.107-.195 0z"/></svg>