<?xml version="1.0" encoding="utf-8"?>
<!-- Generator: Adobe Illustrator 24.0.1, SVG Export Plug-In . SVG Version: 6.00 Build 0)  -->
<svg version="1.1" id="Ebene_1" xmlns="http://www.w3.org/2000/svg" xmlns:xlink="http://www.w3.org/1999/xlink" x="0px" y="0px"
	 viewBox="0 0 32 32" style="enable-background:new 0 0 32 32;" xml:space="preserve">
<title>Feuer_Clock</title>
<desc>Created with Sketch.</desc>
<g>
	<path d="M15.3,21.1v-4.5c0-0.4-0.4-0.8-0.8-0.8s-0.8,0.4-0.8,0.8v4.9c0,0.2,0.1,0.5,0.3,0.6l3.7,2.9c0.1,0.1,0.3,0.2,0.5,0.2
		c0.2,0,0.5-0.1,0.6-0.3c0.3-0.3,0.2-0.8-0.1-1.1L15.3,21.1z"/>
	<path d="M30.2,14.1c0-2.9-1.2-5.6-3.2-7.6c-0.2-0.2-0.5-0.3-0.8-0.2c-0.3,0.1-0.5,0.4-0.5,0.7c-0.1,0.7-0.4,1.4-1,1.8
		c-0.5,0.4-1.1,0.6-1.8,0.5c-2.2-2-2.8-5.3-1.6-8c0.1-0.2,0.1-0.5-0.1-0.8c-0.1-0.2-0.4-0.4-0.7-0.4C14.4,0.1,10.1,3.6,9,9.2
		C7.8,9.1,6.8,8.1,6.5,6.9C6.5,6.6,6.3,6.3,6,6.2s-0.6,0-0.8,0.2c-2.6,2.3-3.9,5.8-3.3,9.2c0.4,2.7,1.9,4.9,4,6c0,0.2,0,0.4,0,0.6
		c0,5.3,4.3,9.7,9.7,9.7c5.3,0,9.7-4.3,9.7-9.7c0-0.2,0-0.3,0-0.5c1-0.4,1.9-1,2.6-1.7C29.4,18.4,30.3,16.3,30.2,14.1z M15.6,30.3
		c-4.4,0-8.1-3.6-8.1-8.1c0-0.2,0-0.5,0-0.7c0-0.1,0.1-0.2,0-0.4c0.5-3.9,3.9-7,8-7c4.4,0,8.1,3.6,8.1,8.1
		C23.6,26.6,20,30.3,15.6,30.3z M25,20.1c-1-4.3-4.8-7.5-9.4-7.5c-4.5,0-8.4,3.2-9.4,7.4c-1.4-0.9-2.4-2.6-2.7-4.5
		c-0.4-2.5,0.3-5,1.9-6.9C6.2,10,8,11,9.8,10.8c0.4,0,0.7-0.3,0.7-0.7c0.7-4.8,4-7.9,8.9-8.3C18.5,5,19.5,8.5,22,10.6
		c0.1,0.1,0.2,0.2,0.4,0.2c0.1,0,0.1,0,0.2,0c1.1,0.1,2.2-0.2,3.1-0.9c0.5-0.4,0.9-0.8,1.2-1.4c1.2,1.6,1.8,3.5,1.8,5.5
		c0,1.8-0.7,3.5-1.9,4.8C26.2,19.3,25.6,19.8,25,20.1z"/>
</g>
</svg>
