<svg enable-background="new 0 0 32 32" viewBox="0 0 32 32" xmlns="http://www.w3.org/2000/svg"><path d="m15.4 21.1v-4.5c0-.5-.4-.9-.9-.9s-.9.4-.9.9v4.9c0 .3.1.5.3.7l3.7 3c.2.1.3.2.5.2.3 0 .5-.1.7-.3.3-.4.2-.9-.1-1.2zm15-7.1c0-2.9-1.2-5.6-3.2-7.7-.2-.2-.6-.3-.9-.2s-.5.4-.6.7c-.1.7-.4 1.4-1 1.8-.5.4-1.1.6-1.7.5-2.1-2-2.8-5.2-1.6-7.9.1-.3.1-.6-.1-.8-.2-.3-.4-.4-.7-.4-6.2 0-10.6 3.5-11.7 9.1-1.1-.1-2.1-1.1-2.3-2.3-.1-.3-.3-.6-.6-.7s-.6 0-.9.2c-2.7 2.3-3.9 5.8-3.4 9.3.4 2.7 1.9 4.9 4 6v.5c0 5.4 4.4 9.8 9.8 9.8s9.8-4.4 9.8-9.8c0-.1 0-.3 0-.4 1-.4 1.9-1 2.6-1.7 1.6-1.5 2.5-3.7 2.5-6zm-14.8 16.3c-4.4 0-8-3.6-8-8 0-.2 0-.5 0-.7 0-.1.1-.2 0-.4.5-3.9 3.9-6.9 8-6.9 4.4 0 8 3.6 8 8s-3.6 8-8 8zm9.5-10.3c-1-4.3-4.9-7.6-9.5-7.6s-8.4 3.1-9.5 7.4c-1.3-.9-2.3-2.5-2.6-4.5-.4-2.5.3-4.9 1.9-6.8.9 1.6 2.6 2.5 4.4 2.3.4 0 .7-.3.8-.7.7-4.8 4-7.9 8.8-8.3-1 3.2.1 6.7 2.6 8.9.1.1.3.2.4.2s.1 0 .2 0c1.1.1 2.2-.2 3.1-.9.5-.4.8-.8 1.1-1.3 1.1 1.6 1.7 3.4 1.8 5.4 0 1.8-.7 3.5-1.9 4.7-.5.5-1 .9-1.6 1.2z"/></svg>