<svg enable-background="new 0 0 32 32" viewBox="0 0 32 32" xmlns="http://www.w3.org/2000/svg"><path d="m15.3 21.1v-4.5c0-.4-.4-.8-.8-.8s-.8.4-.8.8v4.9c0 .2.1.5.3.6l3.7 2.9c.1.1.3.2.5.2s.5-.1.6-.3c.3-.3.2-.8-.1-1.1z"/><path d="m30.2 14.1c0-2.9-1.2-5.6-3.2-7.6-.2-.2-.5-.3-.8-.2s-.5.4-.5.7c-.1.7-.4 1.4-1 1.8-.5.4-1.1.6-1.8.5-2.2-2-2.8-5.3-1.6-8 .1-.2.1-.5-.1-.8-.1-.2-.4-.4-.7-.4-6.1 0-10.4 3.5-11.5 9.1-1.2-.1-2.2-1.1-2.5-2.3 0-.3-.2-.6-.5-.7s-.6 0-.8.2c-2.6 2.3-3.9 5.8-3.3 9.2.4 2.7 1.9 4.9 4 6v.6c0 5.3 4.3 9.7 9.7 9.7 5.3 0 9.7-4.3 9.7-9.7 0-.2 0-.3 0-.5 1-.4 1.9-1 2.6-1.7 1.5-1.6 2.4-3.7 2.3-5.9zm-14.6 16.2c-4.4 0-8.1-3.6-8.1-8.1 0-.2 0-.5 0-.7 0-.1.1-.2 0-.4.5-3.9 3.9-7 8-7 4.4 0 8.1 3.6 8.1 8.1 0 4.4-3.6 8.1-8 8.1zm9.4-10.2c-1-4.3-4.8-7.5-9.4-7.5-4.5 0-8.4 3.2-9.4 7.4-1.4-.9-2.4-2.6-2.7-4.5-.4-2.5.3-5 1.9-6.9.8 1.4 2.6 2.4 4.4 2.2.4 0 .7-.3.7-.7.7-4.8 4-7.9 8.9-8.3-.9 3.2.1 6.7 2.6 8.8.1.1.2.2.4.2h.2c1.1.1 2.2-.2 3.1-.9.5-.4.9-.8 1.2-1.4 1.2 1.6 1.8 3.5 1.8 5.5 0 1.8-.7 3.5-1.9 4.8-.6.5-1.2 1-1.8 1.3z"/></svg>
