<svg height="32" viewBox="0 0 32 32" width="32" xmlns="http://www.w3.org/2000/svg"><path d="m30.741 3.521-2.263-2.263c-.626-.623-1.49-1.008-2.443-1.008s-1.818.385-2.445 1.009l-20.415 20.415c-.076.078-.135.174-.171.28l-.002.005c-.003.009-.012.015-.014.024l-2.707 8.796c-.021.066-.033.142-.033.221 0 .414.336.75.75.75.079 0 .155-.012.226-.035l-.005.001 8.797-2.706c.009-.003.015-.011.024-.014.112-.037.207-.096.286-.172l20.415-20.415c.624-.626 1.01-1.49 1.01-2.444s-.386-1.818-1.01-2.444zm-4.707 7.473-5.029-5.029.969-.969 5.029 5.029zm-20.684 17.883-2.228-2.227.934-3.035.473.472c.136.136.323.22.53.22h2.633v2.634c0 .207.084.395.22.53l.473.473zm2.782-6.07h-2.762l-.603-.603 15.178-15.178 1.984 1.985zm1.664 4.426-.604-.604v-2.763l13.798-13.797 1.984 1.984zm19.884-19.884-1.616 1.616-5.029-5.029 1.616-1.616c.354-.353.843-.571 1.383-.571s1.029.218 1.383.571l2.262 2.262c.354.354.573.844.573 1.384s-.218 1.029-.572 1.383z"/></svg>