<svg height="32" viewBox="0 0 32 32" width="32" xmlns="http://www.w3.org/2000/svg"><path d="m4.044 19.423c-2.313 0-4.125-2.684-4.125-6.11s1.812-6.111 4.125-6.111 4.125 2.684 4.125 6.111-1.812 6.11-4.125 6.11zm0-10.722c-1.423 0-2.625 2.111-2.625 4.611s1.202 4.61 2.625 4.61 2.625-2.111 2.625-4.61-1.202-4.611-2.625-4.611zm7.598 2.563c-1.174-.059-2.186-.706-2.751-1.651l-.009-.015c-.703-1.075-1.133-2.385-1.165-3.793v-.008c-.125-3.15 1.452-5.684 3.591-5.769 1.221.007 2.286.667 2.865 1.649l.009.016c.703 1.075 1.133 2.385 1.164 3.793v.008c.008.127.012.274.012.423 0 1.267-.323 2.458-.891 3.496l.019-.038c-.513 1.046-1.525 1.777-2.718 1.885l-.013.001c-.038.002-.075.003-.113.003zm-.225-9.739-.049.001c-1.256.051-2.241 1.978-2.153 4.211.019 1.12.354 2.158.918 3.034l-.014-.023c.337.552.904.934 1.565 1.014l.01.001c.664-.116 1.209-.544 1.485-1.123l.005-.012c.424-.786.674-1.72.674-2.712 0-.128-.004-.255-.012-.381l.001.017c-.024-1.119-.357-2.156-.917-3.034l.014.024c-.319-.548-.87-.931-1.516-1.015l-.01-.001zm16.539 17.898c-2.314 0-4.125-2.684-4.125-6.11s1.811-6.111 4.125-6.111 4.125 2.684 4.125 6.111-1.811 6.11-4.125 6.11zm0-10.722c-1.423 0-2.625 2.111-2.625 4.611s1.202 4.61 2.625 4.61 2.625-2.111 2.625-4.61-1.202-4.611-2.625-4.611zm-7.598 2.563c-.037 0-.074-.001-.112-.003-1.205-.109-2.217-.84-2.721-1.866l-.009-.02c-.549-1-.872-2.191-.872-3.458 0-.149.004-.297.013-.444l-.001.02c.031-1.416.461-2.726 1.181-3.829l-.017.028c.589-.995 1.653-1.654 2.871-1.664h.002c2.139.085 3.716 2.618 3.591 5.768-.032 1.417-.462 2.727-1.182 3.83l.017-.028c-.574.96-1.585 1.607-2.752 1.666h-.008zm-2.205-5.712c-.007.109-.011.236-.011.364 0 .992.249 1.926.689 2.742l-.015-.031c.281.592.826 1.019 1.478 1.134l.012.002c.671-.081 1.238-.463 1.57-1.005l.005-.009c.551-.853.885-1.891.904-3.007v-.005c.088-2.231-.898-4.159-2.153-4.21l-.049-.001c-.656.085-1.207.468-1.521 1.007l-.005.01c-.546.854-.879 1.891-.903 3.004v.006zm-2.153 26.423c-4.799 0-9.964-1.9-9.964-6.073 0-2.43 1.507-4.023 2.836-5.43.786-.676 1.397-1.533 1.772-2.507l.014-.043c.549-2.74 2.24-5.668 5.342-5.668s4.793 2.928 5.342 5.668c.389 1.017 1 1.874 1.778 2.543l.008.007c1.329 1.406 2.836 3 2.836 5.43 0 4.173-5.165 6.073-9.964 6.073zm0-18.221c-2.763 0-3.661 3.416-3.871 4.463-.423 1.316-1.174 2.428-2.158 3.277l-.009.008c-1.192 1.262-2.426 2.566-2.426 4.399 0 3.002 4.258 4.573 8.464 4.573s8.464-1.571 8.464-4.573c0-1.833-1.233-3.138-2.426-4.399-.993-.857-1.744-1.969-2.153-3.234l-.014-.051c-.21-1.048-1.108-4.463-3.871-4.463z"/></svg>