<svg height="32" viewBox="0 0 32 32" width="32" xmlns="http://www.w3.org/2000/svg"><path d="m4.044 19.423c-2.313 0-4.125-2.684-4.125-6.11s1.812-6.111 4.125-6.111 4.125 2.684 4.125 6.111-1.812 6.11-4.125 6.11zm0-10.722c-1.423 0-2.625 2.111-2.625 4.611s1.202 4.61 2.625 4.61 2.625-2.111 2.625-4.61-1.202-4.611-2.625-4.611zm7.598 2.563c-1.174-.059-2.186-.706-2.751-1.651l-.009-.015c-.703-1.075-1.133-2.385-1.165-3.793v-.008c-.125-3.15 1.452-5.684 3.591-5.769 1.22.01 2.284.669 2.865 1.649l.009.016c.703 1.075 1.133 2.385 1.164 3.793v.008c.008.127.012.274.012.423 0 1.267-.323 2.458-.891 3.496l.019-.038c-.513 1.046-1.525 1.777-2.718 1.885l-.013.001c-.038.002-.075.003-.113.003zm-.225-9.739-.049.001c-1.256.051-2.241 1.978-2.153 4.211.019 1.12.354 2.158.918 3.034l-.014-.023c.337.552.904.934 1.565 1.014l.01.001c.664-.116 1.209-.544 1.485-1.123l.005-.012c.424-.786.674-1.72.674-2.712 0-.128-.004-.255-.012-.381l.001.017c-.024-1.119-.357-2.156-.917-3.034l.014.024c-.319-.548-.87-.931-1.516-1.015l-.01-.001zm20.664 11.788c0-3.427-1.812-6.111-4.125-6.111-.414 0-.75.336-.75.75s.336.75.75.75c1.423 0 2.625 2.111 2.625 4.611s-1.202 4.61-2.625 4.61-2.625-2.111-2.625-4.61c0-.005 0-.011 0-.017 0-.545.058-1.077.168-1.589l-.009.049c.012-.051.02-.11.02-.17 0-.414-.336-.75-.75-.75-.364 0-.667.259-.736.603l-.001.005c-.122.556-.192 1.195-.192 1.85v.02-.001c0 3.427 1.811 6.11 4.125 6.11s4.125-2.683 4.125-6.11zm-13.54-3.663c.226-.132.375-.373.375-.649 0-.138-.037-.267-.102-.379l.002.004c-.424-.791-.672-1.731-.672-2.728 0-.122.004-.242.011-.362l-.001.016c.024-1.119.357-2.156.917-3.034l-.014.024c.333-.556.902-.94 1.566-1.015l.01-.001c.903.036 1.742 1.135 2.04 2.671.067.351.372.613.737.613.414 0 .75-.336.75-.75 0-.052-.005-.103-.016-.153l.001.005c-.444-2.292-1.8-3.818-3.452-3.883-1.22.011-2.283.67-2.864 1.649l-.009.016c-.704 1.075-1.134 2.384-1.165 3.792v.008c-.008.127-.012.275-.012.424 0 1.267.324 2.459.893 3.497l-.019-.038c.132.226.373.375.649.375.138 0 .268-.037.379-.103l-.004.002zm3.159 21.348c2.75-1.069 4.264-2.879 4.264-5.097 0-2.43-1.507-4.023-2.836-5.43-.786-.676-1.397-1.533-1.772-2.507l-.015-.043c-.146-.726-.341-1.361-.592-1.968l.026.07c-.118-.27-.382-.455-.689-.455-.414 0-.75.336-.75.75 0 .097.019.191.052.276l-.002-.005c.192.46.36 1.005.475 1.569l.01.058c.423 1.316 1.174 2.428 2.158 3.277l.009.008c1.192 1.262 2.426 2.566 2.426 4.399 0 1.994-1.798 3.112-3.307 3.698-4.217 1.638-10.533.874-12.752-1.548-.137-.145-.331-.236-.546-.236-.414 0-.75.336-.75.75 0 .192.072.368.192.501l-.001-.001c1.817 1.984 5.264 2.91 8.668 2.91.054.001.118.001.181.001 1.992 0 3.9-.359 5.663-1.015l-.112.037zm-8.966-14.688c.429-1.117 1.287-1.987 2.367-2.422l.028-.01c.312-.096.535-.381.535-.719 0-.414-.336-.75-.75-.75-.077 0-.151.011-.22.033l.005-.001c-1.54.555-2.739 1.727-3.318 3.21l-.013.038c-.041.089-.065.194-.065.304 0 .414.336.75.75.75.299 0 .557-.175.678-.429l.002-.005zm-11.204 15.22 30-30c.125-.134.201-.313.201-.511 0-.414-.336-.75-.75-.75-.198 0-.378.077-.512.202l-30 30c-.147.137-.239.332-.239.549 0 .414.336.75.75.75.216 0 .411-.092.548-.238z"/></svg>