<svg height="32" viewBox="0 0 32 32" width="32" xmlns="http://www.w3.org/2000/svg"><path d="m8.169 13.313c0-3.427-1.812-6.111-4.125-6.111s-4.125 2.684-4.125 6.111 1.812 6.11 4.125 6.11 4.125-2.683 4.125-6.11zm-4.125 4.609c-1.423 0-2.625-2.111-2.625-4.61s1.202-4.611 2.625-4.611 2.625 2.111 2.625 4.611-1.202 4.61-2.625 4.61zm5.569-7.487c.133.124.313.201.511.201.414 0 .75-.336.75-.75 0-.229-.102-.433-.264-.571l-.001-.001c-.864-.923-1.395-2.168-1.395-3.536 0-.014 0-.029 0-.043v.002c-.088-2.232.897-4.16 2.153-4.211l.049-.001c.656.085 1.207.468 1.521 1.007l.005.01c.546.854.879 1.891.903 3.004v.006c.004.085.006.184.006.283 0 .506-.056.999-.163 1.472l.008-.045c-.01.045-.015.096-.015.149 0 .414.336.75.75.75.35 0 .644-.24.727-.564l.001-.005c.122-.525.191-1.128.191-1.747 0-.124-.003-.248-.008-.37l.001.017c-.031-1.416-.461-2.726-1.181-3.829l.017.028c-.588-.996-1.653-1.655-2.872-1.664h-.001c-2.139.085-3.716 2.618-3.591 5.769v.007c0 1.805.724 3.44 1.897 4.632l-.001-.001zm18.343-3.234c-2.314 0-4.125 2.684-4.125 6.111s1.811 6.11 4.125 6.11 4.125-2.684 4.125-6.11-1.811-6.111-4.125-6.111zm0 10.722c-1.423 0-2.625-2.111-2.625-4.61s1.202-4.611 2.625-4.611 2.625 2.111 2.625 4.611-1.202 4.61-2.625 4.61zm-10.221-9.764c.337-.078.585-.376.585-.732 0-.058-.007-.115-.019-.17l.001.005c-.098-.429-.154-.922-.154-1.428 0-.1.002-.199.006-.297v.014c.024-1.119.357-2.156.917-3.034l-.014.024c.319-.548.871-.931 1.516-1.015l.01-.001.049.001c1.256.051 2.241 1.979 2.153 4.211.001.044.002.096.002.149 0 1.462-.656 2.77-1.69 3.647l-.007.006c-.215.134-.357.37-.357.639 0 .414.336.75.75.75.146 0 .282-.042.397-.113l-.003.002c1.47-1.144 2.406-2.914 2.406-4.902 0-.041 0-.083-.001-.124v.006c.125-3.149-1.452-5.683-3.591-5.768-1.219.013-2.282.671-2.864 1.648l-.009.015c-.704 1.075-1.134 2.385-1.165 3.793v.008c-.005.105-.008.229-.008.353 0 .619.07 1.222.202 1.801l-.01-.054c.077.337.375.585.73.585.059 0 .117-.007.172-.02l-.005.001zm4.838 12.83c-.143.136-.233.328-.233.541 0 .193.073.369.194.502l-.001-.001c1.086.965 1.804 2.323 1.929 3.849l.001.021c0 3.002-4.258 4.573-8.464 4.573s-8.464-1.571-8.464-4.573c0-1.832 1.22-3.123 2.399-4.372.114-.131.184-.303.184-.492 0-.414-.336-.75-.75-.75-.204 0-.388.081-.523.213-1.252 1.324-2.809 2.973-2.809 5.401 0 4.173 5.165 6.073 9.964 6.073s9.964-1.9 9.964-6.073c-.106-1.936-.974-3.651-2.306-4.865l-.006-.005c-.139-.154-.339-.25-.561-.25-.201 0-.384.079-.52.207zm-13.132-4.948c0 3.581 2.903 6.484 6.484 6.484s6.484-2.903 6.484-6.484-2.903-6.484-6.484-6.484c-3.581 0-6.484 2.903-6.484 6.484zm6.494 3.959c-.376 0-.681-.305-.681-.681s.305-.681.681-.681.681.305.681.681c0 .376-.305.68-.681.68 0 0 0 0-.001 0zm.003-8.5c1.382 0 2.502 1.12 2.502 2.502 0 1.205-.852 2.211-1.986 2.449l-.016.003v.645c0 .276-.224.5-.5.5s-.5-.224-.5-.5v-1.095c0-.276.224-.5.5-.5.83 0 1.502-.672 1.502-1.502s-.672-1.502-1.502-1.502-1.502.672-1.502 1.502c0 .276-.224.5-.5.5s-.5-.224-.5-.5c.001-1.381 1.121-2.501 2.502-2.502z"/></svg>