<svg height="32" viewBox="0 0 25 32" width="25" xmlns="http://www.w3.org/2000/svg"><path d="m17.896 20.142c-.482-.461-1.137-.745-1.858-.745s-1.376.284-1.859.746l.001-.001-.328.328c-2.088-1.765-3.962-3.639-5.67-5.658l-.057-.07.328-.328c.475-.476.768-1.133.768-1.859s-.293-1.383-.768-1.859l-2.149-2.148c-.482-.461-1.137-.745-1.858-.745s-1.376.284-1.859.746l.001-.001-1.179 1.18c-.656.66-1.061 1.569-1.061 2.573 0 .748.225 1.443.61 2.021l-.008-.013c3.569 5.326 8.011 9.767 13.165 13.228l.171.108c.565.377 1.259.601 2.006.601 1.004 0 1.914-.405 2.574-1.062l1.18-1.179c.475-.476.768-1.133.768-1.858s-.293-1.382-.768-1.858zm1.297 5.012-1.181 1.179c-.441.439-1.049.71-1.72.71-.5 0-.965-.151-1.352-.409l.009.005c-5.191-3.478-9.519-7.806-12.891-12.83l-.105-.167c-.252-.378-.402-.843-.402-1.343 0-.671.271-1.279.709-1.721l1.179-1.179c.258-.257.613-.416 1.006-.416s.749.159 1.006.417l2.149 2.148c.257.258.416.614.416 1.007s-.159.749-.416 1.007l-.716.716c-.109.109-.177.26-.177.426 0 .145.051.279.137.383l-.001-.001c2.027 2.454 4.209 4.637 6.582 6.598l.082.065c.103.085.237.137.382.137.166 0 .317-.068.426-.177l.716-.716c.261-.25.616-.404 1.006-.404s.745.154 1.007.404l-.001-.001 2.149 2.148c.257.258.416.614.416 1.007s-.159.748-.416 1.006zm5.648-9.152c0 .333-.27.602-.602.602s-.602-.27-.602-.602c-.007-6.097-4.948-11.038-11.044-11.045h-.001c-.333 0-.602-.27-.602-.602s.27-.602.602-.602c6.762.008 12.242 5.487 12.25 12.249v.001zm-12.852-7.596c0-.333.27-.602.602-.602 4.526.005 8.193 3.672 8.198 8.197v.001c0 .333-.27.602-.602.602s-.602-.27-.602-.602c-.005-3.861-3.133-6.989-6.994-6.993h-.001c-.333 0-.602-.27-.602-.602zm0 4.051c0-.333.27-.602.602-.602 2.289.003 4.144 1.858 4.147 4.147 0 .333-.27.602-.602.602s-.602-.27-.602-.602c-.002-1.624-1.319-2.94-2.943-2.942-.333 0-.602-.27-.602-.602z"/></svg>