<svg height="32" viewBox="0 0 32 32" width="32" xmlns="http://www.w3.org/2000/svg"><path d="m22.857 21.304q0-.196-.036-.286-.054-.143-.688-.527t-1.58-.884l-.946-.518q-.089-.054-.339-.232t-.446-.268-.375-.089q-.321 0-.839.58t-1.018 1.17-.786.589q-.125 0-.295-.063t-.277-.116-.304-.17-.25-.152q-1.768-.982-3.045-2.259t-2.259-3.045q-.036-.054-.152-.25t-.17-.304-.116-.277-.063-.295q0-.232.366-.598t.804-.688.804-.705.366-.652q0-.179-.089-.375t-.268-.446-.232-.339q-.054-.107-.268-.509t-.446-.813-.473-.848-.446-.723-.295-.321-.286-.036q-.857 0-1.804.393-.821.375-1.429 1.688t-.607 2.33q0 .286.045.607t.089.545.161.589.179.527.223.589.196.536q1.071 2.929 3.866 5.723t5.723 3.866q.107.036.536.196t.589.223.527.179.589.161.545.089.607.045q1.018 0 2.33-.607t1.688-1.429q.393-.946.393-1.804zm4.572-13.875v17.143q0 2.125-1.509 3.634t-3.634 1.509h-17.143q-2.125 0-3.634-1.509t-1.509-3.634v-17.143q0-2.125 1.509-3.634t3.634-1.509h17.143q2.125 0 3.634 1.509t1.509 3.634z"/></svg>