<svg height="32" viewBox="0 0 32 32" width="32" xmlns="http://www.w3.org/2000/svg"><path d="m28.323 8.076h-2.066c-.056-.118-.111-.238-.168-.358-.739-1.584-1.659-3.555-3.563-3.555h-6.521c-1.447 0-2.192 1.028-3.546 2.896-.225.311-.471.649-.743 1.018h-3.439v-.555c-.051-1.139-.982-2.044-2.126-2.054h-1.232c-1.11.023-2.003.921-2.018 2.031v.001l-.018.633c-1.465.04-2.637 1.238-2.637 2.709 0 .082.004.162.011.242l-.001-.01v13.55c0 2.042 1.251 3.214 3.432 3.214h24.637c2.181 0 3.432-1.172 3.432-3.214v-13.55c0-1.367-.596-2.997-3.432-2.997zm-23.405-1.108h1.231c.318.009.579.244.627.55v.004.555h-2.392l.016-.555c.012-.289.233-.522.515-.553h.003zm25.337 17.655c0 1.201-.578 1.714-1.932 1.714h-24.637c-1.353 0-1.932-.513-1.932-1.714v-13.55c0-.758.144-1.497 1.858-1.497h8.479c.245 0 .462-.117.599-.298l.001-.002c.37-.493.693-.938.982-1.337 1.225-1.691 1.682-2.276 2.331-2.276h6.521c.948 0 1.586 1.367 2.203 2.689.13.276.257.55.387.809.125.248.378.415.67.415h.001 2.536c1.784 0 1.932.708 1.932 1.497zm-10.989-15.242c-4.376 0-7.924 3.548-7.924 7.924s3.548 7.924 7.924 7.924 7.924-3.548 7.924-7.924c-.005-4.374-3.55-7.919-7.923-7.924zm0 14.347c-3.548 0-6.424-2.876-6.424-6.424s2.876-6.424 6.424-6.424 6.424 2.876 6.424 6.424c-.004 3.546-2.878 6.42-6.424 6.424zm0-11.086c-2.575 0-4.663 2.088-4.663 4.663s2.088 4.663 4.663 4.663 4.663-2.088 4.663-4.663c-.003-2.574-2.089-4.66-4.663-4.663zm0 7.826c-1.747 0-3.163-1.416-3.163-3.163s1.416-3.163 3.163-3.163 3.163 1.416 3.163 3.163c-.002 1.746-1.417 3.161-3.163 3.163zm-13.696-9.784c-1.495 0-2.707 1.212-2.707 2.707s1.212 2.707 2.707 2.707 2.706-1.212 2.707-2.706c-.002-1.494-1.212-2.704-2.706-2.707zm0 3.914c-.666 0-1.207-.54-1.207-1.207s.54-1.207 1.207-1.207c.666 0 1.207.54 1.207 1.207v.001c-.001.666-.54 1.205-1.206 1.206z"/></svg>