<svg height="32" viewBox="0 0 32 32" width="32" xmlns="http://www.w3.org/2000/svg"><path d="m16 31.75h-.001c-.165 0-.317-.053-.441-.143l.002.002c-.491-.355-12.05-8.812-12.05-18.217 0-7.492 5.369-13.142 12.489-13.142s12.489 5.649 12.489 13.142c0 9.405-11.559 17.861-12.05 18.217-.122.088-.274.142-.439.142h-.001zm0-30c-6.265 0-10.989 5.005-10.989 11.642 0 7.664 8.89 15.034 10.989 16.667 2.098-1.634 10.989-9.011 10.989-16.667 0-6.637-4.725-11.642-10.989-11.642zm0 18.261c-4.016 0-7.271-3.256-7.271-7.271s3.256-7.271 7.271-7.271c4.016 0 7.271 3.256 7.271 7.271-.005 4.014-3.257 7.267-7.271 7.271zm0-13.043c-3.188 0-5.771 2.584-5.771 5.771s2.584 5.771 5.771 5.771c3.188 0 5.771-2.584 5.771-5.771-.004-3.186-2.586-5.768-5.771-5.771z"/></svg>