<svg height="32" viewBox="0 0 32 32" width="32" xmlns="http://www.w3.org/2000/svg"><path d="m16.75 0c-8.732 0-13.136 6.261-13.136 11.481 0 3.162 1.197 5.975 3.764 7.022.086.046.188.073.296.073.314 0 .575-.229.624-.529l.001-.004c.086-.322.287-1.136.376-1.476.041-.098.064-.213.064-.332 0-.278-.128-.527-.328-.691l-.002-.001c-.758-.909-1.218-2.09-1.218-3.378 0-.079.002-.158.005-.236v.011c0-.031-.001-.068-.001-.105 0-4.808 3.898-8.706 8.706-8.706.121 0 .242.002.361.007l-.017-.001c4.936 0 7.648 3.016 7.648 7.043 0 5.299-2.346 9.773-5.829 9.773-.043.002-.093.004-.144.004-1.571 0-2.844-1.273-2.844-2.844 0-.249.032-.49.092-.72l-.004.02c.553-2.33 1.624-4.841 1.624-6.522.012-.09.018-.194.018-.299 0-1.359-1.102-2.461-2.461-2.461-.013 0-.026 0-.039 0h.002c-1.966 0-3.545 2.033-3.545 4.758 0 .026-.001.058-.001.089 0 1.02.216 1.989.605 2.864l-.018-.045s-2.01 8.524-2.364 10.017c-.207 1.099-.326 2.362-.326 3.654 0 1.176.098 2.329.287 3.451l-.017-.121c.02.117.121.205.242.205.079 0 .15-.038.195-.096v-.001c1.392-1.712 2.518-3.709 3.276-5.88l.042-.138c.226-.819 1.292-5.053 1.292-5.053.962 1.392 2.55 2.293 4.347 2.293.05 0 .101-.001.151-.002h-.007c5.909 0 9.917-5.386 9.917-12.595 0-5.451-4.617-10.53-11.636-10.53z"/></svg>