<svg height="32" viewBox="0 0 32 32" width="32" xmlns="http://www.w3.org/2000/svg"><path d="m31.301 29.177c0 .414-.336.75-.75.75s-.75-.336-.75-.75c.002-.029.003-.062.003-.096 0-.354-.112-.683-.303-.951l.003.005c-.408-.486-1.222-.244-1.222 1.042-.001 3.679-4.885 3.676-4.884 0 0-1.771-1.884-1.768-1.884 0 .009.078.013.168.013.26 0 1.37-1.085 2.488-2.443 2.539h-.005-.004c-1.365-.05-2.453-1.169-2.453-2.541 0-.089.005-.177.014-.264l-.001.011c-.001-.889-.476-1.286-.946-1.286s-.943.396-.943 1.281c0 3.678-4.885 3.678-4.885 0 0-1.771-1.884-1.768-1.884 0 .009.08.014.174.014.268 0 1.377-1.088 2.499-2.451 2.555h-.005c-1.368-.056-2.456-1.178-2.456-2.555 0-.094.005-.188.015-.279l-.001.011c.003-.034.004-.074.004-.114 0-.348-.115-.668-.309-.926l.003.004c-.415-.488-1.272-.26-1.272 1.036 0 .414-.336.75-.75.75s-.75-.336-.75-.75c0-3.65 4.574-3.65 4.574 0 0 1.826 1.884 1.83 1.884 0-.01-.084-.016-.181-.016-.28 0-1.357 1.1-2.458 2.458-2.458s2.458 1.1 2.458 2.458c0 .099-.006.196-.017.292l.001-.012c0 1.799 1.885 1.799 1.885 0-.008-.074-.012-.16-.012-.247 0-1.372 1.09-2.49 2.451-2.535h.004c1.367.045 2.459 1.165 2.459 2.539 0 .087-.004.172-.013.256l.001-.011c-.002.027-.003.058-.003.09 0 .355.125.682.334.937l-.002-.003c.152.167.369.271.611.271h.001c.242-.001.46-.105.611-.272l.001-.001c.205-.252.329-.577.329-.931 0-.033-.001-.066-.003-.099v.004c-.01-.084-.016-.182-.016-.281 0-1.358 1.1-2.458 2.458-2.458s2.458 1.1 2.458 2.458c0 .099-.006.196-.017.292l.001-.012c0 1.797 1.884 1.801 1.884 0-.001-3.65 4.518-3.653 4.519 0zm.679-25.043v1.354c0 .414-.336.75-.75.75s-.75-.336-.75-.75v-1.354c0-1.455-1.179-2.634-2.634-2.634s-2.634 1.179-2.634 2.634v19.3c.535.649 1.572.312 1.572-1.026-.001-3.649 4.518-3.652 4.519 0 0 .414-.336.75-.75.75s-.75-.336-.75-.75c.002-.029.003-.062.003-.096 0-.354-.112-.683-.303-.951l.003.005c-.408-.485-1.222-.244-1.222 1.042-.001 3.032-3.313 3.556-4.479 1.591-.013-.022-.026-.048-.038-.075l-.002-.005c-.23-.422-.365-.924-.365-1.458 0-.019 0-.038 0-.057v.003c0-1.771-1.884-1.768-1.884 0 .002.037.003.08.003.123 0 .739-.276 1.414-.731 1.926l.003-.003c-.427.461-1.034.75-1.708.754h-.005c-1.365-.05-2.453-1.169-2.453-2.542 0-.089.005-.177.014-.264l-.001.011c-.001-.889-.476-1.286-.946-1.286s-.943.396-.943 1.281c0 3.678-4.885 3.678-4.885 0 0-1.771-1.884-1.768-1.884 0 .009.08.014.174.014.268 0 1.377-1.088 2.499-2.45 2.555h-.005c-1.368-.056-2.456-1.178-2.456-2.555 0-.094.005-.188.015-.279l-.001.011c.003-.034.004-.074.004-.114 0-.348-.115-.668-.309-.926l.003.004c-.415-.488-1.272-.261-1.272 1.036 0 .414-.336.75-.75.75s-.75-.336-.75-.75c0-3.65 4.574-3.65 4.574 0 0 1.826 1.884 1.83 1.884 0-.01-.084-.016-.181-.016-.28 0-1.357 1.1-2.458 2.458-2.458s2.458 1.1 2.458 2.458c0 .099-.006.196-.017.292l.001-.012c0 1.799 1.885 1.799 1.885 0-.002-.04-.003-.087-.003-.134 0-.851.383-1.612.986-2.121l.004-.003v-16.016c.012-2.275 1.858-4.114 4.134-4.114s4.123 1.839 4.134 4.113v1.356c0 .414-.336.75-.75.75s-.75-.336-.75-.75v-1.354c-.009-1.448-1.185-2.618-2.634-2.618s-2.625 1.17-2.634 2.617v3.989h7.976v-3.988c0-2.283 1.851-4.134 4.134-4.134s4.134 1.851 4.134 4.134zm-16.246 12.11h7.976v-2.561h-7.977zm0-6.622v2.561h7.976v-2.56zm7.977 10.404v-2.281h-7.977v1.887c1.348.069 2.414 1.179 2.414 2.537 0 .085-.004.17-.012.253l.001-.011c-.002.027-.003.059-.003.091 0 .356.125.682.334.937l-.002-.003c.152.166.369.271.611.271h.001c.242-.001.46-.106.611-.272l.001-.001c.205-.252.329-.577.329-.931 0-.034-.001-.067-.003-.1v.004c-.01-.083-.016-.18-.016-.278 0-1.355 1.098-2.453 2.453-2.453.465 0 .899.129 1.269.353l-.011-.006z"/></svg>