<svg height="32" viewBox="0 0 32 32" width="32" xmlns="http://www.w3.org/2000/svg"><path d="m27.087.647h-22.174c-.001 0-.002 0-.003 0-1.296 0-2.468.53-3.311 1.385l-.001.001c-.079.058-.145.129-.197.21l-.002.003c-.714.813-1.15 1.886-1.15 3.06v.004 16.956c.1 2.645 1.906 4.843 4.345 5.53l.042.01 14.557 3.422c.308.078.663.123 1.028.124h.001.042c.855 0 1.642-.294 2.265-.786l-.008.006c.861-.708 1.405-1.773 1.405-2.965 0-.043-.001-.086-.002-.129v.006-3.164h3.163c2.574-.003 4.66-2.089 4.663-4.663v-14.348c-.003-2.574-2.089-4.66-4.663-4.663zm-4.663 26.837c.004.052.007.113.007.174 0 1.224-.992 2.217-2.217 2.217-.242 0-.475-.039-.692-.11l.016.004-14.557-3.423c-1.816-.53-3.137-2.139-3.23-4.069v-.01-16.956c0-.001 0-.003 0-.004 0-.682.217-1.314.586-1.83l-.006.01 16.865 4.21c1.816.562 3.131 2.183 3.228 4.125v.011zm7.826-7.826c-.002 1.746-1.417 3.161-3.163 3.163h-3.163v-10.239h1.858c.414 0 .75-.336.75-.75s-.336-.75-.75-.75h-1.93c-.401-2.321-2.067-4.169-4.249-4.83l-.043-.011-.724-.181h6.946c.414 0 .75-.336.75-.75s-.336-.75-.75-.75h-12.955l-8.958-2.236c.311-.112.669-.177 1.042-.177h.002 22.174c1.746.002 3.161 1.417 3.163 3.163zm-12.945-4.663c-1.855 0-3.359 1.504-3.359 3.359s1.504 3.359 3.359 3.359 3.359-1.504 3.359-3.359c0 0 0 0 0-.001-.002-1.854-1.505-3.356-3.358-3.358zm0 5.218c-1.027 0-1.859-.832-1.859-1.859s.832-1.859 1.859-1.859c1.026 0 1.859.832 1.859 1.858-.001 1.026-.832 1.858-1.858 1.859z"/></svg>