<svg height="32" viewBox="0 0 30 32" width="30" xmlns="http://www.w3.org/2000/svg"><path d="m26.409 9.839h-23.068c-1.725.002-3.124 1.4-3.126 3.126v7.285c.002 1.725 1.4 3.124 3.126 3.126h2.944v5.372c0 .386.313.698.698.698h15.783c.386 0 .698-.313.698-.698v-5.372h2.944c1.725-.002 3.124-1.4 3.126-3.126v-7.285c-.002-1.725-1.4-3.124-3.126-3.126zm-4.34 18.21h-14.387v-8.316h14.387zm6.07-7.8c-.001.955-.775 1.728-1.73 1.73h-2.944v-2.944c0-.386-.313-.698-.698-.698h-15.783c-.386 0-.698.313-.698.698v2.944h-2.944c-.955-.001-1.728-.775-1.73-1.73v-7.284c.001-.955.775-1.728 1.73-1.73h23.068c.955.001 1.728.775 1.73 1.73zm-21.156-11.442c.386 0 .698-.313.698-.698v-4.158h10.745v2.944c0 .386.313.698.698.698h2.944v.515c0 .386.313.698.698.698s.698-.313.698-.698v-1.213c-.001-.193-.079-.367-.205-.493l-3.642-3.643c-.126-.126-.301-.204-.493-.205h-12.141c-.386 0-.698.313-.698.698v4.856c0 .386.313.698.698.698zm12.839-3.869 1.259 1.259h-1.259zm-15.266 7.329c-1.056 0-1.912.856-1.912 1.912s.856 1.912 1.912 1.912 1.912-.856 1.912-1.912c-.001-1.056-.857-1.911-1.912-1.912zm0 2.428c-.285 0-.515-.231-.515-.516s.231-.516.516-.516.516.231.516.516c-.001.285-.231.515-.516.515zm16.48 6.768c0 .386-.313.698-.698.698h-10.926c-.386 0-.698-.313-.698-.698s.313-.698.698-.698h10.926c.386 0 .698.313.698.698zm0 2.429c0 .386-.313.698-.698.698h-10.926c-.386 0-.698-.313-.698-.698s.313-.698.698-.698h10.926c.386 0 .698.313.698.698zm0 2.428c0 .386-.313.698-.698.698h-10.926c-.386 0-.698-.313-.698-.698s.313-.698.698-.698h10.926c.386 0 .698.313.698.698z"/></svg>