<svg height="32" viewBox="0 0 32 32" width="32" xmlns="http://www.w3.org/2000/svg"><path d="m28.16 26.393c2.392-2.796 3.84-6.424 3.84-10.393 0-8.837-7.164-16-15.999-16-3.969 0-7.597 1.448-10.393 3.84l-.035-.035-.801.801c-.055.054-.11.109-.164.164l-.803.802.036.035c-2.392 2.796-3.84 6.424-3.84 10.393 0 8.837 7.164 16 16.001 16 3.968 0 7.596-1.448 10.392-3.84l.035.035.798-.798c.057-.056.114-.113.17-.17l.799-.799-.035-.035zm-12.159-23.893c7.455 0 13.5 6.044 13.5 13.5 0 3.278-1.169 6.282-3.112 8.62l-19.009-19.009c2.339-1.943 5.343-3.112 8.621-3.112zm0 27c-7.456 0-13.5-6.044-13.5-13.5 0-3.278 1.169-6.282 3.112-8.62l19.009 19.009c-2.339 1.943-5.343 3.112-8.62 3.112z"/></svg>