<svg height="32" viewBox="0 0 32 32" width="32" xmlns="http://www.w3.org/2000/svg"><path d="m16 .25c-8.698 0-15.75 7.051-15.75 15.75s7.051 15.75 15.75 15.75c8.698 0 15.75-7.052 15.75-15.75-.01-8.694-7.056-15.74-15.749-15.75zm0 30c-7.87 0-14.25-6.38-14.25-14.25s6.38-14.25 14.25-14.25 14.25 6.38 14.25 14.25c-.009 7.866-6.384 14.241-14.249 14.25zm5.162-18.662c-.003 2.585-1.903 4.725-4.383 5.104l-.029.004v3.717c0 .414-.336.75-.75.75s-.75-.336-.75-.75v-4.412c0-.414.336-.75.75-.75 2.022 0 3.662-1.639 3.662-3.662s-1.639-3.662-3.662-3.662c-2.022 0-3.661 1.639-3.662 3.661 0 .414-.336.75-.75.75s-.75-.336-.75-.75c0-2.851 2.311-5.162 5.162-5.162s5.162 2.311 5.162 5.162zm-4.28 12.353c0 .487-.395.882-.882.882s-.882-.395-.882-.882.395-.882.882-.882h.001c.487 0 .882.395.882.882v.001z"/></svg>