<svg height="32" viewBox="0 0 32 32" width="32" xmlns="http://www.w3.org/2000/svg"><path d="m29.83 19.152c-.253.279-.356.665-.277 1.033l.386 1.792c.289 1.348-.481 2.682-1.792 3.104l-1.745.563c-.358.115-.642.398-.757.757l-.563 1.745c-.422 1.311-1.757 2.081-3.104 1.792l-1.794-.386c-.364-.079-.752.023-1.031.276l-1.361 1.231c-.511.461-1.151.692-1.792.692s-1.281-.23-1.792-.692l-1.36-1.23c-.279-.254-.667-.358-1.032-.277l-1.793.386c-1.348.294-2.682-.482-3.104-1.792l-.563-1.745c-.115-.358-.398-.642-.756-.757l-1.745-.563c-1.311-.423-2.082-1.757-1.792-3.104l.385-1.793c.079-.368-.024-.754-.276-1.033l-1.23-1.36c-.925-1.021-.925-2.563 0-3.584l1.23-1.36c.252-.279.355-.665.276-1.033l-.385-1.793c-.289-1.347.481-2.681 1.792-3.104l1.746-.563c.357-.115.64-.398.755-.756l.563-1.746c.422-1.311 1.757-2.082 3.104-1.792l1.793.386c.366.078.753-.024 1.032-.276l1.361-1.231c1.021-.922 2.563-.924 3.584 0l1.36 1.23c.28.253.663.356 1.033.277l1.792-.386c1.344-.291 2.683.481 3.104 1.792l.563 1.745c.115.358.398.642.757.757l1.745.563c1.311.423 2.081 1.757 1.792 3.104l-.386 1.794c-.079.367.024.753.276 1.031l1.231 1.361c.923 1.021.923 2.563 0 3.584l-1.23 1.36z"/></svg>