<svg height="32" viewBox="0 0 32 32" width="32" xmlns="http://www.w3.org/2000/svg"><path d="m29.769 24.435c-.04.243-.192.443-.401.549l-.004.002c-2.79 1.395-4.977 2.558-6.733 3.492-4.251 2.261-6.211 3.283-8.445 3.283-1.831 0-3.844-.686-7.455-1.94-1.146-.397-2.462-.855-3.996-1.365-.301-.102-.513-.382-.513-.712 0-.414.336-.75.75-.75.085 0 .167.014.243.04l-.005-.002c1.54.514 2.862.973 4.013 1.372 7.474 2.594 7.474 2.595 14.704-1.25 1.55-.824 3.434-1.826 5.772-3.01-.457-.39-1.054-.628-1.707-.628-.312 0-.612.054-.89.154l.018-.006-5.826 1.934c-.439.515-1.088.84-1.813.84-.039 0-.078-.001-.116-.003h.005-7.543c-.414 0-.75-.336-.75-.75s.336-.75.75-.75h7.543c.656 0 .889-.335.889-.621s-.233-.621-.889-.621h-4.114c-.207 0-.395-.084-.531-.22-1.438-1.484-3.421-2.433-5.625-2.523l-.016-.001h-4.114c-.414 0-.75-.336-.75-.75s.336-.75.75-.75h4.114c2.526.08 4.796 1.111 6.478 2.745l-.002-.002h3.81c.054-.005.117-.007.18-.007 1.04 0 1.913.714 2.155 1.679l.003.015 4.968-1.649c1.845-.528 3.252-.077 4.881 1.553.136.135.22.323.22.53 0 .043-.004.085-.01.125l.001-.004zm-13.834-19.321c0-2.686 2.178-4.864 4.864-4.864s4.864 2.178 4.864 4.864-2.178 4.864-4.864 4.864c-2.685-.003-4.862-2.179-4.864-4.864zm1.501 0c0 1.858 1.506 3.364 3.364 3.364s3.364-1.506 3.364-3.364-1.506-3.364-3.364-3.364c-1.857.002-3.363 1.507-3.364 3.364zm-8.357 9.6c0-2.686 2.178-4.864 4.864-4.864s4.864 2.178 4.864 4.864-2.178 4.864-4.864 4.864c-2.686-.003-4.862-2.18-4.864-4.865zm1.5 0c0 1.858 1.506 3.365 3.364 3.365s3.364-1.506 3.364-3.364-1.506-3.364-3.364-3.364c-1.857.002-3.362 1.507-3.364 3.364zm3.364 2.122c.414 0 .75-.336.75-.75v-2.744c0-.414-.336-.75-.75-.75s-.75.336-.75.75v2.743c0 .414.336.75.75.75zm6.857-9.6c.414 0 .75-.336.75-.75v-2.743c0-.414-.336-.75-.75-.75s-.75.336-.75.75v2.742c0 .414.336.75.75.75z"/></svg>