<svg height="32" viewBox="0 0 32 32" width="32" xmlns="http://www.w3.org/2000/svg"><path d="m9.883 6.994s0 0-.001 0c-1.724 0-3.122-1.398-3.122-3.122s1.398-3.122 3.122-3.122 3.122 1.398 3.122 3.122v.001c-.002 1.723-1.398 3.119-3.121 3.121zm0-4.743s0 0-.001 0c-.896 0-1.622.726-1.622 1.622s.726 1.622 1.622 1.622c.895 0 1.621-.726 1.622-1.621-.001-.895-.726-1.621-1.621-1.622zm19.096 29.426c.733-.372 1.226-1.119 1.226-1.983 0-.436-.126-.842-.343-1.185l.005.009-5.352-8.563c-.102-.163-.261-.281-.449-.329l-.005-.001-9.363-2.341v-4.38c0-2.471-2.004-4.475-4.475-4.475-.084 0-.167.002-.25.007l.011-.001c-2.383.216-4.236 2.204-4.236 4.624v.057-.003 10.967c0 .414.336.75.75.75s.75-.336.75-.75v-10.967c0-.021-.001-.046-.001-.071 0-1.617 1.227-2.946 2.801-3.109l.013-.001c.048-.003.104-.004.16-.004 1.643 0 2.975 1.332 2.976 2.975v4.966c0 .35.239.643.563.726l.005.001 9.638 2.409 5.191 8.307c.068.108.109.239.109.38 0 .396-.321.717-.717.717-.221 0-.419-.1-.55-.257l-.001-.001-5.464-6.556c-.139-.165-.345-.27-.576-.27h-7.155c-.004 0-.008 0-.012 0-1.453 0-2.711-.832-3.324-2.046l-.01-.021c-.124-.254-.38-.427-.677-.427-.414 0-.75.336-.75.75 0 .127.031.246.087.351l-.002-.004c.871 1.731 2.634 2.898 4.67 2.898h.019 6.802l5.239 6.285c.408.491 1.018.801 1.701.801.362 0 .704-.087 1.006-.242l-.012.006zm-8.304-3.875c0-.414-.336-.75-.75-.75h-17.38c-.414 0-.75.336-.75.75s.336.75.75.75h17.38c.414 0 .75-.336.75-.75zm.663-12.483c.136-.136.219-.323.219-.53s-.084-.394-.219-.53c-.757-.759-1.225-1.806-1.225-2.962s.468-2.204 1.225-2.963c1.03-1.029 1.667-2.451 1.667-4.022s-.637-2.993-1.667-4.022c-.134-.126-.315-.204-.514-.204-.414 0-.75.336-.75.75 0 .199.077.38.204.514.758.758 1.227 1.805 1.227 2.962s-.469 2.204-1.227 2.962c-1.028 1.03-1.663 2.452-1.663 4.023s.636 2.993 1.663 4.023c.136.136.323.22.53.22s.395-.084.53-.22zm4.966 2.483c.136-.136.219-.323.219-.53s-.084-.394-.219-.53c-.758-.758-1.226-1.805-1.226-2.962s.469-2.204 1.226-2.962c1.03-1.029 1.667-2.451 1.667-4.022s-.637-2.993-1.667-4.022c-.135-.131-.319-.212-.523-.212-.414 0-.75.336-.75.75 0 .203.081.388.212.523.758.758 1.227 1.805 1.227 2.962s-.469 2.204-1.227 2.962c-1.028 1.03-1.663 2.452-1.663 4.022s.636 2.992 1.663 4.023c.136.136.323.22.53.22s.395-.084.53-.22z"/></svg>