<svg height="32" viewBox="0 0 30 32" width="30" xmlns="http://www.w3.org/2000/svg"><path d="m29.219 29.368-10.76-10.76c1.587-1.807 2.555-4.192 2.555-6.803 0-5.707-4.627-10.334-10.334-10.334s-10.334 4.627-10.334 10.334 4.627 10.334 10.334 10.334c2.611 0 4.995-.968 6.814-2.565l-.012.01 10.76 10.76c.123.115.289.185.471.185.381 0 .691-.309.691-.691 0-.182-.07-.348-.186-.471zm-18.503-8.61c-4.925 0-8.917-3.992-8.917-8.917s3.992-8.917 8.917-8.917 8.917 3.992 8.917 8.917c-.006 4.923-3.995 8.912-8.917 8.917h-.001z"/></svg>