<svg width="24" height="24" viewBox="0 0 24 24" fill="none" xmlns="http://www.w3.org/2000/svg">
    <path fill-rule="evenodd" clip-rule="evenodd" d="M11 3.5C6.85786 3.5 3.5 6.85786 3.5 11C3.5 15.1421 6.85786 18.5 11 18.5C13.0368 18.5 14.8839 17.6881 16.2354 16.3703C16.253 16.3443 16.2734 16.3195 16.2964 16.2964C16.3195 16.2734 16.3443 16.253 16.3703 16.2354C17.6881 14.8839 18.5 13.0368 18.5 11C18.5 6.85786 15.1421 3.5 11 3.5ZM17.3536 16.6465C18.6889 15.1451 19.5 13.1673 19.5 11C19.5 6.30558 15.6944 2.5 11 2.5C6.30558 2.5 2.5 6.30558 2.5 11C2.5 15.6944 6.30558 19.5 11 19.5C13.1673 19.5 15.1451 18.6889 16.6465 17.3536L20.6464 21.3536C20.8417 21.5488 21.1583 21.5488 21.3536 21.3536C21.5488 21.1583 21.5488 20.8417 21.3536 20.6464L17.3536 16.6465Z" fill="#212121"/>
</svg>
