<?xml version="1.0" encoding="UTF-8"?>
<svg width="14px" height="14px" viewBox="0 0 14 14" version="1.1" xmlns="http://www.w3.org/2000/svg" xmlns:xlink="http://www.w3.org/1999/xlink">
    <!-- Generator: Sketch 56.3 (81716) - https://sketch.com -->
    <title>streamline-icon-search-1@24x24</title>
    <desc>Created with Sketch.</desc>
    <g id="Tablet" stroke="none" stroke-width="1" fill="none" fill-rule="evenodd">
        <g id="streamline-icon-search-1@24x24" fill="#212121" fill-rule="nonzero">
            <path d="M13.5107309,11.9618602 L10.9607533,9.41188258 C12.687821,6.82622178 11.9922728,3.32981548 9.40661199,1.60274778 C6.82095119,-0.124319925 3.3245449,0.571228321 1.59747719,3.15688912 C-0.129590513,5.74254993 0.565957733,9.23895622 3.15161854,10.9660239 C5.0455739,12.2314057 7.51485252,12.2308567 9.40825891,10.964926 L11.9582365,13.5143546 C12.3902779,13.9354166 13.0786895,13.9354166 13.5107309,13.5143546 C13.9460662,13.0927437 13.969672,12.4098218 13.5475121,11.9744865 C13.5392775,11.965703 13.5310429,11.9574684 13.5107309,11.9618602 Z M6.28405602,2.30762856 C8.48214219,2.30762856 10.2641071,4.08959352 10.2641071,6.28767969 C10.2641071,8.48576586 8.48214219,10.2677308 6.28405602,10.2677308 C4.08596985,10.2677308 2.30400489,8.48576586 2.30400489,6.28767969 C2.30620078,4.09069147 4.08706779,2.30982445 6.28405602,2.30762856 Z" id="Shape"></path>
        </g>
    </g>
</svg>