<svg height="32" viewBox="0 0 32 32" width="32" xmlns="http://www.w3.org/2000/svg"><path d="m25.714 19.869c-.005 0-.01 0-.015 0-2.053 0-3.863 1.044-4.927 2.629l-.013.021-8.981-4.49c.215-.588.34-1.267.34-1.976s-.125-1.387-.353-2.017l.013.041 8.981-4.49c1.098 1.635 2.941 2.696 5.031 2.696 3.337 0 6.041-2.705 6.041-6.041s-2.705-6.041-6.041-6.041c-3.337 0-6.041 2.705-6.041 6.041 0 .718.125 1.406.355 2.045l-.013-.042-8.989 4.494c-1.086-1.609-2.902-2.654-4.963-2.654-3.296 0-5.968 2.672-5.968 5.968s2.672 5.968 5.968 5.968c2.061 0 3.877-1.044 4.95-2.633l.013-.021 8.987 4.493c-.213.588-.336 1.266-.336 1.973 0 3.295 2.671 5.965 5.965 5.965s5.965-2.671 5.965-5.965c0-3.295-2.671-5.965-5.965-5.965-.001 0-.002 0-.002 0zm0-18.066h.004c2.467 0 4.467 2 4.467 4.467s-2 4.467-4.467 4.467c-1.739 0-3.247-.994-3.985-2.445l-.012-.025c-.299-.583-.475-1.272-.475-2.002 0-2.464 1.997-4.461 4.461-4.461h.006zm-19.564 18.718c-.002 0-.005 0-.007 0-2.467 0-4.468-2-4.468-4.468s2-4.468 4.468-4.468c1.74 0 3.248.995 3.986 2.447l.012.025h.001v.001c.3.58.476 1.267.476 1.994s-.176 1.415-.488 2.02l.012-.025c-.742 1.477-2.245 2.473-3.981 2.473-.003 0-.007 0-.01 0h.001zm19.564 9.782c-2.465-.003-4.463-2.002-4.463-4.468 0-.727.174-1.414.482-2.021l-.012.025h-.001c.75-1.476 2.256-2.469 3.995-2.469 2.467 0 4.466 2 4.466 4.466s-2 4.466-4.466 4.466c-.001 0-.001 0-.002 0z"/></svg>