<svg fill="none" height="20" viewBox="0 0 15 20" width="15" xmlns="http://www.w3.org/2000/svg"><path clip-rule="evenodd" d="m6.78854.122039c.03995-.0399488.08599-.0700898.13514-.0904231l.45412.0904231.00033.000332 3.74967 3.749669c.1627.16272.1627.42654 0 .58925-.1627.16272-.4265.16272-.5893 0l-3.03866-3.0387v9.82741c0 .2301-.18655.4167-.41667.4167s-.41667-.1866-.41667-.4167v-9.82741l-3.0387 3.0387c-.16272.16272-.42654.16272-.58926 0-.16272-.16271-.16272-.42653 0-.58925zm.13514-.0904231.45235.0886611c-.07526-.0743658-.1787-.120277-.29286-.120277-.0565 0-.11036.0112439-.15949.0316159zm-6.507013 6.6351341c-.230119 0-.416667.18655-.416667.41666v12.49999c0 .2301.186548.4167.416667.4167h13.333333c.2301 0 .4167-.1866.4167-.4167v-12.49999c0-.23011-.1866-.41666-.4167-.41666h-4.16667c-.23011 0-.41666.18655-.41666.41666 0 .23012.18655.41667.41666.41667h3.74997v11.66662h-12.499967v-11.66662h3.749997c.23012 0 .41667-.18655.41667-.41667 0-.23011-.18655-.41666-.41667-.41666z" fill="#212121" fill-rule="evenodd"/></svg>