<svg height="32" viewBox="0 0 32 32" width="32" xmlns="http://www.w3.org/2000/svg"><path d="m31 13.294h-.703l-1.063-4.786c-.851-3.815-4.087-6.667-8.031-6.926l-.026-.001c-.3-.782-1.044-1.328-1.916-1.331h-6.522c-.873.002-1.617.549-1.912 1.318l-.005.014c-3.954.301-7.169 3.133-8.045 6.866l-.012.061-1.063 4.786h-.703c-.414 0-.75.336-.75.75v2.608c0 .414.336.75.75.75h.678l2.496 13.732c.066.353.371.616.738.616h22.174c.367 0 .672-.264.738-.612l.001-.005 2.496-13.732h.678c.414 0 .75-.336.75-.75v-2.608c0-.414-.336-.75-.75-.75zm-29.25 2.608v-1.108h28.5v1.108zm10.989-14.152h6.521c.306 0 .554.248.554.554s-.248.554-.554.554h-6.521c-.306 0-.554-.248-.554-.554s.248-.554.554-.554zm-8.508 7.084c.731-3.125 3.36-5.465 6.58-5.751l.028-.002c.315.755 1.046 1.276 1.9 1.277h6.522c.845-.001 1.571-.511 1.887-1.24l.005-.013c3.262.242 5.912 2.591 6.608 5.68l.009.049.991 4.46h-25.522zm22.229 21.416h-20.921l-2.336-12.848h25.594zm-7.949-3.163v-7.826c0-.414.336-.75.75-.75s.75.336.75.75v7.826c0 .414-.336.75-.75.75s-.75-.336-.75-.75zm5.217 0v-7.826c0-.414.336-.75.75-.75s.75.336.75.75v7.826c0 .414-.336.75-.75.75s-.75-.336-.75-.75zm-11.739 0v-7.826c0-.414.336-.75.75-.75s.75.336.75.75v7.826c0 .414-.336.75-.75.75s-.75-.336-.75-.75zm-5.218 0v-7.826c0-.414.336-.75.75-.75s.75.336.75.75v7.826c0 .414-.336.75-.75.75s-.75-.336-.75-.75z"/></svg>