<svg height="32" viewBox="0 0 32 32" width="32" xmlns="http://www.w3.org/2000/svg"><path d="m29.8 29.1c-.3-.3-.8-.2-1.1.1-.9 1.1-2.4 1.5-3.8 1.1l-7.8-2.8 3.9-7.7c.1-.2.1-.4 0-.6l-2.3-4.3 5.1 2.1c.3.1.6.2.9.2.8 0 1.6-.4 2-1.2.224-.5.269-.978.169-1.578-.188-.732-.5-1.1-1.1-1.5l-4.2-2.5-.369-4.322c.9.3 1.9.1 2.7-.5 1.4-1 1.599-2.974.522-4.252-1.015-1.204-2.904-1.534-4.218-.603-.8.6-1.205 1.297-1.304 2.455-1.6-.4-3.4 0-4.7 1.3l-4.5 5-.1.1-4.582-1.923.249-.698c.2-.4.007-.841-.418-1.008-.374-.129-.832.006-.932.406l-.3.7-.818-.277c-.5-.2-.8 0-1 .4s0 .8.4 1l.8.3-.3.8c-.2.4 0 .8.4 1 .5.2.849-.03 1-.3l.3-.9 4.6 1.9c-.4 1.4 0 2.7 1 4l5 5.4-2.3 5.5-10.1-3.6c-.4-.1-.8.1-1 .5-.1.4.1.8.5 1l22.4 7.9c.5.2 1.1.3 1.6.3 1.5 0 2.9-.6 3.8-1.8.2-.4.2-.8-.1-1.1zm-8.8-27.1c.7-.5 1.7-.4 2.3.3.5.7.4 1.7-.3 2.3-.7.5-1.7.4-2.3-.3-.5-.8-.4-1.8.3-2.3zm-5.7 3.7c1.1-1.2 3-1.4 4.2-.4l.7 5.6c0 .2.2.5.4.6l4.5 2.7c.2.1.349.282.4.5.048.202 0 .5-.1.7-.2.4-.7.6-1.1.4l-13.3-5.5zm1.2 14.6c.1-.2.1-.4-.1-.6l-5.2-5.7c-.6-.7-.8-1.7-.7-2.5l6 2.5 3.1 5.5-3.8 7.5-1.7-.6z"/></svg>