<svg height="32" viewBox="0 0 32 32" width="32" xmlns="http://www.w3.org/2000/svg"><path d="m1.391 6.438h10.463c.364 1.967 2.066 3.438 4.112 3.438s3.748-1.47 4.108-3.412l.004-.026h10.533c.414 0 .75-.336.75-.75s-.336-.75-.75-.75h-10.533c-.364-1.967-2.066-3.438-4.112-3.438s-3.748 1.47-4.108 3.412l-.004.026h-10.463c-.414 0-.75.336-.75.75s.336.75.75.75zm14.574-3.438c1.479.002 2.678 1.198 2.686 2.675v.001l-.002.011.002.011c-.007 1.479-1.207 2.675-2.687 2.675-1.484 0-2.687-1.203-2.687-2.687s1.203-2.687 2.687-2.687h.001zm14.644 12.25h-17.408c-.364-1.967-2.066-3.438-4.112-3.438s-3.748 1.47-4.108 3.412l-.004.026h-3.588c-.414 0-.75.336-.75.75s.336.75.75.75h3.587c.364 1.967 2.066 3.438 4.112 3.438s3.748-1.47 4.108-3.412l.004-.026h17.408c.414 0 .75-.336.75-.75s-.336-.75-.75-.75zm-21.519 3.438c-.001 0-.001 0-.002 0-1.484 0-2.688-1.203-2.688-2.688s1.203-2.688 2.688-2.688c1.476 0 2.675 1.19 2.687 2.664v.001c0 .008-.005.015-.005.023s.004.015.005.023c-.014 1.473-1.21 2.663-2.685 2.665zm21.519 6.875h-13.97c-.364-1.967-2.066-3.438-4.112-3.438s-3.748 1.47-4.108 3.412l-.004.026h-7.025c-.414 0-.75.336-.75.75s.336.75.75.75h7.025c.364 1.967 2.066 3.438 4.112 3.438s3.748-1.47 4.108-3.412l.004-.026h13.97c.414 0 .75-.336.75-.75s-.336-.75-.75-.75zm-18.082 3.437c-.001 0-.001 0-.002 0-1.484 0-2.688-1.203-2.688-2.688s1.203-2.688 2.688-2.688c1.476 0 2.675 1.19 2.687 2.664v.001c0 .008-.005.015-.005.023s.004.015.005.023c-.014 1.473-1.21 2.663-2.685 2.665z"/></svg>