<svg height="32" viewBox="0 0 32 32" width="32" xmlns="http://www.w3.org/2000/svg"><path d="m4.728 14.534h7.514c.414 0 .75.336.75.75s-.336.75-.75.75h-6.764v3.805h1.869c.414 0 .75.336.75.75s-.336.75-.75.75h-2.619c-.414 0-.75-.336-.75-.75v-5.305c0-.414.336-.75.75-.75zm27.272.75v5.305c0 .414-.336.75-.75.75h-14.889c-.414 0-.75-.336-.75-.75s.336-.75.75-.75h7.508v-3.805h-2.742c-.414 0-.75-.336-.75-.75s.336-.75.75-.75h10.123c.414 0 .75.336.75.75zm-1.5.75h-5.131v3.805h5.131zm-28.424-1.5c-.414 0-.75.336-.75.75v5.305c0 .414.336.75.75.75s.75-.336.75-.75v-5.305c0-.414-.336-.75-.75-.75zm-.576-3.228v-2.652c.002-1.782 1.446-3.225 3.228-3.228 2.61-.003 4.726-2.118 4.729-4.728 0-.414-.336-.75-.75-.75s-.75.336-.75.75c-.002 1.782-1.446 3.226-3.228 3.228-2.61.003-4.725 2.118-4.728 4.727v2.653c0 .414.336.75.75.75s.75-.336.75-.75zm1.152 0c0 .414.336.75.75.75s.75-.336.75-.75c.002-1.782 1.446-3.226 3.227-3.229 2.61-.003 4.725-2.117 4.729-4.727 0-.414-.336-.75-.75-.75s-.75.336-.75.75c-.003 1.782-1.447 3.225-3.229 3.227-2.61.003-4.725 2.119-4.728 4.728zm28.878-10.836c-.136-.136-.323-.219-.53-.219s-.394.084-.53.219l-30 30c-.147.137-.239.332-.239.549 0 .414.336.75.75.75.216 0 .411-.092.548-.238l30-30c.136-.136.219-.323.219-.53s-.084-.394-.219-.53z"/></svg>