<svg height="32" viewBox="0 0 32 32" width="32" xmlns="http://www.w3.org/2000/svg"><path d="m31.25 19.891h-26.522c-.414 0-.75.336-.75.75v5.305c0 .414.336.75.75.75h26.522c.414 0 .75-.336.75-.75v-5.305c0-.414-.336-.75-.75-.75zm-25.772 1.5h18.392v3.805h-18.392zm25.022 3.805h-5.13v-3.805h5.13zm-27.674-4.555v5.305c0 .414-.336.75-.75.75s-.75-.336-.75-.75v-5.305c0-.414.336-.75.75-.75s.75.336.75.75zm-1.326-3.978c0 .414-.336.75-.75.75s-.75-.336-.75-.75v-2.652c.003-2.61 2.118-4.724 4.728-4.728 1.782-.002 3.226-1.446 3.229-3.228 0-.414.336-.75.75-.75s.75.336.75.75c-.003 2.61-2.118 4.726-4.728 4.728-1.782.002-3.226 1.446-3.228 3.227zm2.652 0c0 .414-.336.75-.75.75s-.75-.336-.75-.75c.003-2.61 2.118-4.725 4.727-4.729 1.782-.002 3.226-1.445 3.229-3.227 0-.414.336-.75.75-.75s.75.336.75.75c-.004 2.61-2.119 4.724-4.729 4.727-1.782.002-3.226 1.447-3.228 3.228z"/></svg>