<svg height="32" viewBox="0 0 32 32" width="32" xmlns="http://www.w3.org/2000/svg"><path d="m9.456 25.353c0 .414-.336.75-.75.75h-3.978c-.414 0-.75-.336-.75-.75v-5.305c0-.414.336-.75.75-.75h2.652c.414 0 .75.336.75.75s-.336.75-.75.75h-1.902v3.805h3.228c.414 0 .75.336.75.75zm22.544-5.305v5.305c0 .414-.336.75-.75.75h-7.71c-.414 0-.75-.336-.75-.75s.336-.75.75-.75h1.329v-3.805h-.25c-.414 0-.75-.336-.75-.75s.336-.75.75-.75h6.631c.414 0 .75.336.75.75zm-1.5.75h-4.131v3.805h4.131zm-28.424-1.5c-.414 0-.75.336-.75.75v5.305c0 .414.336.75.75.75s.75-.336.75-.75v-5.305c0-.414-.336-.75-.75-.75zm-.576-5.881c.002-1.782 1.447-3.226 3.228-3.227 2.61-.003 4.725-2.118 4.728-4.728 0-.414-.336-.75-.75-.75s-.75.336-.75.75c-.002 1.782-1.446 3.226-3.227 3.228-2.61.003-4.725 2.118-4.729 4.727v2.653c0 .414.336.75.75.75s.75-.336.75-.75zm5.881-.576c2.609-.003 4.724-2.118 4.728-4.727 0-.414-.336-.75-.75-.75s-.75.336-.75.75c-.003 1.781-1.446 3.225-3.227 3.227-2.61.003-4.726 2.118-4.729 4.728 0 .414.336.75.75.75s.75-.336.75-.75c.002-1.782 1.446-3.227 3.228-3.229zm15.028 7.964c0 3.581-2.903 6.484-6.484 6.484s-6.484-2.903-6.484-6.484 2.903-6.484 6.484-6.484c3.581 0 6.484 2.903 6.484 6.484zm-5.793 3.278c0-.376-.305-.681-.681-.681s-.681.305-.681.681.305.681.681.681c.376 0 .681-.305.681-.681zm1.824-5.317c0-1.382-1.12-2.502-2.502-2.502s-2.502 1.12-2.502 2.502c0 .276.224.5.5.5s.5-.224.5-.5c0-.83.672-1.502 1.502-1.502s1.502.672 1.502 1.502-.672 1.502-1.502 1.502c-.276 0-.5.224-.5.5v1.095c0 .276.224.5.5.5s.5-.224.5-.5v-.645c1.149-.243 2-1.248 2.002-2.452z"/></svg>