<svg height="32" viewBox="0 0 32 32" width="32" xmlns="http://www.w3.org/2000/svg"><path d="m27.855 20.043-11.058 11.058c-.204.204-.485.33-.797.33s-.593-.126-.796-.33l-11.058-11.058c-.204-.204-.33-.485-.33-.797 0-.622.504-1.126 1.126-1.126h22.117c.622 0 1.126.504 1.126 1.126 0 .311-.126.593-.33.797zm-22.913-6.163h22.117c.622 0 1.126-.504 1.126-1.126 0-.311-.126-.593-.33-.796l-11.058-11.058c-.204-.204-.485-.33-.797-.33s-.593.126-.796.33l-11.058 11.058c-.204.204-.33.485-.33.796 0 .622.504 1.126 1.126 1.126z"/></svg>