<svg height="32" viewBox="0 0 25 32" width="25" xmlns="http://www.w3.org/2000/svg"><path d="m23.19 17.75-10.94 12.37-10.94-12.37c-.138-.154-.338-.251-.56-.251-.415 0-.751.336-.751.751 0 .192.072.368.191.501l-.001-.001 11.5 13c.138.154.338.251.56.251s.422-.097.559-.25l.001-.001 11.5-13c.118-.132.191-.308.191-.5 0-.415-.336-.751-.751-.751-.222 0-.422.097-.559.25l-.001.001zm-21.88-3.51 10.94-12.37 10.94 12.37c.14.152.338.248.56.25h.001c.414 0 .75-.336.75-.75 0-.192-.072-.368-.192-.501l.001.001-11.5-13c-.141-.149-.34-.241-.56-.241s-.419.093-.56.241l-11.5 13c-.119.132-.191.308-.191.5 0 .222.097.422.25.559l.001.001c.133.116.308.187.499.187.222 0 .421-.095.56-.246v-.001z"/></svg>