<svg height="32" viewBox="0 0 32 32" width="32" xmlns="http://www.w3.org/2000/svg"><path d="m31.688 12.357c-.148-.453-.535-.787-1.009-.856l-.007-.001-9.358-1.359-4.186-8.482c-.21-.418-.636-.7-1.128-.7s-.917.282-1.124.693l-.003.007-4.187 8.482-9.358 1.359c-.613.091-1.078.614-1.078 1.245 0 .353.145.672.38.901l6.773 6.601-1.599 9.322c-.011.063-.018.136-.018.211 0 .695.564 1.259 1.259 1.259.214 0 .415-.053.592-.147l-.007.003 8.371-4.401 8.372 4.401c.169.091.37.144.584.144.695 0 1.258-.563 1.258-1.258 0-.075-.007-.148-.019-.219l.001.008-1.599-9.322 6.771-6.601c.235-.227.381-.546.381-.898 0-.14-.023-.274-.065-.4l.003.009zm-8.229 6.906c-.234.228-.38.547-.38.9 0 .075.007.149.019.221l-.001-.008 1.537 8.964-8.047-4.231c-.17-.092-.373-.145-.587-.145s-.416.053-.592.148l.007-.003-8.05 4.232 1.538-8.966c.012-.064.018-.137.018-.212 0-.353-.146-.671-.38-.899l-6.512-6.348 9.001-1.308c.417-.063.763-.323.942-.681l.003-.007 4.025-8.154 4.024 8.154c.184.366.53.626.941.688l.007.001 8.998 1.308z"/></svg>