<svg height="32" viewBox="0 0 32 32" width="32" xmlns="http://www.w3.org/2000/svg"><path d="m16 10.321c2.781 0 5.036-2.255 5.036-5.036s-2.255-5.036-5.036-5.036-5.035 2.254-5.036 5.035c.003 2.78 2.255 5.033 5.035 5.036zm0-8.571c1.953 0 3.536 1.583 3.536 3.536s-1.583 3.536-3.536 3.536-3.536-1.583-3.536-3.536c0 0 0 0 0-.001.002-1.952 1.584-3.533 3.535-3.535zm-2.893 19.32v5.644c0 .414.336.75.75.75h4.285c.414 0 .75-.336.75-.75v-5.644c2.788-1.351 4.286-5.355 4.286-8.642 0-.414-.336-.75-.75-.75h-12.857c-.414 0-.75.336-.75.75 0 3.286 1.498 7.292 4.286 8.642zm8.541-7.892c-.218 2.783-1.611 5.936-3.754 6.685-.295.106-.502.382-.502.708v5.393h-2.785v-5.392c0-.325-.207-.602-.497-.706l-.005-.002c-2.143-.749-3.536-3.901-3.754-6.685zm8.245 14.536c0 3.192-9.088 4.036-13.893 4.036-6.691 0-13.893-1.263-13.893-4.036 0-1.933 3.394-2.933 6.24-3.432.032-.005.07-.008.108-.008.414 0 .75.336.75.75 0 .36-.254.661-.593.733l-.005.001c-3.741.656-5 1.617-5 1.955 0 .759 4.216 2.536 12.393 2.536s12.393-1.777 12.393-2.536c0-.337-1.253-1.297-4.976-1.952-.366-.054-.644-.366-.644-.742 0-.414.336-.75.75-.75.054 0 .108.006.159.017l-.005-.001c2.836.499 6.216 1.499 6.216 3.429z"/></svg>