<svg height="32" viewBox="0 0 32 32" width="32" xmlns="http://www.w3.org/2000/svg"><path d="m27.087 7.424h-5.771v-1.858c-.002-1.854-1.504-3.357-3.358-3.359h-3.914c-1.854.002-3.356 1.505-3.358 3.359v1.859h-5.771c-2.574.003-4.66 2.089-4.663 4.663v13.044c.003 2.574 2.089 4.66 4.663 4.663h22.174c2.574-.003 4.66-2.089 4.663-4.663v-13.044c-.003-2.574-2.089-4.66-4.663-4.663zm-14.902-1.859c.001-1.026.832-1.858 1.858-1.859h3.914c1.026.002 1.857.833 1.858 1.859v1.859h-7.631zm18.065 19.566c-.002 1.746-1.417 3.161-3.163 3.163h-22.174c-1.746-.002-3.161-1.417-3.163-3.163v-13.044c.002-1.746 1.417-3.161 3.163-3.163h22.174c1.746.002 3.161 1.417 3.163 3.163zm-13.492-10.075c-.275-.5-.436-1.096-.436-1.729 0-.074.002-.148.007-.222v.01c.016-.708.231-1.363.591-1.914l-.009.014c.294-.497.826-.827 1.435-.832h.001c1.069.042 1.858 1.309 1.795 2.884-.016.708-.231 1.363-.591 1.915l.009-.014c-.287.48-.793.803-1.376.833h-.004c-.019 0-.037-.001-.056-.001-.603-.054-1.109-.42-1.361-.933l-.004-.01zm-4.317.111c-.352-.537-.567-1.192-.582-1.896v-.004c-.063-1.575.726-2.842 1.795-2.884.61.004 1.143.334 1.432.824l.004.008c.351.537.566 1.192.582 1.896v.004c.004.063.006.137.006.211 0 .634-.162 1.229-.446 1.748l.01-.019c-.256.523-.763.889-1.359.942h-.007c-.019.001-.038.001-.056.001-.587-.03-1.093-.353-1.376-.825l-.004-.008zm-2.419 4.913c-1.157 0-2.063-1.342-2.063-3.055s.906-3.056 2.063-3.056 2.063 1.342 2.063 3.056-.906 3.055-2.062 3.055zm14.018-3.056c0 1.713-.906 3.055-2.063 3.055s-2.063-1.342-2.063-3.055.906-3.056 2.063-3.056 2.063 1.342 2.063 3.056zm-4.476 3.58c.796.66 1.326 1.618 1.417 2.7l.001.014c0 2.086-2.583 3.037-4.982 3.037s-4.982-.95-4.982-3.037c.092-1.097.622-2.055 1.411-2.71l.007-.005c.393-.338.698-.766.886-1.253l.007-.021c.274-1.37 1.12-2.834 2.671-2.834s2.396 1.464 2.671 2.834c.195.509.5.937.889 1.271l.004.003z"/></svg>