<svg height="32" viewBox="0 0 32 32" width="32" xmlns="http://www.w3.org/2000/svg"><path d="m16 5.704c-5.686 0-10.296 4.61-10.296 10.296s4.61 10.296 10.296 10.296 10.296-4.61 10.296-10.296c-.007-5.684-4.612-10.289-10.295-10.296zm0 19.092c-4.858 0-8.796-3.938-8.796-8.796s3.938-8.796 8.796-8.796 8.796 3.938 8.796 8.796c-.006 4.855-3.941 8.79-8.795 8.796zm.75 3.477v2.727c0 .414-.336.75-.75.75s-.75-.336-.75-.75v-2.727c0-.414.336-.75.75-.75s.75.336.75.75zm15-12.273c0 .414-.336.75-.75.75h-2.727c-.414 0-.75-.336-.75-.75s.336-.75.75-.75h2.727c.414 0 .75.336.75.75zm-16.5-12.272v-2.728c0-.414.336-.75.75-.75s.75.336.75.75v2.728c0 .414-.336.75-.75.75s-.75-.336-.75-.75zm-10.772 12.272c0 .414-.336.75-.75.75h-2.728c-.414 0-.75-.336-.75-.75s.336-.75.75-.75h2.728c.414 0 .75.336.75.75zm3.376 8.148c.136.136.22.323.22.53s-.084.395-.22.53l-1.93 1.93c-.136.14-.327.227-.538.227-.414 0-.75-.336-.75-.75 0-.211.087-.401.227-.538l1.93-1.93c.136-.136.323-.22.53-.22s.395.084.53.22zm19.283 1.928c.141.137.229.328.229.539 0 .414-.336.75-.75.75-.212 0-.403-.088-.539-.229l-1.928-1.928c-.132-.135-.214-.32-.214-.525 0-.414.336-.75.75-.75.204 0 .39.082.525.214zm.001-21.212c.136.136.22.323.22.53s-.084.395-.22.53l-1.929 1.929c-.135.131-.319.212-.523.212-.414 0-.75-.336-.75-.75 0-.203.081-.388.212-.523l1.929-1.929c.136-.136.323-.22.53-.22s.395.084.53.22zm-22.275 1.061c-.13-.135-.211-.319-.211-.521 0-.414.336-.75.75-.75.203 0 .386.08.521.211l1.929 1.929c.141.137.229.328.229.539 0 .414-.336.75-.75.75-.212 0-.403-.088-.539-.229z"/></svg>