<svg height="32" viewBox="0 0 32 32" width="32" xmlns="http://www.w3.org/2000/svg"><path d="m21.984 11.076-10.908 10.908c-.135.132-.32.214-.525.214-.414 0-.75-.336-.75-.75 0-.204.082-.39.214-.525l10.908-10.908c.135-.132.32-.214.525-.214.414 0 .75.336.75.75 0 .204-.082.39-.214.525zm-12.871.833s0 0 0-.001c0-1.544 1.252-2.795 2.795-2.795s2.795 1.252 2.795 2.795c0 1.544-1.251 2.795-2.795 2.795-1.543-.002-2.794-1.252-2.796-2.795zm1.5 0c0 .715.58 1.295 1.295 1.295s1.295-.58 1.295-1.295-.58-1.295-1.295-1.295c-.716.001-1.295.58-1.296 1.296zm12.274 8.182c0 1.544-1.252 2.795-2.795 2.795s-2.795-1.252-2.795-2.795c0-1.544 1.251-2.795 2.795-2.795 1.543.002 2.794 1.252 2.796 2.795zm-1.5 0c0-.715-.58-1.295-1.295-1.295s-1.295.58-1.295 1.295.58 1.295 1.295 1.295c.715 0 1.295-.58 1.296-1.296zm10.363-4.091c0 8.698-7.052 15.75-15.75 15.75s-15.75-7.052-15.75-15.75 7.051-15.75 15.75-15.75c8.694.01 15.74 7.056 15.75 15.749zm-1.5 0c0-7.87-6.38-14.25-14.25-14.25s-14.25 6.38-14.25 14.25 6.38 14.25 14.25 14.25c7.866-.009 14.241-6.384 14.25-14.249z"/></svg>