<svg height="32" viewBox="0 0 32 32" width="32" xmlns="http://www.w3.org/2000/svg"><path d="m10.714 4.756c-.136-.136-.323-.22-.53-.22h-8.571c-.414 0-.75.336-.75.75v8.571c0 .207.084.395.22.53l17.143 17.143c.135.136.322.22.529.22h.001.002c.053 0 .104-.006.153-.017l-.005.001c.25-.052.451-.224.544-.451l.002-.005 2.33-5.823 5.823-2.33c.279-.114.471-.383.471-.696 0-.207-.084-.394-.219-.53zm10.212 19.426c-.191.078-.34.227-.416.413l-.002.005-2.026 5.065-16.119-16.118v-7.511h7.511l16.118 16.119zm10.191-7.092c-.061.255-.247.456-.487.538l-.005.002-1.837.612c-.071.024-.152.038-.237.038-.414 0-.75-.336-.75-.75 0-.33.212-.609.508-.71l.005-.002.686-.229-14.84-14.84h-8.261c-.414 0-.75-.336-.75-.75s.336-.75.75-.75h8.571c.207 0 .395.084.53.22l15.918 15.918c.136.135.22.322.22.529 0 .061-.007.121-.021.178l.001-.005zm-22.158-6.294c0 1.014-.822 1.837-1.837 1.837s-1.837-.822-1.837-1.837c0-1.014.822-1.837 1.837-1.837 1.014 0 1.836.822 1.837 1.837z"/></svg>