<svg height="32" viewBox="0 0 32 32" width="32" xmlns="http://www.w3.org/2000/svg"><path d="m29.65 2.25h-27.3c-1.132.002-2.048.918-2.05 2.05v19.5c.002 1.132.918 2.048 2.05 2.05h10.95v2.4h-3.8v1.5h13v-1.5h-3.8v-2.4h10.95c1.132-.001 2.049-.918 2.05-2.05v-19.5c-.001-1.132-.918-2.049-2.05-2.05zm-12.45 26h-2.4v-2.4h2.4zm13-4.45c-.001.304-.246.549-.55.55h-27.3c-.303-.001-.549-.247-.55-.55v-19.5c.001-.303.247-.549.55-.55h27.3c.304.001.549.246.55.55zm-21.222-13.847h6.165v1.194h-2.351v6.619h-1.453v-6.619h-2.362zm12.774 0h1.172l-3.155 7.814h-1.314l-3.155-7.814h1.173.021c.108 0 .207.035.289.093l-.001-.001c.079.062.14.142.177.235l.001.004 1.837 4.766q.092.233.176.511t.159.586c.082-.422.188-.79.323-1.143l-.016.046 1.832-4.766c.039-.092.098-.168.172-.227l.001-.001c.079-.064.182-.103.293-.103h.016z"/></svg>