<svg height="32" viewBox="0 0 32 32" width="32" xmlns="http://www.w3.org/2000/svg"><path d="m31.287 6.174c-.085-.036-.183-.056-.286-.056-.207 0-.395.084-.532.22-1.332 1.332-5.574 2.227-10.557 2.227h-.003c-4.982 0-9.223-.895-10.554-2.227-.136-.136-.323-.219-.53-.219-.414 0-.75.335-.75.749v11.089c0 7.588 8.937 13.794 11.837 13.794s11.837-6.206 11.837-13.794v-11.089s0 0 0-.001c0-.311-.189-.577-.458-.691l-.005-.002zm-1.037 11.782c0 6.919-8.245 12.294-10.337 12.294s-10.337-5.375-10.337-12.294v-9.658c2.476 1.285 6.746 1.766 10.334 1.766h.003c3.588 0 7.861-.482 10.337-1.767zm-24.855 2.1c.133.135.216.321.216.526 0 .414-.336.75-.75.75-.224 0-.425-.098-.563-.254l-.001-.001c-1.847-1.983-4.047-5.153-4.047-8.991v-11.087c0-.414.336-.749.75-.749.207 0 .394.084.53.219 1.331 1.332 5.572 2.226 10.554 2.226h.003c4.982 0 9.225-.894 10.557-2.227.136-.136.323-.219.53-.219.414 0 .75.335.75.749v4.566c0 .414-.336.75-.75.75s-.75-.336-.75-.75v-3.135c-2.476 1.285-6.749 1.767-10.337 1.767h-.003c-3.588 0-7.858-.48-10.334-1.766v9.656c0 3.35 1.982 6.183 3.644 7.969zm19.181 1.811c0 2.575-2.088 4.663-4.663 4.663s-4.663-2.088-4.663-4.663c0-.414.336-.75.75-.75s.75.336.75.75c0 1.747 1.416 3.163 3.163 3.163s3.163-1.416 3.163-3.163c0-.414.336-.75.75-.75s.75.336.75.75zm-2.804-5.87c.009-1.488 1.218-2.69 2.707-2.69s2.697 1.202 2.707 2.689v.001c0 .414-.336.75-.75.75s-.75-.336-.75-.75c-.006-.662-.544-1.196-1.207-1.196s-1.2.534-1.207 1.195v.001c0 .414-.336.75-.75.75s-.75-.336-.75-.75zm-6.424-1.206c-.666.001-1.205.54-1.206 1.206 0 .414-.336.75-.75.75s-.75-.336-.75-.75c.009-1.488 1.218-2.69 2.707-2.69s2.697 1.202 2.707 2.689v.001c0 .414-.336.75-.75.75s-.75-.336-.75-.75c-.001-.666-.541-1.206-1.207-1.206z"/></svg>