<svg height="32" viewBox="0 0 32 32" width="32" xmlns="http://www.w3.org/2000/svg"><path d="m31.659 24.043-2.158-1.717c.489-1.185.774-2.56.774-4.002 0-.117-.002-.233-.006-.349v.017c0-1.267-.161-5.397-2.243-5.397h-1.242v-3.812h.578c.414 0 .75-.336.75-.75s-.336-.75-.75-.75h-5.312c-.414 0-.75.336-.75.75s.336.75.75.75h.578v3.812h-6.467v-6.467h.578c.414 0 .75-.336.75-.75s-.336-.75-.75-.75h-15.933c-.414 0-.75.336-.75.75s.336.75.75.75h1.905v7.794h-1.905c-.414 0-.75.336-.75.75v7.967c0 .414.336.75.75.75h3.292c-.037.19-.059.408-.059.631 0 1.881 1.525 3.406 3.406 3.406s3.406-1.525 3.406-3.406c0-.223-.021-.441-.062-.652l.003.021h1.272c-.037.189-.059.407-.059.63 0 1.881 1.525 3.406 3.406 3.406s3.406-1.525 3.406-3.406c0-.223-.021-.441-.062-.652l.003.021h1.273c-.037.189-.059.407-.059.63 0 1.881 1.525 3.406 3.406 3.406s3.406-1.525 3.406-3.406c0-.223-.021-.441-.062-.652l.003.021h1.702l2.298 1.828c.127.102.29.163.467.163.414 0 .75-.336.75-.75 0-.237-.11-.448-.282-.586l-.002-.001zm-7.53-15.26h1.155v3.812h-1.155zm-16.683 17.089c-1.052-.001-1.904-.853-1.905-1.905.001-.369.109-.713.293-1.003l-.005.008c.01-.019.022-.036.03-.056.345-.518.926-.854 1.586-.854.663 0 1.246.339 1.586.853l.004.007c.005.012.013.022.019.034.186.288.297.641.297 1.019 0 1.048-.85 1.898-1.898 1.898-.003 0-.006 0-.009 0zm7.966 0s0 0-.001 0c-1.053 0-1.906-.853-1.906-1.906s.853-1.906 1.906-1.906 1.906.853 1.906 1.906v.001c-.001 1.052-.853 1.904-1.905 1.905zm7.967 0c-.003 0-.006 0-.009 0-1.047 0-1.896-.849-1.896-1.896 0-.374.108-.722.295-1.016l-.005.008c.009-.018.02-.033.028-.051.345-.519.926-.856 1.587-.856.663 0 1.247.34 1.586.854l.004.007c.005.011.012.02.017.031.187.289.298.642.298 1.021 0 1.048-.85 1.898-1.898 1.898-.003 0-.005 0-.008 0zm0-5.311c-1.088.004-2.055.52-2.673 1.32l-.006.008h-2.61c-.621-.811-1.589-1.328-2.678-1.328s-2.058.517-2.673 1.32l-.006.008h-2.609c-.621-.811-1.589-1.328-2.679-1.328s-2.058.517-2.673 1.32l-.006.008h-3.21v-6.467h1.905c.414 0 .75-.336.75-.75v-8.544h10.45v7.217c0 .414.336.75.75.75l7.933-.007c.012.001.022.007.034.007s.022-.006.034-.007l2.577-.002c.016.001.029.009.045.009s.029-.008.045-.009l1.898-.002c.268.149.792 1.487.792 3.908 0 2.42-.524 3.758-.743 3.896h-1.969c-.623-.808-1.59-1.324-2.678-1.328h-.001zm-11.379-12.824h-5.125c-.414 0-.75.336-.75.75v3.075c0 .414.336.75.75.75h5.125c.414 0 .75-.336.75-.75v-3.075c0-.414-.336-.75-.75-.75zm-.75 3.076h-3.625v-1.575h3.625z"/></svg>