<svg height="32" viewBox="0 0 32 32" width="32" xmlns="http://www.w3.org/2000/svg"><path d="m8.24 9.029c-.075-.453-.181-1.6-.181-1.691.041-2.728 2.263-4.924 4.997-4.924 2.006 0 3.736 1.182 4.532 2.888l.013.031c.806-1.742 2.539-2.93 4.55-2.93 2.744 0 4.971 2.211 4.997 4.949v.002c0 .112-.112 1.237-.181 1.691-.737 4.392-2.822 8.203-5.808 11.088l-.006.006-.736-.048c3.111-2.859 5.278-6.702 6.006-11.033l.016-.113c.069-.432.171-1.499.176-1.6-.033-2.44-2.019-4.405-4.464-4.405-2.03 0-3.744 1.356-4.286 3.211l-.008.032-.256.923-.256-.928c-.549-1.887-2.263-3.243-4.294-3.243-2.447 0-4.434 1.968-4.464 4.408v.003c0 .085.101 1.152.176 1.6.518 3.101 1.707 5.856 3.415 8.211l-.039-.056c-.288-.117-.581-.235-.885-.341-1.47-2.202-2.528-4.807-2.997-7.612l-.016-.116zm23.584 9.515c-.413-.607-1.101-1.001-1.88-1.001-.452 0-.874.132-1.227.361l.009-.005-5.419 3.483c-.268-.201-.599-.334-.958-.367l-.008-.001-5.712-.373c-2.069-1.623-4.516-2.874-7.178-3.604l-.144-.034c-4.203-1.067-8.821.971-9.019 1.067-.085.046-.142.134-.142.236 0 .147.119.267.267.267.034 0 .066-.006.096-.018l-.002.001c.048 0 4.651-2.032 8.672-1.024 2.752.761 5.149 1.995 7.223 3.623l-.044-.033c.042.034.096.056.154.059h.001l5.792.384c.697.065 1.237.646 1.237 1.354v.017-.001c-.003.76-.612 1.377-1.369 1.392l-6.263.101-5.968-1.067c-.014-.003-.031-.004-.048-.004-.15 0-.271.121-.271.271 0 .133.095.243.221.266h.002l6.021 1.067 6.315-.096c1.05-.021 1.893-.877 1.893-1.93-.001-.429-.145-.824-.387-1.14l.003.005 5.333-3.424c.263-.17.585-.271.93-.271.516 0 .98.226 1.297.584l.002.002-8 7.525c-.318.299-.718.515-1.162.61l-.016.003-6.523 1.349c-.309.054-.666.085-1.03.085-.696 0-1.365-.113-1.991-.322l.044.013-8.059-2.816c-.362-.131-.78-.207-1.216-.207-.295 0-.582.035-.857.101l.025-.005-1.867.469c-.122.03-.21.138-.21.267 0 .151.123.274.274.274.023 0 .045-.003.066-.008h-.002l1.861-.464c.212-.051.456-.08.706-.08.372 0 .729.065 1.06.183l-.022-.007 8.053 2.821c.588.21 1.267.331 1.974.331h.061-.003c.429-.002.849-.033 1.26-.091l-.049.006 6.533-1.376c.561-.12 1.047-.383 1.436-.748l-.002.001 8.181-7.712c.054-.049.088-.12.088-.198 0-.055-.017-.107-.046-.15l.001.001z"/></svg>