<svg height="32" viewBox="0 0 32 32" width="32" xmlns="http://www.w3.org/2000/svg"><path d="m19.237 7.781c.383 2.66 1.909 4.902 4.054 6.245l.037.022.139.085.139-.085c2.135-1.375 3.643-3.566 4.088-6.121l.008-.055c.017-.147.027-.317.027-.49 0-.287-.027-.567-.08-.839l.004.028c-.302-2.021-2.025-3.553-4.106-3.553-.028 0-.056 0-.085.001h.004c-2.162.008-3.945 1.622-4.216 3.712l-.002.021c-.026.166-.042.357-.042.552 0 .168.011.334.033.496zm.534-.949c.233-1.854 1.798-3.275 3.695-3.28h.001c.024-.001.053-.001.081-.001 1.811 0 3.311 1.331 3.575 3.069l.003.02c.055.249.086.535.086.829 0 .106-.004.211-.012.315l.001-.014c-.422 2.407-1.792 4.432-3.702 5.714l-.031.02c-1.967-1.281-3.34-3.332-3.696-5.715l-.006-.045v-.053c-.016-.117-.025-.253-.025-.391 0-.165.013-.327.037-.485l-.002.018zm3.696 2.816c1.314 0 2.379-1.065 2.379-2.379s-1.065-2.379-2.379-2.379-2.379 1.065-2.379 2.379c0 1.314 1.065 2.379 2.379 2.379zm0-4.219c1.019 0 1.845.826 1.845 1.845s-.826 1.845-1.845 1.845-1.845-.826-1.845-1.845c0-1.019.826-1.845 1.845-1.845zm-12.939 5.952.139.085.139-.085c2.136-1.377 3.644-3.569 4.088-6.127l.008-.054c.017-.147.027-.317.027-.49 0-.287-.027-.567-.08-.839l.004.028c-.304-2.018-2.026-3.547-4.105-3.547-.029 0-.057 0-.085.001h.004c-2.162.008-3.945 1.623-4.216 3.712l-.002.021c-.023.155-.036.333-.036.515s.013.36.038.535l-.002-.02c.381 2.659 1.902 4.9 4.043 6.245l.037.021zm-3.552-7.216c.233-1.852 1.795-3.272 3.69-3.28h.001c.024-.001.053-.001.081-.001 1.811 0 3.311 1.331 3.575 3.069l.002.02c.055.249.086.536.086.829 0 .106-.004.211-.012.315l.001-.014c-.422 2.407-1.792 4.432-3.702 5.714l-.031.02c-1.967-1.281-3.34-3.332-3.696-5.715l-.006-.045v-.053c-.016-.117-.025-.253-.025-.391 0-.165.013-.327.037-.485l-.002.018zm3.691 2.816c1.314 0 2.379-1.065 2.379-2.379s-1.065-2.379-2.379-2.379-2.379 1.065-2.379 2.379c0 1.314 1.065 2.379 2.379 2.379zm0-4.218c1.019 0 1.845.826 1.845 1.845s-.826 1.845-1.845 1.845-1.845-.826-1.845-1.845c0-1.019.826-1.845 1.845-1.845zm4.896.314c-.048-.171-.101-.347-.155-.533h.592.008c1.469 0 2.887.218 4.223.624l-.103-.027c-.17.13-.32.27-.456.423l-.003.003c-1.099-.315-2.362-.497-3.667-.501h-.002zm14.992 13.99v.033c0 8.038-6.516 14.555-14.555 14.555s-14.555-6.516-14.555-14.555c0-4.074 1.674-7.757 4.371-10.398l.003-.002c.059.192.123.379.187.565-2.481 2.524-4.012 5.987-4.012 9.808 0 1.685.298 3.3.843 4.796l-.031-.097c.185.094.34.188.488.292l-.013-.009c.23.176.497.319.786.416l.019.006c.216.025.412.076.597.149l-.016-.006.197.064c.101.213.208.416.325.619h-.107c-.226-.042-.425-.1-.615-.173l.023.008c-.132-.055-.285-.096-.444-.116l-.009-.001c-.351-.078-.659-.224-.923-.426l.006.004c1.542 3.533 4.382 6.257 7.903 7.61l.097.033s0 0 0-.032c0-.181 0-.533.309-.619.135-.077.248-.179.334-.301l.002-.003-.421-.592c-.028-.04-.046-.09-.048-.144l-.032-1.125.053-1.035c-.112-.235-.227-.434-.357-.623l.01.015q.192-.192.373-.389c.18.241.342.514.474.804l.011.028c.005.018.007.04.007.061s-.003.043-.008.063v-.002l-.053 1.067.032 1.024.459.683c.029.042.046.094.046.149s-.017.107-.046.15l.001-.001c-.168.265-.39.48-.652.635l-.009.005v.128c.003.033.004.071.004.109s-.002.077-.004.114v-.005c1.313.449 2.826.708 4.399.708 7.741 0 14.016-6.275 14.016-14.016 0-2.628-.723-5.086-1.981-7.188l.035.064q.128-.304.245-.619c1.4 2.186 2.232 4.851 2.235 7.711v.001zm-4.502 3.637c-.08.309-.155.741-.176.864-.169.347-.349.786-.506 1.236l-.028.092c-.025.101-.039.216-.039.335 0 .331.111.635.298.879l-.003-.003c.076.074.179.121.293.123.019.003.041.005.064.005s.045-.002.066-.005h-.002c.267-.138.494-.316.68-.531l.002-.003c.106-.106.219-.206.339-.298l.008-.006c.405-.368.714-.836.89-1.364l.006-.023c.053-.213.139-.533.213-.811l.133-.501c.094-.401.163-.874.191-1.358l.001-.023c-.009-.247-.044-.481-.101-.706l.005.023c-.03-.117-.134-.203-.259-.203-.103 0-.192.058-.236.143l-.001.001-.661 1.232c-.357.165-1.099.528-1.179.923zm1.638-.597.261-.491c-.035.35-.086.661-.154.965l.01-.053-.133.501c-.08.293-.165.603-.219.816-.15.418-.381.775-.677 1.066-.154.115-.289.234-.416.362-.126.125-.26.242-.401.35l-.01.007c-.058-.13-.093-.282-.093-.442 0-.058.005-.116.013-.172l-.001.006c.187-.522.367-.943.567-1.352l-.034.077c.001-.01.002-.021.002-.032s-.001-.022-.002-.033v.001s.085-.533.171-.853c.273-.248.601-.442.962-.56l.019-.005c.06-.029.107-.077.133-.137l.001-.002zm-10.704-13.062c.363.121.782.194 1.217.203h.004c0 .02-.001.043-.001.067 0 .165.014.326.04.483l-.002-.017c-.523-.01-1.023-.097-1.492-.25l.036.01c-.443-.176-.699-.459-.699-.779-.064-.339-.14-.628-.233-.908l.014.049-.373.053c.043-.181.08-.368.117-.533l.384-.091c.013-.002.029-.004.045-.004.118 0 .218.077.253.183l.001.002c.123.349.231.767.303 1.197l.006.045c.016.048.101.176.379.288zm-2.246 8.502.192-.08c.204-.093.441-.158.69-.181l.009-.001h.019c.108 0 .207.036.286.097l-.001-.001c.099.084.161.208.161.346 0 .036-.004.071-.012.105l.001-.003c-.003.05-.005.109-.005.168 0 .239.029.472.084.695l-.004-.02c.032.13.054.284.064.441v.007.171c0 .208 0 .299.059.368s.144.123.235.197c.309.245.576.459.576.725.008.363.07.708.178 1.033l-.007-.025c.13.209.207.463.207.735 0 .155-.025.304-.071.443l.003-.01c-.101.203-.304.763-.373.965-.033.147-.052.317-.052.49 0 .047.001.094.004.14v-.006c.116.274.285.505.494.692l.002.002c.185.197.326.436.407.702l.003.013c.037.118.086.22.147.314l-.003-.005c.201.311.4.675.574 1.053l.023.056.357.645c.02.037.032.08.032.127v.001.277c.4-.069.907-.165 1.067-.203.426-.194.792-.437 1.113-.729l-.004.003c.073-.076.134-.164.179-.261l.002-.006c.093-.194.222-.356.381-.483l.003-.002.827-.645-.053-.853c0-.005 0-.01 0-.015 0-.061.02-.116.054-.161v.001l.8-1.067.613-.613c.167-.214.3-.464.385-.735l.005-.017c-.064-.267-.192-1.483-.203-1.6-.005-.02-.008-.043-.008-.067s.003-.047.009-.069v.002c.157-.353.323-.652.511-.935l-.015.023c.05-.074.094-.158.13-.247l.003-.009c.117-.29.299-.532.53-.717l.003-.003c.271-.241.508-.511.71-.806l.01-.015.165-.224c.208-.277.533-.715.651-.891.053-.094.097-.202.126-.316l.002-.009-.789.128c-.014.002-.029.004-.045.004-.097 0-.181-.053-.226-.131l-.001-.001c-.107-.176-.267-.411-.448-.667.128-.128.251-.267.368-.4.165.235.32.453.437.64l1.024-.171c.014-.002.029-.004.045-.004.097 0 .181.053.226.131l.001.001c.014.031.022.068.022.107s-.008.075-.023.108l.001-.002c-.067.328-.172.619-.313.888l.009-.018c-.123.181-.453.629-.667.912l-.165.219c-.238.347-.506.648-.805.913l-.005.005c-.163.14-.288.32-.36.525l-.003.009c-.055.137-.12.254-.196.363l.004-.006c-.143.214-.28.461-.397.719l-.014.033c.053.533.144 1.312.187 1.488.085.336-.283.907-.533 1.216l-.624.629-.715.955.112.853c0 .006.001.013.001.02 0 .085-.04.161-.102.209h-.001l-.933.731c-.105.083-.188.188-.243.309l-.002.005c-.074.152-.167.282-.278.395-.384.356-.832.649-1.325.858l-.03.011c-.272.069-1.365.261-1.413.267h-.048c-.147 0-.267-.119-.267-.267v-.533l-.347-.581c-.178-.408-.357-.748-.555-1.074l.022.039c-.09-.129-.164-.277-.215-.436l-.003-.012c-.056-.207-.155-.386-.289-.534l.001.001c-.267-.245-.479-.546-.618-.885l-.006-.016c-.011-.088-.018-.189-.018-.292 0-.22.03-.434.086-.637l-.004.017c0-.069.272-.789.411-1.067.011-.053.017-.114.017-.176 0-.193-.058-.372-.157-.521l.002.003c-.151-.367-.249-.793-.272-1.239v-.009c-.027-.027-.256-.208-.373-.304-.103-.079-.193-.155-.279-.236l.002.002c-.144-.163-.232-.378-.232-.614 0-.056.005-.111.015-.165l-.001.006c0-.048 0-.096 0-.144-.011-.132-.03-.252-.057-.369l.003.017c-.059-.243-.093-.522-.093-.808 0-.046.001-.091.003-.137v.007c-.171.044-.313.091-.451.147l.024-.009-.16.075c-.08.032-.173.05-.27.05-.158 0-.305-.049-.426-.132l.003.002c-.187-.145-.31-.367-.32-.617v-.002c-.294.078-.551.191-.785.338l.012-.007c-.137-.135-.283-.26-.437-.376l-.011-.008c.065-.022.118-.043.169-.068l-.009.004c1.013-.571 1.285-.411 1.387-.352.126.077.208.214.208.37v.015-.001c-.001.009-.001.02-.001.03 0 .095.039.181.103.242.029.013.064.021.1.021.031 0 .061-.006.089-.016l-.002.001zm-6.57-3.734c-.012.095-.019.205-.019.317s.007.222.021.33l-.001-.013c.196.503.442.938.74 1.331l-.01-.013h-.101c-.018 0-.04-.001-.061-.001-.167 0-.33.014-.489.04l.017-.002c-.266-.362-.482-.782-.626-1.233l-.008-.031c-.015-.113-.023-.243-.023-.376s.008-.263.024-.391l-.002.015c0-.128 0-.261 0-.421-.002-.06-.004-.13-.004-.2 0-.306.025-.606.072-.899l-.004.032c.155.187.309.373.475.533v.533s.005.299 0 .432zm-3.318 6.672c-.023.155-.036.333-.036.515s.013.36.038.535l-.002-.02c.383 2.66 1.909 4.902 4.054 6.245l.037.022.139.085.139-.085c2.135-1.375 3.643-3.566 4.088-6.121l.008-.055c.017-.147.027-.317.027-.49 0-.287-.027-.567-.08-.839l.004.028c-.302-2.021-2.025-3.553-4.106-3.553-.034 0-.068 0-.101.001h.005c-2.16.01-3.94 1.624-4.211 3.712l-.002.021zm4.219-3.2c.024-.001.053-.001.081-.001 1.811 0 3.311 1.331 3.575 3.069l.002.02c.052.244.082.523.082.81 0 .113-.005.224-.014.335l.001-.015c-.422 2.407-1.792 4.432-3.702 5.714l-.031.02c-1.967-1.281-3.34-3.332-3.696-5.715l-.006-.045v-.053c-.019-.129-.03-.278-.03-.429s.011-.3.032-.446l-.002.017c.234-1.856 1.801-3.278 3.701-3.28zm0 6.096c1.314 0 2.379-1.065 2.379-2.379s-1.065-2.379-2.379-2.379-2.379 1.065-2.379 2.379c0 1.312 1.062 2.376 2.373 2.379zm0-4.218c1.019 0 1.845.826 1.845 1.845s-.826 1.845-1.845 1.845-1.845-.826-1.845-1.845c0-1.017.823-1.842 1.84-1.845z"/></svg>