<svg height="32" viewBox="0 0 32 32" width="32" xmlns="http://www.w3.org/2000/svg"><path d="m28.677 20.293 1.253 3.925-4.027.875-.448 4.096-4.032-.837-2.075 3.557-3.349-2.405-3.344 2.405-2.075-3.557-4.032.837-.448-4.096-4.032-.875 1.253-3.925-3.323-2.437 2.741-3.077-2.043-3.579 3.733-1.696-.411-4.101h4.123l1.291-3.915 3.792 1.648 2.773-3.051 2.773 3.051 3.771-1.659.816 2.464-.427.421-.715-2.16-3.584 1.579-.256-.283-2.379-2.619-2.635 2.896-.352-.149-3.232-1.424-1.109 3.355-.123.363h-3.92l.352 3.515.037.384-.352.16-3.2 1.451 1.733 3.088.192.331-2.603 2.928 3.157 2.32-.117.368-1.067 3.365 3.824.832.043.384.384 3.515 3.835-.8.192.331 1.76 3.045 3.179-2.288.309.224 2.912 2.064 1.973-3.381.373.08 3.461.72.384-3.515.043-.384.373-.08 3.451-.752-1.067-3.365-.117-.368.309-.229 2.848-2.091-2.608-2.923.192-.331 1.755-3.067-3.2-1.451-.171-.069.405-.405 3.733 1.68-2.043 3.579 2.704 3.072zm-12.064-8.101 11.429-11.424c.22-.211.519-.34.848-.34s.628.13.848.341l1.696 1.696c.217.217.351.517.351.848s-.134.631-.351.848l-11.424 11.429c-.032.044-.063.082-.097.118l.001-.001c-.018.017-.04.031-.062.042l-.002.001-.197.197c-.029.029-.065.051-.105.063l-.002.001-4.528 1.509h-.085c-.146-.001-.265-.12-.265-.267 0-.031.005-.06.015-.087l-.001.002 1.509-4.528c.013-.042.035-.078.064-.107l.197-.197c.012-.024.026-.046.043-.064.034-.026.072-.052.111-.077l.006-.003zm2.704 3.333.315-.315c.087-.127.139-.283.139-.452 0-.002 0-.005 0-.007-.002-.458-.374-.828-.832-.828-.147 0-.285.038-.404.105l.004-.002c-.037.021-.082.034-.13.034-.147 0-.267-.119-.267-.267 0-.048.012-.092.034-.131l-.001.001c.064-.115.102-.253.102-.4 0-.458-.37-.83-.828-.832-.007 0-.014 0-.022 0-.161 0-.311.05-.434.135l.003-.002-.32.32-.779 2.331 1.067 1.067zm.95-.965 9.376-9.36-1.131-1.131-9.349 9.349c.577.102 1.022.559 1.103 1.134l.001.007zm-2.64-2.64c.587.083 1.048.536 1.14 1.112l.001.008 9.365-9.349-1.131-1.131zm9.754-9.739 1.317 1.317 1.323 1.301 1.035-1.013c.121-.121.196-.288.196-.472s-.075-.351-.196-.472l-1.696-1.696c-.122-.117-.289-.189-.472-.189s-.35.072-.472.19z"/></svg>