<svg height="32" viewBox="0 0 32 32" width="32" xmlns="http://www.w3.org/2000/svg"><path d="m15.296 26.789c.094-.14.178-.3.245-.468l.006-.017v-.043c.048-.156.076-.335.076-.521 0-.341-.094-.66-.257-.932l.005.008c-.075-.13-.16-.241-.257-.342l.001.001c-.308-.329-.744-.534-1.229-.534-.022 0-.043 0-.065.001h.003c.273-.314.439-.726.439-1.177 0-.648-.343-1.217-.858-1.533l-.008-.004c-.262-.161-.58-.257-.92-.257-.016 0-.032 0-.048.001h.002c-.138.004-.27.023-.396.056l.012-.003c.037-.136.059-.292.059-.452 0-.643-.343-1.206-.856-1.517l-.008-.004c-.262-.163-.58-.26-.92-.26-.365 0-.704.111-.985.301l.006-.004c-.002-.381-.132-.732-.349-1.012l.003.004v-.027c-.288-.371-.727-.614-1.223-.635h-.003c-.016-.001-.034-.001-.053-.001-.482 0-.917.205-1.221.533l-.001.001-.277.309-.784.864-.363.405c-.224.251-.411.464-.533.619-.231.28-.37.642-.37 1.037 0 .445.178.849.467 1.145.287.306.691.499 1.14.507h.001.187c-.092.208-.146.45-.146.704 0 .468.181.894.477 1.211l-.001-.001c.312.324.748.527 1.231.533h.054c.169-.003.33-.03.482-.078l-.012.003c-.043.145-.067.312-.067.484 0 .466.18.891.474 1.208l-.001-.001c.312.324.748.527 1.231.533h.054c.169-.003.33-.03.482-.078l-.012.003c-.043.145-.067.312-.067.484 0 .466.18.891.474 1.208l-.001-.001c.312.324.748.527 1.231.533h.054c.473-.001.902-.19 1.216-.496l.112-.117.368-.384 1.6-1.664c.033-.039.066-.082.097-.127l.004-.006zm-9.525-4.501c-.598-.026-1.073-.517-1.073-1.119 0-.263.091-.505.243-.697l-.002.002c.112-.133.272-.315.459-.533l.181-.203.181-.197.848-.933.277-.309c.2-.222.489-.362.811-.363h.043c.337.014.632.177.825.424l.002.002v.027c.161.193.258.444.258.718 0 .291-.11.556-.291.755l.001-.001-1.371 1.472-.629.667c-.19.179-.447.288-.73.288-.012 0-.023 0-.035-.001h.002zm2.629 2.133c-.223.208-.524.336-.854.336-.009 0-.018 0-.027 0h.001c-.338-.011-.64-.158-.853-.389l-.001-.001c-.21-.222-.339-.523-.339-.853s.129-.631.34-.854l-.001.001.48-.533.368-.389.48-.533 1.424-1.472c.227-.245.55-.397.908-.397.24 0 .464.068.654.187l-.005-.003c.368.229.609.631.609 1.09 0 .343-.135.654-.354.884l-2.107 2.187-.181.192-.187.192zm2.133 2.176c-.218.209-.514.337-.84.337-.353 0-.67-.15-.892-.39l-.001-.001c-.209-.223-.337-.523-.337-.853s.128-.631.338-.854l-.001.001.309-.331.368-.389.533-.576 1.563-1.675c.19-.202.447-.339.735-.378l.006-.001c.025-.002.054-.003.083-.003s.058.001.086.003h-.004c.239 0 .461.068.651.184l-.005-.003c.349.247.573.649.573 1.104 0 .332-.12.636-.319.871l.002-.002-.101.107-.187.192-1.952 2.027-.181.192-.187.192zm4.518-.533c-.03.11-.07.205-.121.294l.003-.006c-.052.097-.113.181-.182.257l.001-.001-1.552 1.659-.373.384-.123.133c-.218.209-.514.337-.84.337-.353 0-.67-.15-.892-.39l-.001-.001c-.21-.222-.339-.523-.339-.853s.129-.631.34-.854l-.001.001.187-.197.363-.395.469-.507.96-1.067c.222-.234.529-.384.872-.4h.003.043c.343.009.652.147.88.368.216.219.352.517.363.846v.002c.001.015.001.034.001.052 0 .118-.016.233-.046.341l.002-.009zm16.069-14.757c-.288 1.28-.933 2.251-1.808 3.477-1.552 2.094-3.118 3.941-4.795 5.681l.017-.017-.352-.405c1.621-1.691 3.153-3.507 4.565-5.417l.107-.151c.837-1.179 1.451-2.101 1.723-3.285.129-.515.203-1.107.203-1.716 0-3.419-2.331-6.293-5.49-7.12l-.051-.011c-3.008-.741-6.219.619-8.171 3.488-.416.603-.987 1.381-1.6 2.229-1.349 1.803-2.987 3.904-4.053 5.253-.205.26-.328.592-.328.953 0 .515.252.971.639 1.252l.004.003c.251.181.565.289.904.289.46 0 .874-.2 1.159-.517l.001-.001 3.733-4.347c.049-.057.122-.093.203-.093.023 0 .045.003.066.008h-.002s1.248.288 3.376-.475c1.33-.498 2.432-1.348 3.223-2.439l.014-.02c.049-.067.128-.111.216-.111.147 0 .267.119.267.267 0 .049-.013.094-.036.133l.001-.001s-.096.149-.256.352c-.848 1.032-1.95 1.825-3.212 2.287l-.052.017c-.844.356-1.825.563-2.855.563-.234 0-.466-.011-.695-.032l.029.002-3.632 4.235c-.17.197-.373.359-.602.48l-.011.005c-.281.149-.614.237-.967.237-.458 0-.881-.147-1.226-.395l.006.004c-.526-.382-.864-.995-.864-1.688 0-.486.167-.933.446-1.287l-.003.004c1.184-1.504 3.088-3.947 4.496-5.867l.331-.448c.309-.427.592-.816.821-1.152 2.101-3.056 5.541-4.507 8.763-3.701 3.453.89 5.964 3.977 5.964 7.65 0 .648-.078 1.279-.226 1.882l.011-.054zm-26.624 7.466c-.84-1.08-1.673-2.299-2.431-3.567l-.092-.166c-.816-1.382-1.297-3.044-1.297-4.819 0-.126.002-.252.007-.377l-.001.018c.288-4.453 3.675-7.803 7.888-7.803 3.035 0 4.768 1.525 6.544 3.76 0 0-.32.448-.32.448-1.765-2.251-3.344-3.68-6.224-3.68-3.931 0-7.088 3.136-7.355 7.291-.004.098-.006.214-.006.33 0 1.678.456 3.25 1.25 4.598l-.023-.042c.817 1.389 1.619 2.567 2.487 3.692l-.06-.081zm19.963 2.987c.254.326.407.742.407 1.193 0 .093-.006.184-.019.273l.001-.01c-.071.5-.336.928-.715 1.213l-.005.003c-.3.233-.682.373-1.097.373-.189 0-.372-.029-.543-.083l.013.003c.073.192.116.413.116.645 0 1.022-.829 1.851-1.851 1.851-.368 0-.71-.107-.998-.292l.007.004c.006.057.01.123.01.189s-.003.133-.01.197l.001-.008c-.123.911-.895 1.606-1.83 1.606-.357 0-.69-.101-.973-.277l.008.005c.001.022.002.049.002.075 0 .534-.262 1.007-.664 1.298l-.005.003c-.292.227-.663.365-1.066.368h-.001c-.482-.002-.915-.206-1.22-.532l-.001-.001-.24-.251.373-.384.251.267c.213.222.512.361.844.361.27 0 .518-.091.716-.245l-.003.002c.248-.192.418-.476.458-.8l.001-.006c.007-.047.01-.101.01-.155 0-.27-.092-.519-.247-.717l.002.003-.432-.533.192-.219c.054-.062.102-.132.141-.207l.003-.006.789.949c.246.291.612.475 1.02.475.736 0 1.333-.597 1.333-1.333 0-.299-.099-.576-.265-.798l.003.003-4.32-5.771c-.033-.044-.053-.1-.053-.16 0-.147.119-.267.267-.267.087 0 .164.042.213.106l.001.001 4.331 5.659.283.341.037.043c.246.291.612.475 1.02.475.736 0 1.333-.597 1.333-1.333 0-.299-.099-.576-.265-.798l.003.003-1.333-1.765-3.008-3.989c-.033-.044-.053-.1-.053-.16 0-.147.119-.267.267-.267.087 0 .164.042.213.106v.001l3.051 4.069.187.224.816.981.037.043c.245.295.613.482 1.023.482.302 0 .581-.101.804-.271l-.003.002c.281-.201.477-.506.532-.857l.001-.007c.008-.058.013-.125.013-.193 0-.331-.113-.636-.303-.877l.002.003-6.587-8.843.331-.427 6.128 8.24z"/></svg>