<svg height="32" viewBox="0 0 32 32" width="32" xmlns="http://www.w3.org/2000/svg"><path d="m22.857 10.893q-1 .446-2.161.607 1.214-.714 1.661-2.089-1.161.679-2.393.911-1.089-1.179-2.732-1.179-1.554 0-2.652 1.098t-1.098 2.652q0 .518.089.857-2.304-.125-4.321-1.161t-3.429-2.768q-.518.893-.518 1.893 0 2.036 1.625 3.125-.839-.018-1.786-.464v.036q0 1.339.893 2.384t2.196 1.295q-.518.143-.911.143-.232 0-.696-.071.375 1.125 1.33 1.857t2.17.75q-2.071 1.607-4.661 1.607-.464 0-.893-.054 2.643 1.679 5.75 1.679 2 0 3.75-.634t3-1.696 2.152-2.446 1.339-2.893.438-3.009q0-.321-.018-.482 1.125-.804 1.875-1.946zm4.572-3.464v17.143q0 2.125-1.509 3.634t-3.634 1.509h-17.143q-2.125 0-3.634-1.509t-1.509-3.634v-17.143q0-2.125 1.509-3.634t3.634-1.509h17.143q2.125 0 3.634 1.509t1.509 3.634z"/></svg>