<svg height="32" viewBox="0 0 32 32" width="32" xmlns="http://www.w3.org/2000/svg"><path d="m19.916 18.825c3.436-1.543 5.786-4.936 5.786-8.877 0-5.358-4.344-9.702-9.702-9.702s-9.702 4.344-9.702 9.702c0 3.941 2.35 7.333 5.725 8.852l.061.025c-5.537 1.353-9.581 6.272-9.581 12.135v.046-.002c0 .414.336.75.75.75s.75-.336.75-.75c0-6.377 5.158-11.187 11.998-11.187s11.998 4.81 11.998 11.187c0 .414.336.75.75.75s.75-.336.75-.75c0-.013 0-.028 0-.044 0-5.863-4.045-10.781-9.496-12.117l-.085-.018zm-3.916-17.071c3.831.007 7.045 2.637 7.944 6.189l.012.057c-.598.296-1.303.469-2.048.469-.283 0-.559-.025-.828-.073l.028.004c-1.249-.144-2.313-.835-2.96-1.822l-.01-.016c-.114-.192-.306-.327-.531-.362l-.004-.001c-.035-.006-.075-.009-.115-.009-.195 0-.372.075-.504.198-1.479 1.252-3.409 2.013-5.516 2.013-1.211 0-2.364-.251-3.408-.705l.055.021c1.009-3.466 4.155-5.958 7.883-5.964h.001zm-8.202 8.202c0-.235.016-.465.035-.695 1.067.41 2.302.648 3.592.648 2.22 0 4.276-.704 5.957-1.9l-.032.021c.891.996 2.121 1.674 3.507 1.851l.028.003c.315.05.678.078 1.048.078h.022c.802 0 1.566-.157 2.265-.442l-.04.014c.007.141.021.28.021.422 0 4.53-3.672 8.202-8.202 8.202s-8.202-3.672-8.202-8.202z"/></svg>