<svg width="24" height="24" viewBox="0 0 24 24" fill="#000000" xmlns="http://www.w3.org/2000/svg">
    <path d="M2.81802 15.818C3.66193 14.9741 4.80653 14.5 6 14.5H13C14.1935 14.5 15.3381 14.9741 16.182 15.818C17.0259 16.6619 17.5 17.8065 17.5 19V21C17.5 21.2761 17.2761 21.5 17 21.5C16.7239 21.5 16.5 21.2761 16.5 21V19C16.5 18.0717 16.1313 17.1815 15.4749 16.5251C14.8185 15.8687 13.9283 15.5 13 15.5H6C5.07174 15.5 4.1815 15.8687 3.52513 16.5251C2.86875 17.1815 2.5 18.0717 2.5 19V21C2.5 21.2761 2.27614 21.5 2 21.5C1.72386 21.5 1.5 21.2761 1.5 21V19C1.5 17.8065 1.97411 16.6619 2.81802 15.818Z" />
    <path d="M9.5 3.5C7.567 3.5 6 5.067 6 7C6 8.933 7.567 10.5 9.5 10.5C11.433 10.5 13 8.933 13 7C13 5.067 11.433 3.5 9.5 3.5ZM5 7C5 4.51472 7.01472 2.5 9.5 2.5C11.9853 2.5 14 4.51472 14 7C14 9.48528 11.9853 11.5 9.5 11.5C7.01472 11.5 5 9.48528 5 7Z" />
    <path d="M23.3536 8.64645C23.5488 8.84171 23.5488 9.15829 23.3536 9.35355L19.3536 13.3536C19.1583 13.5488 18.8417 13.5488 18.6464 13.3536L16.6464 11.3536C16.4512 11.1583 16.4512 10.8417 16.6464 10.6464C16.8417 10.4512 17.1583 10.4512 17.3536 10.6464L19 12.2929L22.6464 8.64645C22.8417 8.45118 23.1583 8.45118 23.3536 8.64645Z" />
</svg>
