<svg width="60" height="60" viewBox="0 0 60 60" fill="#000000" xmlns="http://www.w3.org/2000/svg">
    <path fill-rule="evenodd" clip-rule="evenodd" d="M7.66318 48.4731L7.68039 48.4966C7.70096 48.5247 7.71872 48.5518 7.73399 48.5772C10.2718 51.6157 13.3534 54.0526 16.7771 55.8061C13.4213 54.0794 10.4504 51.7141 8.01361 48.8788L7.66798 48.4767L7.80695 47.9649C7.87191 47.7257 7.94068 47.4881 8.0132 47.2519L7.6181 48.4186C7.62693 48.4293 7.63578 48.44 7.64463 48.4507L7.66318 48.4731ZM6.81334 47.3972L6.46061 46.9075C3.12131 42.272 1.10913 36.6164 1.00429 30.5029C1.11246 36.8318 3.25798 42.6718 6.81334 47.3972ZM22.1922 32.3823C22.4292 32.2966 22.668 32.2148 22.9085 32.1368L23.3462 31.9948L23.7387 32.2349C23.8165 32.2825 23.887 32.3211 23.9767 32.3703C24.0224 32.3954 24.0731 32.4232 24.1322 32.4563L24.1323 32.4563C24.1889 32.488 24.2258 32.5094 24.2562 32.527C24.2939 32.5488 24.3214 32.5647 24.3639 32.5872L24.3644 32.5875C24.644 32.7357 24.9212 32.8713 25.2004 32.9915L25.2068 32.9943C25.3877 33.0736 25.5747 33.1425 25.7958 33.2239C25.8206 33.233 25.8458 33.2423 25.8714 33.2517C25.9032 33.263 25.9331 33.2743 25.9541 33.2822M25.675 34.245C25.651 34.2365 25.627 34.2275 25.603 34.2185C25.579 34.2095 25.555 34.2005 25.531 34.192C25.5039 34.182 25.4768 34.172 25.4497 34.1621C25.2327 34.0823 25.0157 34.0024 24.805 33.91C24.496 33.777 24.194 33.629 23.896 33.471C23.8422 33.4425 23.7893 33.4121 23.7364 33.3816C23.7056 33.364 23.6749 33.3463 23.644 33.329C23.6021 33.3055 23.5599 33.2824 23.5179 33.2593C23.4165 33.2036 23.3152 33.1481 23.217 33.088C16.177 35.371 10.705 41.109 8.772 48.227C11.273 51.137 14.355 53.533 17.844 55.221C17.859 55.229 17.873 55.236 17.888 55.243C18.246 55.415 18.609 55.578 18.975 55.735C19.0077 55.7488 19.0401 55.7627 19.0725 55.7767C19.1222 55.7981 19.1717 55.8194 19.222 55.84C19.542 55.974 19.866 56.101 20.192 56.223L20.1929 56.2233C20.3286 56.2732 20.4643 56.3231 20.601 56.372L20.2642 57.3136C20.2019 57.2913 20.1398 57.2688 20.0784 57.2464C20.1177 57.2611 20.1568 57.2754 20.1963 57.2896C20.2457 57.3073 20.2952 57.3249 20.3448 57.3423C20.3179 57.3328 20.2911 57.3232 20.2642 57.3136L20.601 56.372C20.889 56.475 21.18 56.574 21.473 56.668C21.655 56.726 21.838 56.781 22.021 56.835C22.281 56.912 22.543 56.988 22.806 57.058C22.9983 57.1091 23.1922 57.1557 23.3862 57.2024C23.4161 57.2096 23.4461 57.2168 23.476 57.224L23.541 57.2396C23.7535 57.2905 23.9669 57.3416 24.182 57.387C24.44 57.441 24.701 57.489 24.962 57.536C25.0093 57.5447 25.0566 57.5536 25.1039 57.5624C25.2673 57.593 25.4308 57.6236 25.596 57.65C25.8851 57.6954 26.1772 57.732 26.4683 57.7685L26.48 57.77C26.5417 57.7779 26.6032 57.7863 26.6649 57.7946C26.79 57.8116 26.9153 57.8286 27.042 57.842C27.379 57.878 27.718 57.902 28.058 57.925C28.1169 57.9293 28.1755 57.9343 28.234 57.9393C28.3265 57.9472 28.4189 57.9551 28.512 57.96C29.006 57.986 29.502 58 30 58C30.498 58 30.994 57.986 31.489 57.96C31.5757 57.9555 31.6614 57.948 31.7468 57.9407C31.8122 57.935 31.8775 57.9293 31.943 57.925L32.019 57.9196C32.3328 57.8975 32.6472 57.8753 32.959 57.842C33.0857 57.8286 33.211 57.8116 33.3361 57.7946C33.3978 57.7863 33.4593 57.7779 33.521 57.77L33.5327 57.7685C33.8238 57.732 34.1159 57.6954 34.405 57.65C34.5702 57.6236 34.7337 57.593 34.8972 57.5624C34.9444 57.5536 34.9917 57.5447 35.039 57.536L35.0559 57.5329C35.3103 57.487 35.5656 57.4408 35.819 57.387C36.0232 57.3439 36.2251 57.2957 36.4273 57.2473C36.4599 57.2395 36.4924 57.2318 36.525 57.224C36.749 57.171 36.973 57.117 37.195 57.058C37.459 56.988 37.72 56.913 37.98 56.835C38.163 56.781 38.346 56.726 38.528 56.668C38.821 56.574 39.111 56.475 39.4 56.372C39.537 56.324 39.673 56.274 39.809 56.223C40.135 56.101 40.459 55.974 40.779 55.84C40.8449 55.8122 40.9102 55.7838 40.9759 55.7557C40.9929 55.7484 41.0099 55.7412 41.027 55.734C41.393 55.576 41.756 55.414 42.113 55.242C42.1217 55.2379 42.1301 55.2335 42.1385 55.2292C42.1446 55.2261 42.1507 55.2229 42.157 55.22C45.646 53.531 48.728 51.135 51.229 48.226C49.295 41.109 43.824 35.371 36.784 33.087C36.6858 33.1474 36.5846 33.2028 36.4835 33.2581C36.4406 33.2816 36.3976 33.3051 36.355 33.329C36.3228 33.347 36.2908 33.3653 36.2588 33.3836C36.2071 33.4131 36.1554 33.4426 36.103 33.471C35.805 33.629 35.503 33.777 35.194 33.91C34.9833 34.0024 34.7663 34.0822 34.5494 34.162C34.5222 34.172 34.4951 34.182 34.468 34.192C34.444 34.2005 34.42 34.2095 34.396 34.2185C34.372 34.2275 34.348 34.2365 34.324 34.245C32.969 34.725 31.518 35 30 35C28.482 35 27.031 34.725 25.675 34.245ZM42.5444 56.1442C42.1712 56.3239 41.7954 56.4915 41.4233 56.6521L41.4156 56.6555L41.4156 56.6554C41.378 56.6713 41.3401 56.6876 41.2983 56.7056L41.297 56.7061C41.2566 56.7235 41.2125 56.7425 41.1675 56.7614L41.1652 56.7624C40.9379 56.8576 40.7096 56.949 40.4812 57.0373C40.7379 56.9388 40.9906 56.8384 41.2402 56.7338C41.254 56.728 41.2693 56.7213 41.2954 56.7097C41.318 56.6996 41.3509 56.6849 41.386 56.6702C45.5456 54.894 49.283 52.1528 52.2675 48.5799C52.2874 48.5468 52.3118 48.5102 52.3417 48.4721L52.3493 48.4625L52.3571 48.453C52.366 48.4423 52.3748 48.4316 52.3837 48.4208L51.9898 47.2579C52.0616 47.4917 52.1297 47.727 52.194 47.9638L52.3331 48.4757L51.9873 48.8779C49.3988 51.8887 46.2077 54.37 42.5929 56.12C42.5929 56.12 42.5928 56.12 42.5927 56.1201L42.5743 56.1295C42.5666 56.1334 42.5563 56.1385 42.5444 56.1442ZM53.1506 47.4488L53.5405 46.9074C56.8511 42.3104 58.8574 36.7101 58.9927 30.6548C58.8526 36.9474 56.6984 42.7508 53.1506 47.4488ZM41.776 57.591C41.751 57.6015 41.7262 57.6125 41.7015 57.6235C41.6768 57.6345 41.652 57.6455 41.627 57.656C41.276 57.803 40.922 57.941 40.565 58.075C40.5242 58.0903 40.4834 58.1058 40.4427 58.1212C40.3428 58.159 40.2432 58.1968 40.143 58.233C39.836 58.343 39.527 58.447 39.216 58.547C39.017 58.611 38.818 58.674 38.617 58.734C38.342 58.816 38.066 58.896 37.788 58.97C37.544 59.035 37.298 59.096 37.052 59.156C36.802 59.216 36.553 59.275 36.302 59.329C36.021 59.389 35.738 59.442 35.455 59.494C35.4053 59.5032 35.3557 59.5124 35.306 59.5216C35.1276 59.5548 34.9491 59.5881 34.77 59.617C34.4776 59.6643 34.1835 59.7022 33.8885 59.7402L33.82 59.749C33.7517 59.7577 33.6835 59.7668 33.6153 59.7759C33.4788 59.7941 33.3424 59.8123 33.205 59.827C32.845 59.865 32.482 59.891 32.118 59.917C32.0506 59.9218 31.9834 59.9275 31.9161 59.9333C31.8147 59.9419 31.7132 59.9506 31.611 59.956C31.078 59.984 30.541 60 30 60C29.459 60 28.922 59.984 28.391 59.954C28.2888 59.9486 28.1873 59.9399 28.0859 59.9313C28.0186 59.9255 27.9514 59.9198 27.884 59.915C27.52 59.89 27.157 59.863 26.797 59.825C26.6596 59.8103 26.5232 59.7921 26.3867 59.7739C26.3185 59.7648 26.2503 59.7557 26.182 59.747L26.1135 59.7382C25.8185 59.7002 25.5244 59.6623 25.232 59.615C25.0536 59.5863 24.8771 59.5534 24.7005 59.5205C24.6493 59.511 24.5982 59.5014 24.547 59.492C24.263 59.44 23.98 59.387 23.7 59.327C23.449 59.274 23.199 59.214 22.95 59.154C22.704 59.095 22.458 59.034 22.214 58.968C21.936 58.893 21.66 58.814 21.385 58.732C21.184 58.672 20.985 58.609 20.786 58.545C20.475 58.445 20.166 58.341 19.859 58.231C19.7467 58.1907 19.6357 58.1485 19.525 58.1064C19.4956 58.0952 19.4663 58.0841 19.437 58.073C19.081 57.939 18.726 57.802 18.375 57.654C18.35 57.6435 18.3252 57.6325 18.3005 57.6215C18.2757 57.6105 18.251 57.5995 18.226 57.589C13.889 55.738 9.997 52.873 6.898 49.136C6.89166 49.1286 6.88839 49.1198 6.8851 49.111C6.88215 49.103 6.87919 49.0951 6.874 49.088C2.582 43.898 0 37.245 0 30C0 13.458 13.458 0 30 0C46.542 0 60 13.458 60 30C60 37.245 57.418 43.898 53.128 49.09C53.1227 49.0967 53.1197 49.1048 53.1167 49.113C53.1135 49.1218 53.1102 49.1307 53.104 49.138C50.005 52.875 46.112 55.74 41.776 57.591ZM18.72 56.7136C18.7385 56.7218 18.7508 56.7272 18.7622 56.732L18.7635 56.7326C18.835 56.7627 18.9067 56.7924 18.9789 56.8218C18.9324 56.8027 18.8858 56.7834 18.8394 56.7639C18.8032 56.7491 18.7608 56.7311 18.72 56.7136ZM31.7574 58.9432C31.7064 58.9476 31.6576 58.9515 31.6006 58.955C31.647 58.9518 31.7024 58.9476 31.7574 58.9432ZM36.7568 58.1968C36.8813 58.1673 37.0086 58.1369 37.1373 58.105C37.0316 58.1315 36.9247 58.1577 36.8166 58.1841C36.5685 58.2436 36.3303 58.3 36.0927 58.3511M37.431 58.03C37.4643 58.0213 37.4975 58.0125 37.5306 58.0037L37.5308 58.0037C37.7952 57.9333 38.0606 57.8564 38.3312 57.7757C38.4413 57.7428 38.5515 57.7088 38.6627 57.6738C38.5286 57.7152 38.3957 57.755 38.2653 57.7934C37.9988 57.8734 37.728 57.9512 37.4518 58.0245M39.0713 57.5427C39.3186 57.4618 39.5631 57.3785 39.8053 57.2918C39.8965 57.2587 39.9839 57.2256 40.0788 57.1897C39.9657 57.2318 39.8503 57.2738 39.7329 57.315C39.5141 57.3929 39.2938 57.469 39.0713 57.5427ZM26.0088 33.3024C27.2659 33.7473 28.6042 34 30 34C31.3959 34 32.7342 33.7473 33.9901 33.3024L33.9902 33.3024C34.004 33.2975 34.0194 33.2917 34.0449 33.2822L34.0473 33.2813C34.0682 33.2734 34.0971 33.2626 34.1277 33.2517C34.1533 33.2422 34.1784 33.233 34.2031 33.2239C34.4242 33.1425 34.6113 33.0737 34.7922 32.9943L34.7986 32.9914C35.0765 32.8719 35.3525 32.7369 35.6308 32.5895C35.675 32.5655 35.7076 32.5468 35.7474 32.524C35.7793 32.5057 35.8158 32.4848 35.8667 32.4563L35.8668 32.4563C35.9287 32.4216 35.9809 32.3931 36.0276 32.3676C36.1156 32.3194 36.1838 32.2821 36.2606 32.2349L36.6537 31.9934L37.0926 32.1358C37.3214 32.21 37.5487 32.2878 37.7742 32.3689L36.8066 31.9926L37.6962 31.1911C37.3256 31.5017 36.9361 31.7902 36.5298 32.0549L36.5288 32.0555C36.0984 32.3352 35.6506 32.5854 35.1907 32.804C35.172 32.813 35.082 32.8576 35.0279 32.8825L35.024 32.8843C31.865 34.3209 28.135 34.3209 24.976 32.8843L24.9721 32.8825C24.919 32.858 24.8638 32.8309 24.8243 32.8114C24.818 32.8083 24.8121 32.8055 24.8067 32.8028C24.3459 32.5841 23.9 32.3342 23.4712 32.0555L23.4702 32.0549C23.0696 31.794 22.6854 31.5098 22.3195 31.2043L23.1946 31.9923L22.1922 32.3823M25.241 31.902C25.2509 31.9069 25.2609 31.9118 25.2709 31.9167C25.3102 31.936 25.3501 31.9557 25.39 31.974C28.286 33.291 31.714 33.291 34.61 31.974C34.6413 31.9596 34.6722 31.9444 34.7031 31.9292C34.7217 31.9201 34.7403 31.911 34.759 31.902C35.18 31.702 35.59 31.473 35.984 31.217C38.999 29.253 41 25.858 41 22C41 15.935 36.065 11 30 11C23.935 11 19 15.935 19 22C19 25.858 21.001 29.253 24.016 31.217C24.41 31.473 24.819 31.702 25.241 31.902ZM52.309 45.1804C49.9964 39.3543 45.4461 34.6179 39.6963 32.0707C39.3622 31.9226 39.024 31.782 38.682 31.649C38.9529 31.405 39.2136 31.1498 39.4634 30.8843C41.6507 28.5592 43 25.4375 43 22C43 14.832 37.168 9 30 9C22.832 9 17 14.832 17 22C17 25.4375 18.3493 28.5593 20.5375 30.8844C20.7873 31.1499 21.0481 31.405 21.319 31.649C20.977 31.7821 20.6388 31.9227 20.3047 32.0708C14.5549 34.6187 10.0046 39.3545 7.69192 45.1805C7.54252 45.5569 7.40245 45.9378 7.272 46.323C7.0316 45.9893 6.79833 45.6501 6.57242 45.3057C3.68501 40.9037 2 35.6462 2 30C2 14.561 14.561 2 30 2C45.439 2 58 14.561 58 30C58 35.6462 56.315 40.9035 53.4285 45.3055C53.2026 45.65 52.9694 45.9892 52.729 46.323C52.5985 45.9378 52.4585 45.5568 52.309 45.1804Z" />
</svg>
