<svg height="32" viewBox="0 0 34 32" width="34" xmlns="http://www.w3.org/2000/svg"><path d="m22.495 21.819c.115.075.256.12.407.12.414 0 .75-.336.75-.75 0-.262-.134-.492-.337-.626l-.003-.002c-.757-.497-1.626-.943-2.542-1.291l-.093-.031c-.428-.159-.865-.296-1.308-.414 3.436-1.544 5.785-4.936 5.785-8.876 0-5.358-4.344-9.702-9.702-9.702s-9.702 4.344-9.702 9.702c0 3.941 2.35 7.333 5.725 8.852l.061.025c-5.537 1.354-9.581 6.272-9.581 12.135v.046-.002c0 .414.336.75.75.75s.75-.336.75-.75c0-6.377 5.157-11.187 11.997-11.187h.062c1.665 0 3.26.304 4.731.859l-.092-.031c.897.337 1.669.732 2.388 1.202l-.046-.028zm-7.043-20.065c3.831.007 7.045 2.637 7.944 6.19l.012.057c-.597.296-1.3.47-2.044.47-.284 0-.562-.025-.832-.074l.028.004c-1.249-.144-2.313-.835-2.959-1.822l-.01-.016c-.133-.223-.373-.371-.648-.371-.196 0-.374.075-.507.197h.001c-1.479 1.252-3.408 2.014-5.516 2.014-1.212 0-2.364-.252-3.409-.706l.055.021c1.009-3.466 4.155-5.958 7.883-5.964h.001zm-8.202 8.202c0-.235.016-.465.035-.695 1.067.41 2.302.647 3.591.647 2.22 0 4.277-.703 5.958-1.899l-.032.021c.891.996 2.121 1.674 3.507 1.851l.028.003c.315.05.678.078 1.047.078h.001.022c.802 0 1.567-.157 2.266-.442l-.04.014c.007.141.021.28.021.422 0 4.53-3.672 8.202-8.202 8.202s-8.202-3.672-8.202-8.202zm25.092 10.507-10.435 10.435c-.068.068-.162.11-.265.11s-.197-.042-.265-.11l-4.565-4.565c-.068-.068-.11-.162-.11-.265s.042-.197.11-.265l2.283-2.283c.068-.068.162-.11.265-.11s.197.042.265.11l2.018 2.018 7.887-7.887c.069-.065.162-.105.265-.105s.196.04.265.106l2.283 2.283c.068.068.11.162.11.265s-.042.197-.11.265z"/></svg>