<svg height="32" viewBox="0 0 32 32" width="32" xmlns="http://www.w3.org/2000/svg"><path d="m25.782.25h-19.564c-1.854.002-3.357 1.504-3.359 3.358v24.783c.002 1.854 1.505 3.357 3.359 3.358h19.565c1.854-.002 3.357-1.504 3.359-3.358v-24.783c-.002-1.854-1.505-3.357-3.359-3.358zm-19.564 1.5h19.564c1.026.001 1.858.832 1.859 1.858v4.468h-23.283v-4.468c.002-1.026.833-1.857 1.859-1.858zm19.564 28.5h-19.564c-1.026-.001-1.858-.832-1.859-1.858v-18.816h23.283v18.815c-.002 1.026-.833 1.857-1.859 1.858zm-9.782-18.261c-.176 0-.348.015-.521.026-.038-.012-.082-.021-.128-.026h-.003c-.108 0-.21.023-.302.064l.005-.002c-3.947.481-6.974 3.811-6.974 7.848 0 1.768.581 3.401 1.562 4.718l-.015-.021c.011.017.013.036.025.052.01.013.026.018.037.031 1.455 1.926 3.741 3.157 6.315 3.157 2.575 0 4.862-1.233 6.303-3.141l.014-.02c.009-.011.023-.015.032-.026.01-.014.012-.031.022-.045.97-1.298 1.553-2.934 1.553-4.706 0-4.368-3.541-7.909-7.909-7.909-.005 0-.011 0-.016 0h.001zm6.424 7.924c0 1.18-.321 2.285-.88 3.233l.016-.03-2.482-1.867c.177-.395.281-.856.281-1.341 0-1.818-1.45-3.297-3.256-3.343h-.004v-3.07c3.503.058 6.321 2.908 6.326 6.418zm-8.282 0c0-1.026.832-1.858 1.858-1.858s1.858.832 1.858 1.858-.832 1.858-1.858 1.858c-1.026-.001-1.857-.833-1.858-1.858zm.456-6.265v3.223c-1.163.538-1.956 1.695-1.956 3.038 0 .485.103.945.289 1.36l-.008-.021-2.482 1.867c-.543-.921-.863-2.029-.863-3.212 0-3.047 2.128-5.598 4.979-6.247l.043-.008zm1.402 12.689c-1.837-.001-3.493-.775-4.66-2.015l-.003-.003 2.486-1.869c.577.511 1.341.823 2.177.823s1.6-.312 2.18-.826l-.003.003 2.485 1.87c-1.17 1.243-2.825 2.017-4.662 2.018zm7.826-22.728c0-.36.292-.652.652-.652s.652.292.652.652-.292.652-.652.652c-.36 0-.652-.292-.652-.652zm-2.609 0c0-.36.292-.652.652-.652s.652.292.652.652-.292.652-.652.652c-.36 0-.652-.292-.652-.652zm-2.608 0c0-.36.292-.652.652-.652s.652.292.652.652-.292.652-.652.652c-.36 0-.652-.292-.652-.652zm0 2.608c0-.36.292-.652.652-.652s.652.292.652.652-.292.652-.652.652c-.36 0-.652-.292-.652-.652zm2.608 0c0-.36.292-.652.652-.652s.652.292.652.652-.292.652-.652.652c-.36 0-.652-.292-.652-.652 0 0 0 0 0-.001zm2.609 0c0-.36.292-.652.652-.652s.652.292.652.652-.292.652-.652.652c-.36 0-.652-.292-.652-.652zm-16.323.336c.125.248.378.415.67.415h.001 5.218.001c.292 0 .545-.167.668-.411l.002-.004 1.304-2.609c.05-.098.079-.213.079-.335 0-.414-.336-.75-.75-.75h-7.826c-.414 0-.75.336-.75.75 0 .122.029.237.081.339l-.002-.004zm5.98-2.195-.555 1.109h-4.29l-.555-1.109z"/></svg>