<svg height="32" viewBox="0 0 32 32" width="32" xmlns="http://www.w3.org/2000/svg"><path d="m31.633 8.285c-.136.136-.323.219-.53.219s-.394-.084-.53-.219c-3.734-3.726-8.888-6.029-14.58-6.029s-10.846 2.304-14.58 6.03c-.134.127-.316.205-.515.205-.414 0-.75-.336-.75-.75 0-.2.078-.381.206-.516 4.005-3.997 9.534-6.469 15.641-6.469s11.635 2.472 15.641 6.469c.135.136.219.323.219.53s-.084.395-.22.531zm-10.975.778c-.123-.037-.251-.059-.376-.094-.377-.104-.754-.209-1.14-.285-.28-.056-.568-.085-.852-.126-.235-.034-.468-.081-.705-.104-.281-.028-.568-.029-.852-.042-.246-.011-.489-.036-.737-.036h-.008c-.315 0-.625.028-.937.046-.216.012-.436.011-.65.032-.352.035-.697.097-1.044.154-.17.028-.344.042-.513.076-.418.083-.827.193-1.234.309-.093.026-.189.042-.281.07-.433.131-.856.289-1.275.456-.063.025-.129.043-.191.068-.982.415-1.82.867-2.608 1.388l.059-.037c-.065.042-.135.076-.199.12-.915.617-1.714 1.278-2.443 2.009-.139.136-.225.326-.225.536 0 .414.336.75.75.75.21 0 .4-.086.536-.225 1.636-1.643 3.664-2.895 5.932-3.602l.102-.027c.112-.034.228-.054.341-.085.341-.094.683-.189 1.032-.258.254-.05.514-.077.772-.114.213-.031.424-.073.639-.095.255-.025.515-.026.772-.038.224-.01.445-.033.671-.033h.001c.225 0 .447.023.671.033.258.012.517.013.772.038.216.021.426.064.64.095.258.037.518.064.772.114.349.069.691.164 1.032.258.113.031.229.051.341.085 2.371.735 4.399 1.986 6.034 3.629l.001.001c.136.14.327.227.538.227.414 0 .75-.336.75-.75 0-.211-.087-.402-.227-.538-1.805-1.814-4.042-3.194-6.545-3.975l-.113-.03zm2.342 9.845c-1.795-1.789-4.272-2.895-7.007-2.895s-5.212 1.106-7.007 2.896c-.136.136-.219.323-.219.53s.084.394.219.53c.112.107.257.179.419.198h.003c.03.009.066.016.103.021h.004c.048-.005.091-.014.132-.026l-.005.001c.158-.023.296-.093.404-.195 1.524-1.518 3.625-2.457 5.946-2.457s4.423.939 5.947 2.457c.107.102.245.172.399.195h.004c.036.011.079.02.124.024h.003c.041-.005.077-.012.112-.022l-.005.001c.165-.02.311-.092.423-.199.136-.136.219-.323.219-.53s-.084-.394-.219-.53zm-3.204 8.533c0 2.1-1.703 3.803-3.803 3.803s-3.803-1.703-3.803-3.803 1.703-3.803 3.803-3.803c2.099.003 3.8 1.704 3.803 3.803zm-1.5 0c0-1.272-1.031-2.303-2.303-2.303s-2.303 1.031-2.303 2.303 1.031 2.303 2.303 2.303c1.271-.002 2.301-1.032 2.303-2.303z"/></svg>