<svg width="22" height="19" viewBox="0 0 22 19" fill="#000000" xmlns="http://www.w3.org/2000/svg">
    <path d="M13.5301 0.938893C14.2294 0.649138 14.9789 0.5 15.7359 0.5C16.4928 0.5 17.2424 0.649138 17.9417 0.938893C18.6409 1.22862 19.2762 1.65326 19.8113 2.18855C20.3466 2.72364 20.7714 3.3591 21.0611 4.05833C21.3509 4.75763 21.5 5.50717 21.5 6.26412C21.5 7.02107 21.3509 7.77061 21.0611 8.46991C20.7714 9.16917 20.3467 9.8045 19.8114 10.3396C19.8113 10.3396 19.8114 10.3396 19.8114 10.3396L11.3533 18.7977C11.158 18.9929 10.8415 18.9929 10.6462 18.7977L2.18812 10.3396C1.10724 9.25872 0.5 7.79272 0.5 6.26412C0.5 4.73552 1.10724 3.26952 2.18812 2.18863C3.26901 1.10775 4.735 0.500512 6.26361 0.500512C7.79221 0.500512 9.25821 1.10775 10.3391 2.18863L10.9997 2.84928L11.6603 2.18872C11.6603 2.18869 11.6603 2.18874 11.6603 2.18872C12.1954 1.65338 12.8308 1.22863 13.5301 0.938893ZM15.7359 1.5C15.1103 1.5 14.4908 1.62326 13.9129 1.86273C13.3349 2.1022 12.8098 2.45319 12.3676 2.89566L11.3533 3.90994C11.158 4.10521 10.8415 4.10521 10.6462 3.90994L9.63199 2.89574C8.73864 2.00239 7.527 1.50051 6.26361 1.50051C5.00022 1.50051 3.78858 2.00239 2.89523 2.89574C2.00188 3.78909 1.5 5.00073 1.5 6.26412C1.5 7.52751 2.00188 8.73915 2.89523 9.6325L10.9997 17.737L19.1043 9.6325C19.5467 9.19024 19.8978 8.66506 20.1373 8.08712C20.3767 7.50917 20.5 6.88971 20.5 6.26412C20.5 5.63853 20.3767 5.01907 20.1373 4.44112C19.8978 3.86318 19.5468 3.33808 19.1043 2.89582C18.6621 2.45336 18.1368 2.1022 17.5589 1.86273C16.9809 1.62326 16.3615 1.5 15.7359 1.5Z"/>
</svg>
